{"glyphs":{"0":{"ha":763,"x_min":88,"x_max":671,"o":"m 671 703 l 671 257 q 585 51 671 117 q 381 -15 500 -15 q 174 51 261 -15 q 88 257 88 117 l 88 704 q 166 921 88 847 q 382 994 244 994 q 595 917 519 994 q 671 703 671 839 m 571 268 l 571 697 q 522 843 571 793 q 379 893 472 893 q 188 697 188 893 l 188 265 q 240 130 188 176 q 379 83 293 83 q 518 130 465 83 q 571 268 571 176 z "},"1":{"ha":307,"x_min":29,"x_max":279,"o":"m 279 0 l 178 0 l 178 844 q 75 797 142 814 l 54 793 l 29 885 q 104 910 58 885 q 178 972 150 936 l 279 972 l 279 0 z "},"2":{"ha":554,"x_min":29,"x_max":526,"o":"m 526 0 l 29 0 l 29 93 l 371 608 q 419 744 419 686 q 376 851 419 813 q 281 889 333 889 q 192 858 229 889 q 139 778 154 826 l 49 819 q 135 939 75 892 q 289 986 194 986 q 450 926 383 986 q 522 767 522 861 q 461 569 522 672 l 146 93 l 526 93 l 526 0 z "},"3":{"ha":599,"x_min":29,"x_max":571,"o":"m 29 115 l 103 176 q 175 108 129 133 q 274 82 221 82 q 414 140 358 82 q 469 280 469 197 q 410 417 469 363 q 263 476 351 472 l 110 476 l 376 872 l 92 872 l 92 972 l 492 972 l 492 879 l 288 574 l 292 574 q 489 484 407 568 q 571 278 571 400 q 484 69 571 156 q 275 -17 397 -17 q 135 19 200 -17 q 29 115 69 54 z "},"4":{"ha":694,"x_min":29,"x_max":667,"o":"m 567 0 l 467 0 l 467 476 l 29 476 l 297 972 l 401 972 l 196 574 l 467 574 l 467 972 l 567 972 l 567 574 l 667 574 l 640 476 l 567 476 l 567 0 z "},"5":{"ha":599,"x_min":29,"x_max":571,"o":"m 29 115 l 103 178 q 275 83 168 83 q 415 140 361 83 q 469 281 469 197 q 408 420 469 364 q 257 476 347 476 l 71 476 l 124 972 l 493 972 l 493 872 l 215 872 l 183 574 l 275 574 q 485 488 399 574 q 571 278 571 401 q 484 69 571 156 q 275 -17 397 -17 q 135 19 200 -17 q 29 115 69 54 z "},"6":{"ha":647,"x_min":29,"x_max":619,"o":"m 29 279 l 29 640 q 100 856 29 756 q 206 940 136 907 q 368 972 275 972 l 417 972 l 417 872 l 368 872 q 198 813 268 872 q 128 625 128 754 l 128 483 q 210 549 156 525 q 324 574 264 574 q 533 488 447 574 q 619 278 619 401 q 533 69 619 156 q 324 -17 447 -17 q 115 69 201 -17 q 29 279 29 156 m 128 286 l 128 279 q 185 140 128 197 q 324 82 242 82 q 463 140 406 82 q 519 279 519 197 q 463 417 519 361 q 324 474 406 474 q 186 419 243 474 q 128 286 129 365 z "},"7":{"ha":613,"x_min":36,"x_max":583,"o":"m 151 0 l 42 0 l 471 872 l 36 872 l 36 972 l 583 972 l 583 872 l 151 0 z "},"8":{"ha":649,"x_min":29,"x_max":621,"o":"m 129 278 q 129 238 129 278 q 186 140 129 197 q 324 83 243 83 q 463 140 406 83 q 519 279 519 197 q 463 417 519 361 q 317 475 407 474 q 183 417 238 474 q 129 278 129 360 m 464 539 q 578 431 535 500 q 621 279 621 363 q 534 69 621 156 q 325 -17 447 -17 q 116 69 203 -17 q 29 279 29 156 q 72 433 29 364 q 188 540 115 503 q 83 740 83 611 q 154 913 83 842 q 326 985 225 985 q 499 913 428 985 q 571 740 571 842 q 464 539 571 610 m 319 596 q 428 638 383 596 q 472 740 472 679 q 429 844 472 801 q 326 888 386 888 q 222 844 265 888 q 178 741 178 801 q 219 640 178 681 q 319 596 260 599 z "},"9":{"ha":647,"x_min":29,"x_max":619,"o":"m 281 0 l 232 0 l 232 96 l 286 96 q 452 162 385 96 q 519 349 519 228 l 519 475 q 322 396 443 396 q 115 482 201 396 q 29 691 29 568 q 116 900 29 814 q 325 986 203 986 q 533 900 447 986 q 619 690 619 814 l 619 332 q 550 117 619 217 q 443 33 513 65 q 281 0 374 0 m 128 690 q 128 649 128 690 q 185 551 128 608 q 324 494 243 494 q 463 551 406 494 q 519 692 519 608 q 462 832 519 776 q 324 888 404 888 q 185 830 243 888 q 128 690 128 772 z "}," ":{"ha":386,"x_min":0,"x_max":0,"o":""},"!":{"ha":333,"x_min":110,"x_max":222,"o":"m 204 167 l 126 167 l 110 921 q 166 986 110 986 q 222 922 222 986 l 204 167 m 202 90 q 210 83 202 90 q 218 53 218 75 q 202 15 218 31 q 165 0 186 0 q 127 15 143 0 q 111 53 111 31 q 127 90 111 75 q 165 106 143 106 q 202 90 186 106 z "},"\"":{"ha":592,"x_min":146,"x_max":450,"o":"m 231 711 l 165 711 l 146 969 q 172 1015 146 1001 q 198 1022 185 1022 q 224 1017 211 1022 q 250 969 250 1003 l 231 711 m 431 711 l 365 711 l 346 969 q 372 1015 346 1001 q 398 1022 385 1022 q 424 1017 411 1022 q 450 969 450 1003 l 431 711 z "},"#":{"ha":851,"x_min":47,"x_max":808,"o":"m 808 254 l 554 254 l 494 0 l 394 0 l 453 254 l 288 254 l 229 0 l 132 0 l 190 254 l 47 254 l 47 350 l 214 350 l 261 550 l 47 550 l 47 651 l 285 651 l 360 972 l 457 972 l 382 651 l 547 651 l 622 972 l 724 972 l 649 651 l 808 651 l 808 550 l 624 550 l 576 350 l 808 350 l 808 254 m 475 350 l 524 550 l 358 550 l 311 350 l 475 350 z "},"$":{"ha":750,"x_min":47,"x_max":707,"o":"m 426 -158 l 326 -158 l 326 -12 q 124 78 197 1 q 47 247 50 154 l 151 254 q 204 147 157 194 q 326 88 251 99 l 326 490 q 165 568 217 529 q 92 649 113 607 q 72 747 72 692 q 138 899 72 832 q 326 982 203 967 l 326 1135 l 426 1135 l 426 985 q 588 944 513 979 q 557 850 588 942 q 426 883 494 879 l 426 560 q 530 515 489 536 q 617 460 571 494 q 707 270 707 390 q 638 75 707 150 q 426 -12 569 0 l 426 -158 m 426 449 l 426 86 q 551 142 504 99 q 599 257 599 185 q 554 371 599 329 q 426 449 510 413 m 326 600 l 326 881 q 217 834 256 869 q 178 745 178 799 q 217 659 178 692 q 326 600 256 626 z "},"%":{"ha":939,"x_min":47,"x_max":896,"o":"m 115 0 l 47 68 l 819 1029 l 896 963 l 115 0 m 831 43 q 801 14 831 43 q 689 -15 772 -15 q 547 43 606 -15 q 489 185 489 101 q 547 326 489 268 q 689 385 606 385 q 831 326 772 385 q 889 185 889 268 q 831 43 889 101 m 765 111 q 780 127 765 111 q 794 185 794 143 q 765 258 794 226 q 689 290 736 290 q 613 258 642 290 q 583 185 583 226 q 613 111 583 143 q 689 79 642 79 q 765 111 736 79 m 399 668 q 369 639 399 668 q 257 610 340 610 q 115 668 174 610 q 57 810 57 726 q 115 951 57 893 q 257 1010 174 1010 q 399 951 340 1010 q 457 810 457 893 q 399 668 457 726 m 334 736 q 349 752 334 736 q 364 810 364 768 q 334 883 364 851 q 257 915 304 915 q 181 883 210 915 q 151 810 151 851 q 181 736 151 768 q 257 704 210 704 q 334 736 304 704 z "},"&":{"ha":767,"x_min":49,"x_max":724,"o":"m 692 63 l 669 -15 q 519 101 553 11 q 296 -15 449 -15 q 106 72 171 -15 q 49 249 49 149 q 81 399 49 335 q 160 499 114 463 q 322 594 233 557 q 243 653 276 606 q 206 767 206 706 q 229 876 206 829 q 408 986 278 968 q 453 989 424 989 q 529 971 483 989 l 472 886 q 417 894 447 894 q 356 872 386 894 q 306 770 304 836 q 361 672 308 704 q 428 647 401 647 q 468 650 454 647 l 499 656 l 499 840 l 600 846 l 600 672 l 701 694 l 724 597 l 600 571 l 600 214 q 692 63 600 93 m 499 306 l 499 549 q 239 442 325 510 q 178 372 204 414 q 147 251 147 319 q 185 133 147 183 q 308 83 224 83 q 446 151 393 83 q 499 306 499 219 z "},"'":{"ha":240,"x_min":64,"x_max":168,"o":"m 149 818 l 83 818 l 64 969 q 89 1015 64 1001 q 116 1022 103 1022 q 142 1017 129 1022 q 168 969 168 1003 l 149 818 z "},"(":{"ha":413,"x_min":108,"x_max":301,"o":"m 301 -94 l 260 -164 q 144 -62 179 -117 q 108 99 108 -8 l 108 871 q 144 1033 108 978 q 260 1135 179 1088 l 300 1063 q 208 871 208 1007 l 208 99 q 232 -23 208 17 q 301 -94 256 -62 z "},")":{"ha":413,"x_min":108,"x_max":301,"o":"m 149 -164 l 108 -94 q 178 -23 154 -62 q 201 99 201 17 l 201 871 q 108 1063 201 1006 l 149 1135 q 265 1033 229 1088 q 301 871 301 978 l 301 99 q 266 -62 301 -8 q 149 -164 231 -117 z "},"*":{"ha":489,"x_min":29,"x_max":461,"o":"m 408 631 l 325 572 l 243 715 l 164 572 l 79 632 l 181 751 l 29 793 l 63 882 l 206 815 l 192 972 l 293 972 l 279 815 l 422 883 l 461 792 l 304 751 l 408 631 z "},"+":{"ha":535,"x_min":47,"x_max":492,"o":"m 319 300 l 219 300 l 219 476 l 47 476 l 47 574 l 219 574 l 219 757 l 319 757 l 319 574 l 492 574 l 492 476 l 319 476 l 319 300 z "},",":{"ha":229,"x_min":11,"x_max":169,"o":"m 79 -117 l 11 -78 q 103 -4 71 -43 l 88 0 q 58 48 57 18 q 74 92 58 78 q 101 106 90 106 q 153 85 136 106 q 169 44 169 65 q 79 -117 169 -39 z "},"-":{"ha":569,"x_min":63,"x_max":507,"o":"m 507 476 l 63 476 l 63 574 l 507 574 l 507 476 z "},".":{"ha":176,"x_min":11,"x_max":117,"o":"m 101 15 q 94 8 101 15 q 64 0 86 0 q 26 15 42 0 q 11 53 11 31 q 26 90 11 75 q 64 106 42 106 q 101 90 86 106 q 117 53 117 75 q 101 15 117 31 z "},"/":{"ha":613,"x_min":29,"x_max":585,"o":"m 136 -158 l 29 -158 l 479 1135 l 585 1135 l 136 -158 z "},":":{"ha":168,"x_min":29,"x_max":139,"o":"m 139 526 q 139 515 139 526 q 123 488 139 504 q 84 471 107 471 q 45 487 61 471 q 29 526 29 503 q 46 565 29 549 q 85 581 63 581 q 123 565 107 581 q 139 526 139 549 m 122 247 q 131 239 122 247 q 139 208 139 231 q 122 170 139 186 q 83 154 106 154 q 45 170 61 154 q 29 208 29 186 q 45 247 29 231 q 83 264 61 264 q 122 247 106 264 z "},";":{"ha":215,"x_min":29,"x_max":186,"o":"m 169 335 q 162 327 169 335 q 132 319 154 319 q 94 335 110 319 q 78 372 78 350 q 93 410 78 394 q 131 426 108 426 q 169 410 154 426 q 185 372 185 394 q 169 335 185 350 m 96 -117 l 29 -78 q 111 -14 92 -42 l 119 -4 l 106 0 q 76 48 75 18 q 92 92 76 78 q 119 106 108 106 q 170 85 154 106 q 186 42 186 65 q 96 -117 186 -37 z "},"<":{"ha":513,"x_min":29,"x_max":483,"o":"m 483 175 l 415 111 l 29 497 l 29 499 l 415 885 l 483 818 l 161 497 l 483 175 z "},"=":{"ha":501,"x_min":29,"x_max":474,"o":"m 474 497 l 29 497 l 29 594 l 474 594 l 474 497 m 474 331 l 29 331 l 29 428 l 474 428 l 474 331 z "},">":{"ha":513,"x_min":29,"x_max":483,"o":"m 97 111 l 29 175 l 351 497 l 29 818 l 97 885 l 483 499 l 483 497 l 97 111 z "},"?":{"ha":557,"x_min":29,"x_max":526,"o":"m 307 165 l 211 165 l 211 294 q 231 411 211 358 q 272 492 250 464 q 331 559 294 519 q 382 621 367 599 q 422 739 422 685 q 378 847 422 806 q 274 889 335 889 q 172 850 214 889 q 129 739 129 811 l 29 739 q 94 914 29 843 q 276 985 158 985 q 408 947 349 985 q 526 738 526 872 q 476 583 526 656 q 413 508 450 546 q 358 448 376 469 q 324 377 339 426 q 307 253 308 328 l 307 165 m 296 90 q 303 83 296 90 q 311 53 311 75 q 296 15 311 31 q 258 0 281 0 q 221 15 236 0 q 206 53 206 31 q 221 90 206 75 q 258 106 236 106 q 296 90 281 106 z "},"@":{"ha":1008,"x_min":29,"x_max":979,"o":"m 744 126 q 451 74 549 74 q 306 107 375 74 q 210 283 218 150 l 210 424 q 332 624 210 578 q 435 642 381 642 q 642 589 529 642 q 581 691 633 658 q 458 724 528 724 q 331 711 388 724 q 228 671 275 699 q 125 469 125 611 l 125 264 q 176 103 125 167 q 298 15 226 39 q 464 -8 369 -8 q 640 15 558 -8 q 777 94 722 39 q 832 225 832 149 l 832 474 q 842 601 832 583 q 865 639 853 619 q 950 689 886 671 l 979 614 q 928 514 928 593 l 929 240 q 884 76 929 146 q 765 -31 839 6 q 446 -103 618 -103 q 151 -12 274 -103 q 29 254 29 79 l 29 475 q 55 613 29 553 q 122 711 81 674 q 297 799 201 779 q 392 814 354 814 q 478 811 431 814 q 591 788 525 808 q 701 706 657 767 q 744 554 744 646 l 796 532 l 796 440 l 744 463 l 744 126 m 644 494 q 433 547 542 547 q 342 515 378 547 q 307 417 307 482 l 307 299 q 389 175 307 206 q 476 165 418 165 q 644 199 533 165 l 644 494 z "},"A":{"ha":732,"x_min":21,"x_max":718,"o":"m 718 0 l 606 0 l 510 314 l 221 314 l 129 0 l 21 0 l 307 972 l 422 972 l 718 0 m 485 417 l 364 811 l 247 417 l 485 417 z "},"B":{"ha":758,"x_min":108,"x_max":710,"o":"m 424 0 l 108 0 l 108 972 l 408 972 q 591 913 522 972 q 660 729 660 853 q 568 543 660 606 q 567 540 567 542 l 567 539 q 669 449 628 511 q 710 289 710 388 q 672 131 710 201 q 424 0 606 0 m 208 574 l 388 574 q 550 726 550 574 q 385 875 550 875 l 208 875 l 208 574 m 208 93 l 401 93 q 547 136 494 93 q 599 282 599 179 q 547 431 599 385 q 421 476 494 476 l 208 476 l 208 93 z "},"C":{"ha":603,"x_min":92,"x_max":593,"o":"m 192 257 q 382 83 192 83 q 574 121 464 83 l 593 32 q 368 -14 475 -14 q 301 -10 346 -14 q 205 22 256 -6 q 123 108 154 49 q 92 254 92 167 l 92 700 q 122 860 92 806 q 213 951 151 914 q 361 986 275 986 q 558 940 468 986 l 529 861 q 396 889 454 889 q 298 877 338 889 q 225 823 258 865 q 192 713 192 781 l 192 257 z "},"D":{"ha":800,"x_min":108,"x_max":692,"o":"m 397 0 l 108 0 l 108 974 l 369 974 q 609 888 526 974 q 692 658 692 801 l 692 278 q 397 0 692 0 m 592 264 l 592 672 q 531 827 592 776 q 383 878 471 878 l 208 878 l 208 90 l 375 90 q 572 172 529 90 q 592 264 592 208 z "},"E":{"ha":646,"x_min":108,"x_max":572,"o":"m 569 0 l 108 0 l 108 972 l 572 972 l 572 876 l 208 876 l 208 574 l 451 574 l 419 476 l 208 476 l 208 90 l 569 90 l 569 0 z "},"F":{"ha":621,"x_min":108,"x_max":572,"o":"m 208 0 l 108 0 l 108 972 l 572 972 l 572 875 l 208 875 l 208 574 l 433 574 l 396 476 l 208 476 l 208 0 z "},"G":{"ha":746,"x_min":90,"x_max":661,"o":"m 661 0 l 578 0 l 561 43 q 378 -14 494 -14 q 176 56 261 -14 q 90 263 90 125 l 90 699 q 211 950 90 876 q 360 985 274 985 q 557 939 467 985 l 528 861 q 385 889 453 889 q 190 711 190 889 l 190 260 q 243 130 190 175 q 379 85 296 85 q 513 131 463 85 q 564 258 564 176 l 564 319 l 476 319 l 443 417 l 661 417 l 661 0 z "},"H":{"ha":817,"x_min":108,"x_max":706,"o":"m 706 0 l 606 0 l 606 476 l 208 476 l 208 0 l 108 0 l 108 972 l 208 972 l 208 574 l 606 574 l 606 972 l 706 972 l 706 0 z "},"I":{"ha":388,"x_min":89,"x_max":281,"o":"m 281 0 l 181 0 l 181 878 l 89 881 l 89 972 l 281 972 l 281 0 z "},"J":{"ha":288,"x_min":7,"x_max":231,"o":"m 35 -51 l 7 24 q 93 58 56 24 q 131 176 131 92 l 131 878 l 40 881 l 40 972 l 231 972 l 231 172 q 35 -51 231 -50 z "},"K":{"ha":683,"x_min":110,"x_max":683,"o":"m 683 0 l 561 0 l 263 451 l 214 374 l 214 0 l 110 0 l 110 974 l 214 974 l 214 549 l 499 974 l 617 974 l 325 543 l 683 0 z "},"L":{"ha":611,"x_min":108,"x_max":610,"o":"m 610 0 l 108 0 l 108 972 l 208 972 l 208 90 l 610 90 l 610 0 z "},"M":{"ha":964,"x_min":108,"x_max":853,"o":"m 853 0 l 753 0 l 753 674 l 526 0 l 432 0 l 208 674 l 208 0 l 108 0 l 108 972 l 208 972 l 479 182 l 753 972 l 853 972 l 853 0 z "},"N":{"ha":903,"x_min":108,"x_max":792,"o":"m 792 0 l 690 0 l 208 778 l 208 0 l 108 0 l 108 972 l 208 972 l 690 196 l 690 972 l 792 972 l 792 0 z "},"O":{"ha":763,"x_min":88,"x_max":671,"o":"m 671 703 l 671 257 q 585 51 671 117 q 381 -15 500 -15 q 174 51 261 -15 q 88 257 88 117 l 88 704 q 166 921 88 847 q 382 994 244 994 q 595 917 519 994 q 671 703 671 839 m 571 268 l 571 697 q 522 843 571 793 q 379 893 472 893 q 188 697 188 893 l 188 265 q 240 130 188 176 q 379 83 293 83 q 518 130 465 83 q 571 268 571 176 z "},"P":{"ha":760,"x_min":108,"x_max":711,"o":"m 208 417 l 440 417 q 525 436 490 417 q 576 478 560 456 q 601 542 592 500 q 610 604 610 583 q 611 664 611 625 q 435 875 611 875 l 208 875 l 208 417 m 208 0 l 108 0 l 108 972 l 443 972 q 645 888 579 972 q 711 665 711 803 q 708 581 711 617 q 691 492 706 546 q 651 405 676 439 q 575 345 626 371 q 453 319 524 319 l 208 319 l 208 0 z "},"Q":{"ha":763,"x_min":88,"x_max":671,"o":"m 596 -49 l 590 -140 q 586 -140 589 -140 q 357 -14 415 -140 q 176 49 251 -8 q 112 133 136 79 q 88 257 88 186 l 88 704 q 166 921 88 847 q 382 994 244 994 q 595 917 519 994 q 671 703 671 839 l 671 257 q 610 73 671 138 q 458 -7 549 8 q 596 -49 493 -49 m 571 260 l 571 713 q 521 846 571 797 q 379 894 471 894 q 238 847 288 894 q 188 713 188 800 l 188 258 q 227 138 188 188 q 332 83 267 89 q 328 163 328 108 l 328 242 l 428 242 l 428 164 q 431 85 428 108 q 533 139 496 92 q 571 260 571 186 z "},"R":{"ha":783,"x_min":108,"x_max":713,"o":"m 713 0 l 610 0 l 500 322 q 456 319 475 319 l 208 319 l 208 0 l 108 0 l 108 972 l 446 972 q 645 888 579 972 q 711 665 711 803 q 658 417 711 494 q 593 354 633 379 l 713 0 m 208 417 l 443 417 q 561 464 525 417 q 588 508 578 488 q 603 564 599 529 q 608 665 608 610 q 431 875 608 875 l 208 875 l 208 417 z "},"S":{"ha":779,"x_min":51,"x_max":711,"o":"m 51 247 l 156 254 q 223 133 163 185 q 380 82 283 82 q 540 127 476 82 q 603 258 603 172 q 564 367 603 322 q 467 436 525 413 q 340 488 408 460 q 213 542 271 515 q 115 621 154 568 q 76 747 76 674 q 157 915 76 844 q 389 986 238 986 q 592 944 504 986 q 561 850 592 942 q 384 888 475 888 q 238 849 293 888 q 182 743 182 810 q 289 615 182 663 q 392 574 336 594 q 504 529 449 554 q 606 472 560 504 q 682 388 653 440 q 711 268 711 336 q 630 63 711 140 q 388 -15 549 -15 q 141 65 228 -15 q 51 247 54 144 z "},"T":{"ha":558,"x_min":0,"x_max":558,"o":"m 325 0 l 225 0 l 225 878 l 0 878 l 0 972 l 558 972 l 558 878 l 325 878 l 325 0 z "},"U":{"ha":786,"x_min":103,"x_max":688,"o":"m 588 269 l 588 974 l 688 974 l 688 258 q 662 131 688 185 q 592 47 636 76 q 500 4 549 18 q 396 -10 451 -10 q 291 4 340 -10 q 198 47 242 18 q 128 131 154 76 q 103 258 103 185 l 103 974 l 203 974 l 203 269 q 255 133 203 183 q 395 83 307 83 q 535 133 483 83 q 588 269 588 183 z "},"V":{"ha":821,"x_min":108,"x_max":772,"o":"m 506 0 l 376 0 l 108 972 l 218 972 l 440 157 l 661 972 l 772 972 l 506 0 z "},"W":{"ha":1124,"x_min":108,"x_max":1075,"o":"m 861 0 l 726 0 l 593 729 l 461 0 l 325 0 l 108 972 l 217 972 l 390 172 l 539 972 l 647 972 l 796 172 l 964 972 l 1075 972 l 861 0 z "},"X":{"ha":900,"x_min":108,"x_max":842,"o":"m 842 0 l 715 0 l 474 388 l 232 0 l 108 0 l 414 488 l 132 972 l 247 972 l 475 590 l 703 972 l 819 972 l 536 492 l 842 0 z "},"Y":{"ha":772,"x_min":78,"x_max":694,"o":"m 531 -15 l 503 56 q 568 102 543 68 q 593 217 593 136 l 593 378 q 388 319 525 319 q 164 395 250 319 q 78 613 78 471 l 78 972 l 179 972 l 179 607 q 238 466 179 514 q 384 418 296 418 q 526 448 472 418 q 593 532 579 478 l 593 972 l 694 972 l 694 217 q 531 -15 694 6 z "},"Z":{"ha":764,"x_min":43,"x_max":719,"o":"m 719 0 l 43 0 l 43 90 l 585 876 l 61 876 l 61 972 l 711 972 l 711 878 l 169 93 l 719 93 l 719 0 z "},"[":{"ha":443,"x_min":108,"x_max":332,"o":"m 332 -158 l 108 -158 l 108 1135 l 332 1135 l 332 1047 l 208 1033 l 208 -57 l 332 -71 l 332 -158 z "},"\\":{"ha":713,"x_min":100,"x_max":656,"o":"m 656 -158 l 549 -158 l 100 1135 l 206 1135 l 656 -158 z "},"]":{"ha":443,"x_min":108,"x_max":332,"o":"m 332 -158 l 108 -158 l 108 -71 l 232 -57 l 232 1033 l 108 1047 l 108 1135 l 332 1135 l 332 -158 z "},"^":{"ha":560,"x_min":108,"x_max":511,"o":"m 511 1053 l 446 999 l 313 1135 l 172 999 l 108 1053 l 314 1249 l 511 1053 z "},"_":{"ha":486,"x_min":101,"x_max":546,"o":"m 546 -85 l 101 -85 l 101 0 l 546 0 l 546 -85 z "},"`":{"ha":308,"x_min":64,"x_max":236,"o":"m 236 819 l 163 819 l 75 935 q 64 961 64 950 q 96 1013 64 1000 q 115 1015 104 1015 q 167 979 151 1015 l 236 819 z "},"a":{"ha":636,"x_min":51,"x_max":586,"o":"m 51 350 q 263 557 51 557 q 325 553 292 557 q 486 490 424 536 q 290 633 486 633 l 297 707 q 464 681 410 707 q 515 650 493 665 q 550 610 538 635 q 571 566 563 585 q 582 515 579 547 q 586 414 586 467 l 586 0 q 356 -14 442 -14 q 51 235 51 -14 l 51 350 m 486 85 l 486 400 q 282 461 392 449 q 263 461 272 461 q 185 434 218 461 q 151 342 151 407 l 151 233 q 368 75 151 75 q 486 85 421 75 z "},"b":{"ha":669,"x_min":108,"x_max":621,"o":"m 208 669 q 357 707 274 707 q 503 681 440 707 q 621 481 621 626 l 621 218 q 513 25 621 81 q 329 -17 431 -17 q 108 0 228 -17 l 108 972 l 208 972 l 208 669 m 522 217 l 522 465 q 486 569 522 532 q 367 613 446 613 l 297 606 q 208 572 246 594 l 208 86 q 313 76 278 76 q 353 78 349 76 q 472 114 422 78 q 522 217 522 150 z "},"c":{"ha":532,"x_min":50,"x_max":497,"o":"m 344 81 q 474 97 404 81 l 497 8 q 336 -15 408 -15 q 194 7 264 -15 q 50 250 50 54 l 50 428 q 89 593 50 526 q 308 708 156 708 q 494 664 400 708 l 467 585 q 314 615 383 615 q 195 568 240 615 q 150 436 150 521 l 150 235 q 344 81 150 81 z "},"d":{"ha":669,"x_min":108,"x_max":621,"o":"m 226 681 q 374 707 288 707 q 521 668 461 707 l 521 972 l 621 972 l 621 0 q 400 -17 501 -17 q 217 25 299 -17 q 108 218 108 81 l 108 481 q 226 681 108 626 m 521 572 q 363 611 449 611 q 244 569 281 611 q 207 461 207 526 l 207 214 q 253 114 207 150 q 376 76 303 76 q 521 88 450 76 l 521 572 z "},"e":{"ha":603,"x_min":49,"x_max":549,"o":"m 149 192 q 288 74 149 74 q 476 131 374 74 l 514 49 q 290 -17 407 -17 q 49 186 49 -17 l 49 471 q 119 646 49 583 q 304 708 189 708 q 484 647 419 708 q 549 475 549 585 l 549 285 l 149 264 l 149 192 m 447 374 l 447 481 q 401 585 447 554 q 294 617 356 617 q 191 579 233 617 q 149 469 149 542 l 149 358 l 447 374 z "},"f":{"ha":421,"x_min":108,"x_max":372,"o":"m 210 0 l 108 0 l 108 763 q 133 885 108 835 q 197 956 158 936 q 322 989 260 989 q 372 982 347 989 l 357 893 q 324 896 339 896 q 244 869 279 896 q 210 763 210 842 l 210 696 l 357 696 l 324 601 l 210 601 l 210 0 z "},"g":{"ha":622,"x_min":51,"x_max":575,"o":"m 406 -292 l 381 -214 q 475 -81 475 -187 l 475 63 q 308 -17 428 -17 q 119 50 188 -17 q 51 244 51 117 l 51 451 q 123 641 51 574 q 313 708 194 708 q 479 635 432 708 l 483 696 l 575 696 l 575 -89 q 535 -225 575 -176 q 406 -292 496 -274 m 475 264 l 475 458 q 428 574 475 535 q 312 614 382 614 q 197 572 242 614 q 151 444 151 529 l 151 242 q 193 120 151 163 q 310 78 235 78 q 430 126 385 78 q 475 264 475 174 z "},"h":{"ha":685,"x_min":89,"x_max":601,"o":"m 189 668 q 338 708 250 708 q 483 682 426 708 q 601 481 601 628 l 601 0 l 501 0 l 501 461 q 467 569 501 531 q 342 615 426 615 q 189 575 258 615 l 189 0 l 89 0 l 89 972 l 189 972 l 189 668 z "},"i":{"ha":333,"x_min":108,"x_max":222,"o":"m 222 929 q 222 917 222 929 q 206 889 222 906 q 166 872 189 872 q 126 890 143 872 q 108 929 108 907 q 126 969 108 951 q 166 986 143 986 q 206 969 189 986 q 222 929 222 953 m 214 0 l 114 0 l 114 696 l 214 696 l 214 0 z "},"j":{"ha":286,"x_min":-7,"x_max":204,"o":"m 96 -69 l 96 600 l 31 607 l 0 696 l 196 696 l 196 -104 q 141 -237 193 -183 q 13 -290 89 -290 l -7 -212 q 26 -202 6 -212 q 61 -178 47 -192 q 96 -69 96 -140 m 204 929 q 204 917 204 929 q 188 889 204 906 q 148 872 171 872 q 108 889 125 872 q 90 929 90 906 q 108 969 90 953 q 149 986 125 986 q 188 969 172 986 q 204 929 204 953 z "},"k":{"ha":619,"x_min":92,"x_max":621,"o":"m 621 0 l 497 0 l 249 414 l 192 364 l 192 0 l 92 0 l 92 972 l 192 972 l 192 485 l 449 722 l 521 653 l 322 481 q 621 0 424 313 z "},"l":{"ha":319,"x_min":108,"x_max":208,"o":"m 208 0 l 108 0 l 108 972 l 208 972 l 208 0 z "},"m":{"ha":1024,"x_min":108,"x_max":975,"o":"m 535 640 q 758 707 653 707 q 917 643 858 707 q 975 481 975 579 l 975 0 l 875 0 l 875 460 q 797 606 875 579 q 748 614 768 614 q 703 613 728 614 q 631 593 678 611 l 588 572 q 606 485 606 533 l 606 0 l 506 0 l 506 458 q 475 563 506 524 q 358 614 436 614 q 208 572 281 614 l 208 0 l 108 0 l 108 696 l 203 696 l 204 661 q 377 706 283 706 q 535 640 471 706 z "},"n":{"ha":694,"x_min":89,"x_max":601,"o":"m 185 660 q 357 707 249 707 q 483 682 428 707 q 601 481 601 628 l 601 0 l 501 0 l 501 465 q 451 581 501 547 q 333 615 401 615 q 189 574 264 615 l 189 0 l 89 0 l 89 696 l 183 696 l 185 660 z "},"o":{"ha":675,"x_min":108,"x_max":626,"o":"m 626 439 l 626 256 q 563 63 626 139 q 369 -14 499 -14 q 174 63 240 -14 q 108 256 108 140 l 108 439 q 176 641 108 571 q 367 711 243 711 q 558 638 490 711 q 626 439 626 565 m 526 242 l 526 439 q 369 615 526 615 q 208 439 208 615 l 208 242 q 252 123 208 167 q 369 79 296 79 q 485 123 443 79 q 526 242 526 167 z "},"p":{"ha":681,"x_min":108,"x_max":632,"o":"m 208 -261 l 108 -292 l 108 696 l 206 696 l 204 643 q 368 707 265 707 q 565 632 497 707 q 632 438 632 557 l 632 244 q 561 51 632 118 q 378 -17 490 -17 q 208 42 267 -17 l 208 -261 m 532 246 l 532 443 q 487 572 532 531 q 373 613 442 613 q 258 572 304 613 q 208 450 211 532 l 208 240 q 251 120 208 161 q 370 79 294 79 q 489 122 446 79 q 532 246 532 164 z "},"q":{"ha":622,"x_min":51,"x_max":575,"o":"m 575 -292 l 475 -261 l 475 42 q 306 -17 418 -17 q 122 51 193 -17 q 51 244 51 118 l 51 436 q 119 631 51 556 q 315 707 186 707 q 481 640 411 707 l 478 696 l 575 696 l 575 -292 m 475 242 l 475 446 q 424 574 472 536 q 311 613 375 613 q 199 573 247 613 q 151 435 151 533 l 151 236 q 195 119 151 160 q 314 79 239 79 q 432 120 389 79 q 475 242 475 161 z "},"r":{"ha":482,"x_min":85,"x_max":444,"o":"m 185 0 l 85 0 l 85 696 l 182 696 l 182 660 q 340 706 244 706 q 444 694 388 706 l 419 600 q 319 615 371 615 q 226 588 267 615 q 185 515 185 561 l 185 0 z "},"s":{"ha":599,"x_min":50,"x_max":554,"o":"m 50 176 l 147 181 q 199 101 153 129 q 304 72 244 72 q 408 99 364 72 q 451 177 451 126 q 414 258 451 228 q 322 305 376 288 q 213 342 268 322 q 117 403 158 361 q 65 522 65 451 q 122 652 65 592 q 304 713 178 713 q 388 702 349 713 q 443 682 426 692 l 460 672 l 428 585 q 311 619 383 619 q 203 592 239 619 q 168 524 168 565 q 213 451 168 478 q 313 407 257 425 q 423 367 368 389 q 516 297 478 344 q 554 172 554 250 q 492 37 554 94 q 309 -21 429 -21 q 121 36 189 -21 q 50 176 53 93 z "},"t":{"ha":350,"x_min":61,"x_max":318,"o":"m 257 60 l 228 -18 q 100 49 139 -1 q 61 183 61 99 l 61 972 l 163 972 l 163 696 l 318 696 l 285 601 l 163 601 l 163 183 q 257 60 163 85 z "},"u":{"ha":621,"x_min":50,"x_max":568,"o":"m 568 0 l 472 0 l 472 51 q 311 -15 413 -15 q 50 239 50 -15 l 50 696 l 150 696 l 150 239 q 311 79 150 79 q 468 240 468 79 l 468 696 l 568 696 l 568 0 z "},"v":{"ha":601,"x_min":22,"x_max":574,"o":"m 357 0 l 238 0 l 22 696 l 129 696 l 297 138 l 467 696 l 574 696 l 357 0 z "},"w":{"ha":981,"x_min":22,"x_max":953,"o":"m 735 0 l 615 0 l 488 506 l 358 0 l 239 0 l 22 696 l 129 696 l 297 138 l 440 696 l 539 696 l 682 138 l 846 696 l 953 696 l 735 0 z "},"x":{"ha":706,"x_min":101,"x_max":657,"o":"m 653 0 l 535 0 l 378 250 l 222 0 l 101 0 l 318 346 l 101 696 l 221 696 l 379 442 l 539 696 l 657 696 l 438 346 l 653 0 z "},"y":{"ha":678,"x_min":51,"x_max":631,"o":"m 414 -292 l 382 -214 q 475 -85 475 -186 l 475 49 q 305 -17 426 -17 q 117 49 183 -17 q 51 244 51 115 l 51 696 l 150 696 l 150 247 q 306 79 150 79 q 474 247 474 79 l 474 504 q 499 638 474 586 q 599 708 525 690 l 631 633 q 572 535 572 614 l 572 -85 q 535 -221 572 -171 q 414 -292 499 -271 z "},"z":{"ha":667,"x_min":108,"x_max":618,"o":"m 618 0 l 108 0 l 108 92 l 463 603 l 121 603 l 121 696 l 593 696 l 593 606 l 236 93 l 618 93 l 618 0 z "},"{":{"ha":451,"x_min":108,"x_max":403,"o":"m 403 -83 l 372 -161 q 273 -93 306 -129 q 226 6 240 -57 q 211 186 211 69 l 211 343 q 189 403 211 369 q 152 451 167 438 q 108 492 138 465 q 175 561 142 518 q 208 642 208 604 l 208 788 q 241 1029 208 958 q 371 1142 274 1100 l 400 1067 q 308 883 308 1018 l 308 633 q 228 493 308 574 q 311 351 311 410 l 311 100 q 403 -83 311 -39 z "},"|":{"ha":319,"x_min":108,"x_max":208,"o":"m 208 -158 l 108 -158 l 108 1135 l 208 1135 l 208 -158 z "},"}":{"ha":451,"x_min":108,"x_max":403,"o":"m 139 -161 l 108 -83 q 200 100 200 -39 l 200 351 q 283 493 200 410 q 203 633 203 574 l 203 883 q 111 1067 203 1018 l 140 1142 q 270 1029 238 1100 q 303 788 303 958 l 303 642 q 336 561 303 604 q 403 492 369 518 q 359 451 374 465 q 322 403 344 438 q 300 343 300 369 l 300 186 q 285 6 300 69 q 238 -93 271 -57 q 139 -161 206 -129 z "},"~":{"ha":726,"x_min":108,"x_max":678,"o":"m 515 475 q 633 526 590 475 l 678 460 q 519 381 617 381 q 356 419 481 381 q 279 431 317 431 q 151 376 200 431 l 108 443 q 271 522 172 522 q 392 499 308 522 q 515 475 476 475 z "},"¡":{"ha":333,"x_min":110,"x_max":222,"o":"m 110 65 l 126 819 l 204 819 l 222 64 q 166 0 222 0 q 110 65 110 0 m 218 933 q 218 922 218 933 q 202 895 218 911 q 165 879 186 879 q 127 895 143 879 q 111 933 111 911 q 127 971 111 956 q 165 986 143 986 q 202 971 186 986 q 218 933 218 956 z "},"¢":{"ha":604,"x_min":108,"x_max":556,"o":"m 421 -158 l 322 -158 l 322 -10 q 144 89 197 7 q 108 250 108 146 l 108 428 q 167 622 108 551 q 322 706 226 693 l 322 865 l 421 865 l 421 704 q 553 664 483 694 l 525 585 q 421 611 474 604 l 421 79 q 532 97 482 83 l 556 8 q 421 -14 482 -10 l 421 -158 m 322 88 l 322 607 q 208 436 208 575 l 208 235 q 322 88 208 117 z "},"£":{"ha":657,"x_min":108,"x_max":608,"o":"m 608 0 l 108 0 l 108 90 q 224 175 182 115 q 267 313 267 235 q 247 421 267 353 l 140 421 l 140 519 l 215 519 q 174 715 174 647 q 249 910 174 836 q 431 985 325 985 q 593 950 538 985 l 561 861 q 435 892 506 892 q 318 840 364 892 q 272 713 272 788 q 319 519 272 664 l 585 519 l 585 421 l 351 421 q 368 314 368 357 q 269 96 368 179 l 608 96 l 608 0 z "},"¤":{"ha":660,"x_min":111,"x_max":608,"o":"m 544 199 l 496 247 q 360 206 439 206 q 224 249 282 206 l 176 197 l 114 261 l 160 308 q 117 444 117 368 q 158 583 117 519 l 111 632 l 178 696 l 222 649 q 360 693 281 693 q 496 651 440 693 l 542 697 l 608 631 l 561 586 q 604 450 604 521 q 560 307 604 379 l 607 261 l 544 199 m 359 301 q 390 301 359 301 q 465 344 421 301 q 510 449 510 388 q 465 555 510 511 q 359 599 421 599 q 253 555 297 599 q 210 449 210 511 q 253 344 210 388 q 359 301 297 301 z "},"¥":{"ha":813,"x_min":108,"x_max":764,"o":"m 486 0 l 386 0 l 386 331 l 215 331 l 215 428 l 386 428 l 386 461 l 367 497 l 215 497 l 215 594 l 314 594 l 108 972 l 218 972 l 424 594 l 444 594 l 654 972 l 764 972 l 557 594 l 660 594 l 660 497 l 504 497 l 486 464 l 486 428 l 660 428 l 660 331 l 486 331 l 486 0 z "},"§":{"ha":817,"x_min":108,"x_max":768,"o":"m 108 -11 l 211 -11 q 276 -128 215 -76 q 432 -179 336 -179 q 595 -137 528 -179 q 663 -1 663 -96 q 633 88 663 50 q 556 149 603 126 q 451 192 508 172 q 338 235 394 213 q 234 288 281 258 q 159 369 188 318 q 131 490 131 419 q 178 618 132 560 q 133 750 133 674 q 214 918 133 847 q 446 989 294 989 q 649 947 561 989 q 632 898 640 922 q 617 853 624 874 q 442 893 538 893 q 291 853 346 893 q 236 746 236 814 q 275 663 236 697 q 372 608 314 628 q 499 563 431 589 q 626 507 567 536 q 725 422 685 478 q 768 274 768 361 q 736 128 768 188 q 768 8 768 79 q 687 -197 768 -119 q 445 -274 606 -274 q 198 -194 285 -274 q 108 -11 111 -114 m 656 207 q 665 275 665 243 q 617 385 665 339 q 509 453 569 431 q 371 503 449 475 q 256 557 293 532 q 235 472 235 525 q 281 378 235 418 q 389 319 328 338 q 656 207 585 258 z "},"¨":{"ha":308,"x_min":0,"x_max":308,"o":"m 86 1008 q 94 1001 86 1008 q 101 972 101 993 q 86 937 101 951 q 50 922 71 922 q 15 937 29 922 q 0 972 0 951 q 15 1008 0 993 q 50 1024 29 1024 q 86 1008 71 1024 m 293 937 q 285 930 293 937 q 257 922 278 922 q 222 937 236 922 q 207 973 207 951 q 222 1009 207 994 q 257 1024 236 1024 q 293 1009 278 1024 q 308 973 308 994 q 293 937 308 951 z "},"©":{"ha":1111,"x_min":35,"x_max":1075,"o":"m 1075 344 q 1075 234 1075 344 q 924 -26 1075 124 q 556 -176 772 -176 q 188 -26 340 -176 q 35 344 35 124 q 186 714 35 565 q 556 863 338 863 q 925 714 775 863 q 1075 344 1075 565 m 139 344 q 139 252 139 344 q 260 41 139 160 q 556 -78 381 -78 q 852 42 732 -78 q 972 341 972 161 q 851 642 972 521 q 555 764 729 764 q 260 646 381 764 q 139 344 139 528 m 725 243 l 832 243 q 735 83 810 143 q 563 22 660 22 q 345 113 425 22 q 265 340 265 203 q 344 570 265 476 q 560 664 424 664 q 738 604 661 664 q 831 449 814 544 l 725 449 q 667 528 714 496 q 560 560 621 560 q 417 499 464 560 q 369 344 369 438 q 419 188 369 250 q 561 125 468 125 q 672 158 625 125 q 725 243 719 192 z "},"ª":{"ha":531,"x_min":108,"x_max":482,"o":"m 482 543 q 343 528 386 528 q 258 532 300 528 q 183 556 215 536 q 130 617 151 575 q 108 721 108 658 q 192 867 108 833 q 250 878 219 878 q 394 829 314 878 q 261 918 394 918 q 244 918 253 918 l 251 985 q 258 985 256 985 q 436 935 390 985 q 482 771 482 886 l 482 543 m 394 751 q 253 800 307 800 q 207 781 226 800 q 188 712 188 761 q 217 635 188 663 q 296 606 247 606 q 394 615 344 606 l 394 751 z "},"«":{"ha":692,"x_min":58,"x_max":690,"o":"m 382 172 l 318 111 l 58 371 l 58 372 l 318 632 l 385 565 l 189 371 l 382 172 m 688 172 l 624 111 l 364 371 l 364 372 l 624 632 l 690 565 l 494 371 l 688 172 z "},"­":{"ha":569,"x_min":63,"x_max":507,"o":"m 507 476 l 63 476 l 63 574 l 507 574 l 507 476 z "},"®":{"ha":1111,"x_min":35,"x_max":1075,"o":"m 801 54 l 692 54 l 551 318 l 471 318 l 471 54 l 372 54 l 372 661 l 575 661 q 735 615 681 661 q 789 488 789 568 q 650 328 789 358 l 801 54 m 471 404 l 551 404 q 652 421 615 404 q 689 485 689 438 q 655 554 689 533 q 574 575 621 575 l 471 575 l 471 404 m 1075 344 q 1075 234 1075 344 q 924 -26 1075 124 q 556 -176 772 -176 q 188 -26 340 -176 q 35 344 35 124 q 186 714 35 565 q 556 863 338 863 q 925 714 775 863 q 1075 344 1075 565 m 139 344 q 139 252 139 344 q 260 41 139 160 q 556 -78 381 -78 q 852 42 732 -78 q 972 341 972 161 q 851 642 972 521 q 555 764 729 764 q 260 646 381 764 q 139 344 139 528 z "},"¯":{"ha":464,"x_min":108,"x_max":415,"o":"m 415 860 l 108 860 l 108 954 l 415 954 l 415 860 z "},"°":{"ha":557,"x_min":108,"x_max":508,"o":"m 450 643 q 421 614 450 643 q 308 585 392 585 q 167 643 225 585 q 108 785 108 701 q 167 926 108 868 q 308 985 225 985 q 450 926 392 985 q 508 785 508 868 q 450 643 508 701 m 308 672 q 334 672 308 672 q 390 706 360 672 q 421 784 421 739 q 390 863 421 829 q 308 897 358 897 q 227 863 258 897 q 196 784 196 829 q 226 706 196 739 q 308 672 257 672 z "},"±":{"ha":601,"x_min":108,"x_max":553,"o":"m 553 317 l 108 317 l 108 411 l 283 411 l 283 493 l 108 493 l 108 583 l 283 583 l 283 757 l 379 757 l 379 583 l 553 583 l 553 493 l 379 493 l 379 411 l 553 411 l 553 317 z "},"´":{"ha":308,"x_min":64,"x_max":236,"o":"m 138 817 l 64 817 l 132 976 q 186 1013 149 1013 q 204 1010 196 1013 q 236 963 236 997 q 225 932 236 947 l 138 817 z "},"µ":{"ha":664,"x_min":51,"x_max":617,"o":"m 617 38 l 549 -8 q 500 28 522 -8 q 364 -17 458 -17 q 320 -14 347 -17 q 260 -2 293 -11 q 211 14 228 7 q 153 42 161 33 l 153 -292 l 51 -279 l 51 696 l 153 696 l 153 149 q 238 100 181 121 q 319 78 296 79 q 349 78 343 78 q 439 108 400 78 q 478 231 478 139 l 478 692 l 579 708 l 579 96 q 617 38 583 57 z "},"¶":{"ha":951,"x_min":108,"x_max":903,"o":"m 903 -276 l 806 -276 l 806 943 l 711 944 l 711 -275 l 613 -275 l 613 342 l 354 342 q 213 378 261 342 q 169 417 188 397 q 140 471 150 438 q 122 529 129 504 q 113 596 115 554 q 108 728 108 658 q 172 954 108 867 q 367 1042 236 1042 l 903 1042 l 903 -276 z "},"¸":{"ha":353,"x_min":101,"x_max":413,"o":"m 101 -274 l 139 -192 q 236 -226 190 -226 q 333 -169 333 -226 q 306 -126 333 -139 q 275 -121 293 -121 q 226 -133 257 -121 l 175 -157 l 144 -108 l 229 0 l 299 0 l 249 -68 q 307 -58 268 -58 q 379 -87 346 -58 q 413 -178 413 -117 q 358 -270 413 -239 q 241 -301 304 -301 q 101 -274 178 -301 z "},"»":{"ha":714,"x_min":3,"x_max":635,"o":"m 375 111 l 311 172 l 504 371 l 308 565 l 375 632 l 635 372 l 635 371 l 375 111 m 69 111 l 6 172 l 199 371 l 3 565 l 69 632 l 329 372 l 329 371 l 69 111 z "},"¿":{"ha":656,"x_min":110,"x_max":607,"o":"m 507 246 l 607 246 q 542 71 607 142 q 360 0 478 0 q 228 38 288 0 q 110 247 110 113 q 160 401 110 329 q 223 477 186 439 q 278 537 260 515 q 313 608 297 558 q 329 732 328 657 l 329 819 l 425 819 l 425 690 q 406 574 425 626 q 364 493 386 521 q 306 426 342 465 q 254 363 271 386 q 214 247 214 300 q 258 138 214 181 q 362 96 301 96 q 465 135 422 96 q 507 246 507 174 m 416 894 q 408 886 416 894 q 378 878 400 878 q 340 894 356 878 q 325 932 325 910 q 340 969 325 954 q 378 985 356 985 q 416 969 400 985 q 432 932 432 954 q 416 894 432 910 z "},"À":{"ha":732,"x_min":21,"x_max":718,"o":"m 718 0 l 606 0 l 510 314 l 221 314 l 129 0 l 21 0 l 307 972 l 422 972 l 718 0 m 485 417 l 364 811 l 247 417 l 485 417 m 386 1018 l 313 1018 l 225 1133 q 214 1160 214 1149 q 246 1211 214 1199 q 265 1214 254 1214 q 317 1178 301 1214 l 386 1018 z "},"Á":{"ha":732,"x_min":21,"x_max":718,"o":"m 718 0 l 606 0 l 510 314 l 221 314 l 129 0 l 21 0 l 307 972 l 422 972 l 718 0 m 485 417 l 364 811 l 247 417 l 485 417 m 404 1015 l 331 1015 l 399 1175 q 453 1211 415 1211 q 471 1208 463 1211 q 503 1161 503 1196 q 492 1131 503 1146 l 404 1015 z "},"Â":{"ha":732,"x_min":21,"x_max":718,"o":"m 718 0 l 606 0 l 510 314 l 221 314 l 129 0 l 21 0 l 307 972 l 422 972 l 718 0 m 485 417 l 364 811 l 247 417 l 485 417 m 568 1071 l 503 1017 l 369 1153 l 229 1017 l 165 1071 l 371 1267 l 568 1071 z "},"Ã":{"ha":732,"x_min":21,"x_max":718,"o":"m 718 0 l 606 0 l 510 314 l 221 314 l 129 0 l 21 0 l 307 972 l 422 972 l 718 0 m 485 417 l 364 811 l 247 417 l 485 417 m 465 1101 q 563 1150 519 1101 l 604 1085 q 471 1011 542 1011 q 415 1024 446 1011 q 349 1053 383 1038 q 279 1069 314 1069 q 174 1019 221 1069 l 133 1085 q 272 1158 199 1158 q 328 1146 297 1158 q 395 1117 360 1133 q 465 1101 431 1101 z "},"Ä":{"ha":732,"x_min":21,"x_max":718,"o":"m 718 0 l 606 0 l 510 314 l 221 314 l 129 0 l 21 0 l 307 972 l 422 972 l 718 0 m 485 417 l 364 811 l 247 417 l 485 417 m 296 1101 q 303 1094 296 1101 q 311 1065 311 1086 q 296 1030 311 1044 q 260 1015 281 1015 q 224 1030 239 1015 q 210 1065 210 1044 q 224 1101 210 1086 q 260 1117 239 1117 q 296 1101 281 1117 m 503 1030 q 495 1023 503 1030 q 467 1015 488 1015 q 431 1030 446 1015 q 417 1066 417 1044 q 431 1102 417 1088 q 467 1117 446 1117 q 503 1102 488 1117 q 518 1066 518 1088 q 503 1030 518 1044 z "},"Å":{"ha":732,"x_min":21,"x_max":718,"o":"m 718 0 l 606 0 l 510 314 l 221 314 l 129 0 l 21 0 l 294 932 q 234 988 257 951 q 211 1079 211 1025 q 256 1178 211 1133 q 365 1224 301 1224 q 474 1178 429 1224 q 519 1079 519 1133 q 435 932 519 976 l 718 0 m 485 417 l 364 811 l 247 417 l 485 417 m 309 1013 q 320 1002 309 1013 q 365 990 332 990 q 421 1013 399 990 q 443 1069 443 1036 q 421 1125 443 1103 q 365 1147 399 1147 q 309 1125 332 1147 q 286 1069 286 1103 q 309 1013 286 1036 z "},"Æ":{"ha":1131,"x_min":108,"x_max":1082,"o":"m 1079 0 l 617 0 l 618 319 l 386 319 l 219 0 l 108 0 l 617 972 l 1082 972 l 1082 876 l 718 876 l 718 574 l 967 574 l 935 476 l 718 476 l 718 90 l 1079 90 l 1079 0 m 618 417 l 618 767 l 436 417 l 618 417 z "},"Ç":{"ha":603,"x_min":92,"x_max":593,"o":"m 192 257 q 382 83 192 83 q 574 121 464 83 l 593 32 q 369 -14 479 -12 l 331 -68 q 389 -58 350 -58 q 461 -87 428 -58 q 494 -178 494 -117 q 440 -270 494 -239 q 323 -301 386 -301 q 183 -274 260 -301 l 221 -192 q 317 -226 272 -226 q 415 -169 415 -226 q 386 -126 415 -139 q 357 -121 375 -121 q 308 -133 339 -121 l 257 -157 l 226 -108 l 303 -10 q 149 68 206 4 q 92 254 92 132 l 92 700 q 122 860 92 806 q 213 951 151 914 q 361 986 275 986 q 558 940 468 986 l 529 861 q 396 889 454 889 q 298 877 338 889 q 225 823 258 865 q 192 713 192 781 l 192 257 z "},"È":{"ha":646,"x_min":108,"x_max":572,"o":"m 569 0 l 108 0 l 108 972 l 572 972 l 572 876 l 208 876 l 208 574 l 451 574 l 419 476 l 208 476 l 208 90 l 569 90 l 569 0 m 378 1017 l 304 1017 l 217 1132 q 206 1158 206 1147 q 238 1210 206 1197 q 257 1213 246 1213 q 308 1176 293 1213 l 378 1017 z "},"É":{"ha":646,"x_min":108,"x_max":572,"o":"m 569 0 l 108 0 l 108 972 l 572 972 l 572 876 l 208 876 l 208 574 l 451 574 l 419 476 l 208 476 l 208 90 l 569 90 l 569 0 m 403 1014 l 329 1014 l 397 1174 q 451 1210 414 1210 q 469 1207 461 1210 q 501 1160 501 1194 q 490 1129 501 1144 l 403 1014 z "},"Ê":{"ha":646,"x_min":108,"x_max":572,"o":"m 569 0 l 108 0 l 108 972 l 572 972 l 572 876 l 208 876 l 208 574 l 451 574 l 419 476 l 208 476 l 208 90 l 569 90 l 569 0 m 543 1071 l 478 1017 l 344 1153 l 204 1017 l 140 1071 l 346 1267 l 543 1071 z "},"Ë":{"ha":646,"x_min":108,"x_max":572,"o":"m 569 0 l 108 0 l 108 972 l 572 972 l 572 876 l 208 876 l 208 574 l 451 574 l 419 476 l 208 476 l 208 90 l 569 90 l 569 0 m 268 1101 q 276 1094 268 1101 q 283 1065 283 1086 q 268 1030 283 1044 q 232 1015 253 1015 q 197 1030 211 1015 q 182 1065 182 1044 q 197 1101 182 1086 q 232 1117 211 1117 q 268 1101 253 1117 m 475 1030 q 467 1023 475 1030 q 439 1015 460 1015 q 403 1030 418 1015 q 389 1066 389 1044 q 403 1102 389 1088 q 439 1117 418 1117 q 475 1102 460 1117 q 490 1066 490 1088 q 475 1030 490 1044 z "},"Ì":{"ha":419,"x_min":117,"x_max":308,"o":"m 308 0 l 208 0 l 208 878 l 117 881 l 117 972 l 308 972 l 308 0 m 294 1017 l 221 1017 l 133 1132 q 122 1158 122 1147 q 154 1210 122 1197 q 174 1213 163 1213 q 225 1176 210 1213 l 294 1017 z "},"Í":{"ha":500,"x_min":107,"x_max":389,"o":"m 299 0 l 199 0 l 199 878 l 107 881 l 107 972 l 299 972 l 299 0 m 290 1014 l 217 1014 l 285 1174 q 339 1210 301 1210 q 357 1207 349 1210 q 389 1160 389 1194 q 378 1129 389 1144 l 290 1014 z "},"Î":{"ha":622,"x_min":108,"x_max":511,"o":"m 372 0 l 272 0 l 272 878 l 181 881 l 181 972 l 372 972 l 372 0 m 511 1071 l 446 1017 l 313 1153 l 172 1017 l 108 1071 l 314 1267 l 511 1071 z "},"Ï":{"ha":528,"x_min":108,"x_max":417,"o":"m 329 0 l 229 0 l 229 878 l 138 881 l 138 972 l 329 972 l 329 0 m 194 1099 q 202 1091 194 1099 q 210 1063 210 1083 q 194 1027 210 1042 q 158 1013 179 1013 q 123 1027 138 1013 q 108 1063 108 1042 q 123 1099 108 1083 q 158 1114 138 1114 q 194 1099 179 1114 m 401 1027 q 394 1020 401 1027 q 365 1013 386 1013 q 330 1027 344 1013 q 315 1063 315 1042 q 330 1099 315 1085 q 365 1114 344 1114 q 401 1099 386 1114 q 417 1063 417 1085 q 401 1027 417 1042 z "},"Ð":{"ha":889,"x_min":108,"x_max":840,"o":"m 465 0 l 176 0 l 176 635 l 108 635 l 108 732 l 176 732 l 176 974 l 438 974 q 653 908 572 974 q 753 732 733 843 l 840 732 l 840 635 l 760 635 l 760 278 q 465 0 760 0 m 660 264 l 660 635 l 276 635 l 276 90 l 443 90 q 640 172 597 90 q 660 264 660 208 m 451 878 l 276 878 l 276 732 l 653 732 q 579 842 635 806 q 451 878 524 878 z "},"Ñ":{"ha":903,"x_min":108,"x_max":792,"o":"m 792 0 l 690 0 l 208 778 l 208 0 l 108 0 l 108 972 l 208 972 l 690 196 l 690 972 l 792 972 l 792 0 m 551 1100 q 649 1149 606 1100 l 690 1083 q 557 1010 628 1010 q 501 1023 532 1010 q 435 1052 469 1036 q 365 1068 400 1068 q 260 1018 307 1068 l 219 1083 q 358 1157 285 1157 q 415 1144 383 1157 q 481 1116 446 1132 q 551 1100 517 1100 z "},"Ò":{"ha":763,"x_min":88,"x_max":671,"o":"m 671 703 l 671 257 q 585 51 671 117 q 381 -15 500 -15 q 174 51 261 -15 q 88 257 88 117 l 88 704 q 166 921 88 847 q 382 994 244 994 q 595 917 519 994 q 671 703 671 839 m 571 268 l 571 697 q 522 843 571 793 q 379 893 472 893 q 188 697 188 893 l 188 265 q 240 130 188 176 q 379 83 293 83 q 518 130 465 83 q 571 268 571 176 m 408 1017 l 335 1017 l 247 1132 q 236 1158 236 1147 q 268 1210 236 1197 q 288 1213 276 1213 q 339 1176 324 1213 l 408 1017 z "},"Ó":{"ha":763,"x_min":88,"x_max":671,"o":"m 671 703 l 671 257 q 585 51 671 117 q 381 -15 500 -15 q 174 51 261 -15 q 88 257 88 117 l 88 704 q 166 921 88 847 q 382 994 244 994 q 595 917 519 994 q 671 703 671 839 m 571 268 l 571 697 q 522 843 571 793 q 379 893 472 893 q 188 697 188 893 l 188 265 q 240 130 188 176 q 379 83 293 83 q 518 130 465 83 q 571 268 571 176 m 431 1014 l 357 1014 l 425 1174 q 479 1210 442 1210 q 497 1207 489 1210 q 529 1160 529 1194 q 518 1129 529 1144 l 431 1014 z "},"Ô":{"ha":763,"x_min":88,"x_max":671,"o":"m 671 703 l 671 257 q 585 51 671 117 q 381 -15 500 -15 q 174 51 261 -15 q 88 257 88 117 l 88 704 q 166 921 88 847 q 382 994 244 994 q 595 917 519 994 q 671 703 671 839 m 571 268 l 571 697 q 522 843 571 793 q 379 893 472 893 q 188 697 188 893 l 188 265 q 240 130 188 176 q 379 83 293 83 q 518 130 465 83 q 571 268 571 176 m 585 1071 l 519 1017 l 386 1153 l 246 1017 l 182 1071 l 388 1267 l 585 1071 z "},"Õ":{"ha":763,"x_min":88,"x_max":671,"o":"m 671 703 l 671 257 q 585 51 671 117 q 381 -15 500 -15 q 174 51 261 -15 q 88 257 88 117 l 88 704 q 166 921 88 847 q 382 994 244 994 q 595 917 519 994 q 671 703 671 839 m 571 268 l 571 697 q 522 843 571 793 q 379 893 472 893 q 188 697 188 893 l 188 265 q 240 130 188 176 q 379 83 293 83 q 518 130 465 83 q 571 268 571 176 m 486 1101 q 583 1150 540 1101 l 625 1085 q 492 1011 563 1011 q 435 1024 467 1011 q 369 1053 404 1038 q 300 1069 335 1069 q 194 1019 242 1069 l 154 1085 q 293 1158 219 1158 q 349 1146 318 1158 q 416 1117 381 1133 q 486 1101 451 1101 z "},"Ö":{"ha":763,"x_min":88,"x_max":671,"o":"m 671 703 l 671 257 q 585 51 671 117 q 381 -15 500 -15 q 174 51 261 -15 q 88 257 88 117 l 88 704 q 166 921 88 847 q 382 994 244 994 q 595 917 519 994 q 671 703 671 839 m 571 268 l 571 697 q 522 843 571 793 q 379 893 472 893 q 188 697 188 893 l 188 265 q 240 130 188 176 q 379 83 293 83 q 518 130 465 83 q 571 268 571 176 m 308 1101 q 316 1094 308 1101 q 324 1065 324 1086 q 308 1030 324 1044 q 272 1015 293 1015 q 237 1030 251 1015 q 222 1065 222 1044 q 237 1101 222 1086 q 272 1117 251 1117 q 308 1101 293 1117 m 515 1030 q 508 1023 515 1030 q 479 1015 500 1015 q 444 1030 458 1015 q 429 1066 429 1044 q 444 1102 429 1088 q 479 1117 458 1117 q 515 1102 500 1117 q 531 1066 531 1088 q 515 1030 531 1044 z "},"×":{"ha":564,"x_min":108,"x_max":515,"o":"m 515 290 l 446 229 l 311 390 l 179 228 l 110 290 l 251 463 l 108 636 l 178 694 l 311 533 l 446 696 l 515 638 l 371 463 l 515 290 z "},"Ø":{"ha":750,"x_min":111,"x_max":694,"o":"m 238 -158 l 131 -158 l 201 47 q 111 257 111 119 l 111 704 q 190 921 111 847 q 406 994 268 994 q 525 975 471 994 l 581 1135 l 686 1135 l 613 922 q 694 703 694 844 l 694 257 q 609 51 694 117 q 404 -15 524 -15 q 292 0 349 -15 l 238 -158 m 240 157 l 490 878 q 403 893 451 893 q 211 697 211 893 l 211 265 q 240 157 211 199 m 594 268 l 594 697 q 572 806 594 758 l 325 94 q 403 83 363 83 q 542 130 489 83 q 594 268 594 176 z "},"Ù":{"ha":786,"x_min":103,"x_max":688,"o":"m 588 269 l 588 974 l 688 974 l 688 258 q 662 131 688 185 q 592 47 636 76 q 500 4 549 18 q 396 -10 451 -10 q 291 4 340 -10 q 198 47 242 18 q 128 131 154 76 q 103 258 103 185 l 103 974 l 203 974 l 203 269 q 255 133 203 183 q 395 83 307 83 q 535 133 483 83 q 588 269 588 183 m 432 1017 l 358 1017 l 271 1132 q 260 1158 260 1147 q 292 1210 260 1197 q 311 1213 300 1213 q 363 1176 347 1213 l 432 1017 z "},"Ú":{"ha":786,"x_min":103,"x_max":688,"o":"m 588 269 l 588 974 l 688 974 l 688 258 q 662 131 688 185 q 592 47 636 76 q 500 4 549 18 q 396 -10 451 -10 q 291 4 340 -10 q 198 47 242 18 q 128 131 154 76 q 103 258 103 185 l 103 974 l 203 974 l 203 269 q 255 133 203 183 q 395 83 307 83 q 535 133 483 83 q 588 269 588 183 m 432 1015 l 358 1015 l 426 1175 q 481 1211 443 1211 q 499 1208 490 1211 q 531 1161 531 1196 q 519 1131 531 1146 l 432 1015 z "},"Û":{"ha":786,"x_min":103,"x_max":688,"o":"m 588 269 l 588 974 l 688 974 l 688 258 q 662 131 688 185 q 592 47 636 76 q 500 4 549 18 q 396 -10 451 -10 q 291 4 340 -10 q 198 47 242 18 q 128 131 154 76 q 103 258 103 185 l 103 974 l 203 974 l 203 269 q 255 133 203 183 q 395 83 307 83 q 535 133 483 83 q 588 269 588 183 m 597 1071 l 532 1017 l 399 1153 l 258 1017 l 194 1071 l 400 1267 l 597 1071 z "},"Ü":{"ha":786,"x_min":103,"x_max":688,"o":"m 588 269 l 588 974 l 688 974 l 688 258 q 662 131 688 185 q 592 47 636 76 q 500 4 549 18 q 396 -10 451 -10 q 291 4 340 -10 q 198 47 242 18 q 128 131 154 76 q 103 258 103 185 l 103 974 l 203 974 l 203 269 q 255 133 203 183 q 395 83 307 83 q 535 133 483 83 q 588 269 588 183 m 325 1101 q 333 1094 325 1101 q 340 1065 340 1086 q 325 1030 340 1044 q 289 1015 310 1015 q 253 1030 268 1015 q 239 1065 239 1044 q 253 1101 239 1086 q 289 1117 268 1117 q 325 1101 310 1117 m 532 1030 q 524 1023 532 1030 q 496 1015 517 1015 q 460 1030 475 1015 q 446 1066 446 1044 q 460 1102 446 1088 q 496 1117 475 1117 q 532 1102 517 1117 q 547 1066 547 1088 q 532 1030 547 1044 z "},"Ý":{"ha":772,"x_min":78,"x_max":694,"o":"m 531 -15 l 503 56 q 568 102 543 68 q 593 217 593 136 l 593 378 q 388 319 525 319 q 164 395 250 319 q 78 613 78 471 l 78 972 l 179 972 l 179 607 q 238 466 179 514 q 384 418 296 418 q 526 448 472 418 q 593 532 579 478 l 593 972 l 694 972 l 694 217 q 531 -15 694 6 m 426 1015 l 353 1015 l 421 1175 q 475 1211 438 1211 q 493 1208 485 1211 q 525 1161 525 1196 q 514 1131 525 1146 l 426 1015 z "},"Þ":{"ha":681,"x_min":108,"x_max":632,"o":"m 208 0 l 108 0 l 108 972 l 208 972 l 208 647 q 368 707 272 707 q 565 632 497 707 q 632 432 632 557 q 560 234 632 307 q 374 161 489 161 q 282 181 329 161 q 208 238 235 200 l 208 0 m 209 440 q 209 395 209 440 q 254 303 208 350 q 370 257 300 257 q 486 301 440 257 q 532 435 532 346 q 486 569 532 525 q 374 614 440 614 q 259 572 308 614 q 209 440 210 531 z "},"ß":{"ha":732,"x_min":108,"x_max":683,"o":"m 392 447 q 380 458 392 447 q 342 501 368 469 q 306 560 315 533 q 296 624 296 586 q 321 704 296 661 q 392 747 374 704 q 401 788 401 767 q 389 833 401 810 q 315 878 365 878 q 210 736 210 878 l 210 0 l 108 0 l 108 746 q 160 913 108 851 q 306 974 211 974 q 451 915 401 974 q 500 783 500 857 q 449 663 500 708 l 411 663 q 464 514 374 597 q 506 478 485 494 q 596 392 563 428 q 683 201 683 299 q 660 100 683 151 q 550 1 628 29 q 460 -17 500 -17 q 254 51 335 -17 l 301 140 q 447 82 363 82 q 560 139 532 82 q 578 204 578 171 q 511 338 578 269 q 453 392 490 360 q 392 447 417 425 z "},"à":{"ha":692,"x_min":108,"x_max":643,"o":"m 108 350 q 319 557 108 557 q 381 553 349 557 q 543 490 481 536 q 347 633 543 633 l 354 707 q 521 681 467 707 q 572 650 550 665 q 607 610 594 635 q 628 566 619 585 q 639 515 636 547 q 643 414 643 467 l 643 0 q 413 -14 499 -14 q 108 235 108 -14 l 108 350 m 543 85 l 543 400 q 339 461 449 449 q 319 461 329 461 q 242 434 275 461 q 208 342 208 407 l 208 233 q 425 75 208 75 q 543 85 478 75 m 408 750 l 335 750 l 247 865 q 236 892 236 881 q 268 943 236 931 q 288 946 276 946 q 339 910 324 946 l 408 750 z "},"á":{"ha":692,"x_min":108,"x_max":643,"o":"m 108 350 q 319 557 108 557 q 381 553 349 557 q 543 490 481 536 q 347 633 543 633 l 354 707 q 521 681 467 707 q 572 650 550 665 q 607 610 594 635 q 628 566 619 585 q 639 515 636 547 q 643 414 643 467 l 643 0 q 413 -14 499 -14 q 108 235 108 -14 l 108 350 m 543 85 l 543 400 q 339 461 449 449 q 319 461 329 461 q 242 434 275 461 q 208 342 208 407 l 208 233 q 425 75 208 75 q 543 85 478 75 m 432 747 l 358 747 l 426 907 q 481 943 443 943 q 499 940 490 943 q 531 893 531 928 q 519 863 531 878 l 432 747 z "},"â":{"ha":692,"x_min":108,"x_max":643,"o":"m 108 350 q 319 557 108 557 q 381 553 349 557 q 543 490 481 536 q 347 633 543 633 l 354 707 q 521 681 467 707 q 572 650 550 665 q 607 610 594 635 q 628 566 619 585 q 639 515 636 547 q 643 414 643 467 l 643 0 q 413 -14 499 -14 q 108 235 108 -14 l 108 350 m 543 85 l 543 400 q 339 461 449 449 q 319 461 329 461 q 242 434 275 461 q 208 342 208 407 l 208 233 q 425 75 208 75 q 543 85 478 75 m 590 803 l 525 749 l 392 885 l 251 749 l 188 803 l 393 999 l 590 803 z "},"ã":{"ha":692,"x_min":108,"x_max":643,"o":"m 108 350 q 319 557 108 557 q 381 553 349 557 q 543 490 481 536 q 347 633 543 633 l 354 707 q 521 681 467 707 q 572 650 550 665 q 607 610 594 635 q 628 566 619 585 q 639 515 636 547 q 643 414 643 467 l 643 0 q 413 -14 499 -14 q 108 235 108 -14 l 108 350 m 543 85 l 543 400 q 339 461 449 449 q 319 461 329 461 q 242 434 275 461 q 208 342 208 407 l 208 233 q 425 75 208 75 q 543 85 478 75 m 475 839 q 572 888 529 839 l 614 822 q 481 749 551 749 q 424 762 456 749 q 358 791 393 775 q 289 807 324 807 q 183 757 231 807 l 143 822 q 282 896 208 896 q 338 883 307 896 q 405 855 369 871 q 475 839 440 839 z "},"ä":{"ha":692,"x_min":108,"x_max":643,"o":"m 108 350 q 319 557 108 557 q 381 553 349 557 q 543 490 481 536 q 347 633 543 633 l 354 707 q 521 681 467 707 q 572 650 550 665 q 607 610 594 635 q 628 566 619 585 q 639 515 636 547 q 643 414 643 467 l 643 0 q 413 -14 499 -14 q 108 235 108 -14 l 108 350 m 543 85 l 543 400 q 339 461 449 449 q 319 461 329 461 q 242 434 275 461 q 208 342 208 407 l 208 233 q 425 75 208 75 q 543 85 478 75 m 322 835 q 330 827 322 835 q 338 799 338 819 q 322 763 338 778 q 286 749 307 749 q 251 763 265 749 q 236 799 236 778 q 251 835 236 819 q 286 850 265 850 q 322 835 307 850 m 529 763 q 522 756 529 763 q 493 749 514 749 q 458 763 472 749 q 443 799 443 778 q 458 835 443 821 q 493 850 472 850 q 529 835 514 850 q 544 799 544 821 q 529 763 544 778 z "},"å":{"ha":692,"x_min":108,"x_max":643,"o":"m 108 350 q 319 557 108 557 q 381 553 349 557 q 543 490 481 536 q 347 633 543 633 q 249 684 289 640 q 208 790 208 728 q 253 897 208 851 q 363 942 299 942 q 472 897 426 942 q 517 792 517 851 q 483 692 517 733 q 596 625 564 672 q 623 579 613 600 q 638 525 633 558 q 643 414 643 479 l 643 0 q 413 -14 499 -14 q 108 235 108 -14 l 108 350 m 543 85 l 543 400 q 339 461 449 449 q 319 461 329 461 q 242 434 275 461 q 208 342 208 407 l 208 233 q 425 75 208 75 q 543 85 478 75 m 306 731 q 318 720 306 731 q 363 708 329 708 q 418 731 396 708 q 440 788 440 754 q 418 843 440 821 q 363 865 396 865 q 306 843 329 865 q 283 788 283 821 q 306 731 283 754 z "},"æ":{"ha":1092,"x_min":108,"x_max":1043,"o":"m 643 182 q 782 74 650 74 q 971 131 868 74 l 1008 49 q 771 -17 901 -17 q 643 7 699 -17 l 643 0 q 413 -14 499 -14 q 108 235 108 -14 l 108 350 q 319 557 108 557 q 381 553 349 557 q 543 490 481 536 q 347 633 543 633 l 354 707 q 594 626 531 707 q 790 708 665 708 q 978 647 914 708 q 1043 475 1043 585 l 1043 285 l 643 264 l 643 182 m 543 85 l 543 400 q 339 461 449 449 q 319 461 329 461 q 242 434 275 461 q 208 342 208 407 l 208 233 q 425 75 208 75 q 543 85 478 75 m 942 374 l 942 481 q 896 585 942 554 q 789 617 850 617 q 685 579 728 617 q 643 469 643 542 l 643 358 l 942 374 z "},"ç":{"ha":532,"x_min":50,"x_max":497,"o":"m 344 81 q 474 97 404 81 l 497 8 q 329 -14 410 -14 q 304 -14 317 -14 l 264 -68 q 322 -58 283 -58 q 394 -87 361 -58 q 428 -178 428 -117 q 374 -270 428 -239 q 256 -301 319 -301 q 117 -274 193 -301 l 154 -192 q 250 -226 206 -226 q 349 -169 349 -226 q 319 -126 349 -139 q 290 -121 308 -121 q 242 -133 272 -121 l 190 -157 l 160 -108 l 239 -6 l 206 3 q 87 88 124 31 q 50 250 50 146 l 50 428 q 89 593 50 526 q 308 708 156 708 q 494 664 400 708 l 467 585 q 314 615 383 615 q 195 568 240 615 q 150 436 150 521 l 150 235 q 344 81 150 81 z "},"è":{"ha":657,"x_min":108,"x_max":608,"o":"m 208 192 q 347 74 208 74 q 536 131 433 74 l 574 49 q 350 -17 467 -17 q 108 186 108 -17 l 108 471 q 178 646 108 583 q 364 708 249 708 q 544 647 479 708 q 608 475 608 585 l 608 285 l 208 264 l 208 192 m 507 374 l 507 481 q 461 585 507 554 q 354 617 415 617 q 251 579 293 617 q 208 469 208 542 l 208 358 l 507 374 m 397 750 l 324 750 l 236 865 q 225 892 225 881 q 257 943 225 931 q 276 946 265 946 q 328 910 313 946 l 397 750 z "},"é":{"ha":657,"x_min":108,"x_max":608,"o":"m 208 192 q 347 74 208 74 q 536 131 433 74 l 574 49 q 350 -17 467 -17 q 108 186 108 -17 l 108 471 q 178 646 108 583 q 364 708 249 708 q 544 647 479 708 q 608 475 608 585 l 608 285 l 208 264 l 208 192 m 507 374 l 507 481 q 461 585 507 554 q 354 617 415 617 q 251 579 293 617 q 208 469 208 542 l 208 358 l 507 374 m 407 747 l 333 747 l 401 907 q 456 943 418 943 q 474 940 465 943 q 506 893 506 928 q 494 863 506 878 l 407 747 z "},"ê":{"ha":657,"x_min":108,"x_max":608,"o":"m 208 192 q 347 74 208 74 q 536 131 433 74 l 574 49 q 350 -17 467 -17 q 108 186 108 -17 l 108 471 q 178 646 108 583 q 364 708 249 708 q 544 647 479 708 q 608 475 608 585 l 608 285 l 208 264 l 208 192 m 507 374 l 507 481 q 461 585 507 554 q 354 617 415 617 q 251 579 293 617 q 208 469 208 542 l 208 358 l 507 374 m 582 803 l 517 749 l 383 885 l 243 749 l 179 803 l 385 999 l 582 803 z "},"ë":{"ha":746,"x_min":49,"x_max":549,"o":"m 149 192 q 288 74 149 74 q 476 131 374 74 l 514 49 q 290 -17 407 -17 q 49 186 49 -17 l 49 471 q 119 646 49 583 q 304 708 189 708 q 484 647 419 708 q 549 475 549 585 l 549 285 l 149 264 l 149 192 m 447 374 l 447 481 q 401 585 447 554 q 294 617 356 617 q 191 579 233 617 q 149 469 149 542 l 149 358 l 447 374 m 232 835 q 240 827 232 835 q 247 799 247 819 q 232 763 247 778 q 196 749 217 749 q 160 763 175 749 q 146 799 146 778 q 160 835 146 819 q 196 850 175 850 q 232 835 217 850 m 439 763 q 431 756 439 763 q 403 749 424 749 q 367 763 382 749 q 353 799 353 778 q 367 835 353 821 q 403 850 382 850 q 439 835 424 850 q 454 799 454 821 q 439 763 454 778 z "},"ì":{"ha":353,"x_min":108,"x_max":304,"o":"m 281 750 l 207 750 l 119 865 q 108 892 108 881 q 140 943 108 931 q 160 946 149 946 q 211 910 196 946 l 281 750 m 304 0 l 204 0 l 204 696 l 304 696 l 304 0 z "},"í":{"ha":346,"x_min":108,"x_max":297,"o":"m 199 747 l 125 747 l 193 907 q 247 943 210 943 q 265 940 257 943 q 297 893 297 928 q 286 863 297 878 l 199 747 m 208 0 l 108 0 l 108 696 l 208 696 l 208 0 z "},"î":{"ha":313,"x_min":-50,"x_max":353,"o":"m 353 803 l 288 749 l 154 885 l 14 749 l -50 803 l 156 999 l 353 803 m 204 0 l 104 0 l 104 696 l 204 696 l 204 0 z "},"ï":{"ha":465,"x_min":108,"x_max":417,"o":"m 194 835 q 202 827 194 835 q 210 799 210 819 q 194 763 210 778 q 158 749 179 749 q 123 763 138 749 q 108 799 108 778 q 123 835 108 819 q 158 850 138 850 q 194 835 179 850 m 401 763 q 394 756 401 763 q 365 749 386 749 q 330 763 344 749 q 315 799 315 778 q 330 835 315 821 q 365 850 344 850 q 401 835 386 850 q 417 799 417 821 q 401 763 417 778 m 313 0 l 213 0 l 213 696 l 313 696 l 313 0 z "},"ñ":{"ha":669,"x_min":108,"x_max":621,"o":"m 204 660 q 376 707 268 707 q 503 682 447 707 q 621 481 621 628 l 621 0 l 521 0 l 521 465 q 471 581 521 547 q 352 615 421 615 q 208 574 283 615 l 208 0 l 108 0 l 108 696 l 203 696 l 204 660 m 460 840 q 557 889 514 840 l 599 824 q 465 750 536 750 q 409 763 440 750 q 343 792 378 776 q 274 808 308 808 q 168 758 215 808 l 128 824 q 267 897 193 897 q 323 885 292 897 q 390 856 354 872 q 460 840 425 840 z "},"ò":{"ha":675,"x_min":108,"x_max":626,"o":"m 626 439 l 626 256 q 563 63 626 139 q 369 -14 499 -14 q 174 63 240 -14 q 108 256 108 140 l 108 439 q 176 641 108 571 q 367 711 243 711 q 558 638 490 711 q 626 439 626 565 m 526 242 l 526 439 q 369 615 526 615 q 208 439 208 615 l 208 242 q 252 123 208 167 q 369 79 296 79 q 485 123 443 79 q 526 242 526 167 m 396 750 l 322 750 l 235 865 q 224 892 224 881 q 256 943 224 931 q 275 946 264 946 q 326 910 311 946 l 396 750 z "},"ó":{"ha":675,"x_min":108,"x_max":626,"o":"m 626 439 l 626 256 q 563 63 626 139 q 369 -14 499 -14 q 174 63 240 -14 q 108 256 108 140 l 108 439 q 176 641 108 571 q 367 711 243 711 q 558 638 490 711 q 626 439 626 565 m 526 242 l 526 439 q 369 615 526 615 q 208 439 208 615 l 208 242 q 252 123 208 167 q 369 79 296 79 q 485 123 443 79 q 526 242 526 167 m 406 747 l 332 747 l 400 907 q 454 943 417 943 q 472 940 464 943 q 504 893 504 928 q 493 863 504 878 l 406 747 z "},"ô":{"ha":675,"x_min":108,"x_max":626,"o":"m 626 439 l 626 256 q 563 63 626 139 q 369 -14 499 -14 q 174 63 240 -14 q 108 256 108 140 l 108 439 q 176 641 108 571 q 367 711 243 711 q 558 638 490 711 q 626 439 626 565 m 526 242 l 526 439 q 369 615 526 615 q 208 439 208 615 l 208 242 q 252 123 208 167 q 369 79 296 79 q 485 123 443 79 q 526 242 526 167 m 575 803 l 510 749 l 376 885 l 236 749 l 172 803 l 378 999 l 575 803 z "},"õ":{"ha":675,"x_min":108,"x_max":626,"o":"m 626 439 l 626 256 q 563 63 626 139 q 369 -14 499 -14 q 174 63 240 -14 q 108 256 108 140 l 108 439 q 176 641 108 571 q 367 711 243 711 q 558 638 490 711 q 626 439 626 565 m 526 242 l 526 439 q 369 615 526 615 q 208 439 208 615 l 208 242 q 252 123 208 167 q 369 79 296 79 q 485 123 443 79 q 526 242 526 167 m 472 829 q 569 878 526 829 l 611 813 q 478 739 549 739 q 422 752 453 739 q 356 781 390 765 q 286 797 321 797 q 181 747 228 797 l 140 813 q 279 886 206 886 q 335 874 304 886 q 402 845 367 861 q 472 829 438 829 z "},"ö":{"ha":675,"x_min":108,"x_max":626,"o":"m 626 439 l 626 256 q 563 63 626 139 q 369 -14 499 -14 q 174 63 240 -14 q 108 256 108 140 l 108 439 q 176 641 108 571 q 367 711 243 711 q 558 638 490 711 q 626 439 626 565 m 526 242 l 526 439 q 369 615 526 615 q 208 439 208 615 l 208 242 q 252 123 208 167 q 369 79 296 79 q 485 123 443 79 q 526 242 526 167 m 307 835 q 315 827 307 835 q 322 799 322 819 q 307 763 322 778 q 271 749 292 749 q 235 763 250 749 q 221 799 221 778 q 235 835 221 819 q 271 850 250 850 q 307 835 292 850 m 514 763 q 506 756 514 763 q 478 749 499 749 q 442 763 457 749 q 428 799 428 778 q 442 835 428 821 q 478 850 457 850 q 514 835 499 850 q 529 799 529 821 q 514 763 529 778 z "},"÷":{"ha":601,"x_min":108,"x_max":553,"o":"m 553 489 l 108 489 l 108 579 l 553 579 l 553 489 m 372 667 q 364 659 372 667 q 333 651 356 651 q 295 668 311 651 q 279 707 279 685 q 295 745 279 729 q 333 761 311 761 q 372 745 356 761 q 389 706 389 729 q 372 667 389 683 m 372 395 q 381 387 372 395 q 389 357 389 379 q 372 319 389 335 q 333 303 356 303 q 295 319 311 303 q 279 357 279 335 q 295 395 279 379 q 333 411 311 411 q 372 395 356 411 z "},"ø":{"ha":681,"x_min":108,"x_max":626,"o":"m 226 -93 l 128 -93 l 189 49 q 108 256 108 124 l 108 439 q 176 641 108 571 q 369 711 243 711 q 467 696 421 711 l 518 817 l 619 817 l 546 649 q 626 439 626 575 l 626 256 q 563 63 626 139 q 369 -14 499 -14 q 267 1 313 -14 l 226 -93 m 526 242 l 526 439 q 503 547 526 503 l 304 89 q 369 79 332 79 q 485 123 443 79 q 526 242 526 167 m 232 149 l 428 607 q 369 615 400 615 q 208 439 208 615 l 208 242 q 232 149 208 188 z "},"ù":{"ha":675,"x_min":108,"x_max":626,"o":"m 626 0 l 531 0 l 531 51 q 369 -15 471 -15 q 108 239 108 -15 l 108 696 l 208 696 l 208 239 q 369 79 208 79 q 526 240 526 79 l 526 696 l 626 696 l 626 0 m 406 750 l 332 750 l 244 865 q 233 892 233 881 q 265 943 233 931 q 285 946 274 946 q 336 910 321 946 l 406 750 z "},"ú":{"ha":675,"x_min":108,"x_max":626,"o":"m 626 0 l 531 0 l 531 51 q 369 -15 471 -15 q 108 239 108 -15 l 108 696 l 208 696 l 208 239 q 369 79 208 79 q 526 240 526 79 l 526 696 l 626 696 l 626 0 m 406 747 l 332 747 l 400 907 q 454 943 417 943 q 472 940 464 943 q 504 893 504 928 q 493 863 504 878 l 406 747 z "},"û":{"ha":675,"x_min":108,"x_max":626,"o":"m 626 0 l 531 0 l 531 51 q 369 -15 471 -15 q 108 239 108 -15 l 108 696 l 208 696 l 208 239 q 369 79 208 79 q 526 240 526 79 l 526 696 l 626 696 l 626 0 m 571 803 l 506 749 l 372 885 l 232 749 l 168 803 l 374 999 l 571 803 z "},"ü":{"ha":675,"x_min":108,"x_max":626,"o":"m 626 0 l 531 0 l 531 51 q 369 -15 471 -15 q 108 239 108 -15 l 108 696 l 208 696 l 208 239 q 369 79 208 79 q 526 240 526 79 l 526 696 l 626 696 l 626 0 m 300 835 q 308 827 300 835 q 315 799 315 819 q 300 763 315 778 q 264 749 285 749 q 228 763 243 749 q 214 799 214 778 q 228 835 214 819 q 264 850 243 850 q 300 835 285 850 m 507 763 q 499 756 507 763 q 471 749 492 749 q 435 763 450 749 q 421 799 421 778 q 435 835 421 821 q 471 850 450 850 q 507 835 492 850 q 522 799 522 821 q 507 763 522 778 z "},"ý":{"ha":736,"x_min":108,"x_max":688,"o":"m 471 -292 l 439 -214 q 532 -85 532 -186 l 532 49 q 362 -17 483 -17 q 174 49 240 -17 q 108 244 108 115 l 108 696 l 207 696 l 207 247 q 363 79 207 79 q 531 247 531 79 l 531 504 q 556 638 531 586 q 656 708 582 690 l 688 633 q 629 535 629 614 l 629 -85 q 592 -221 629 -171 q 471 -292 556 -271 m 401 747 l 328 747 l 396 907 q 450 943 413 943 q 468 940 460 943 q 500 893 500 928 q 489 863 500 878 l 401 747 z "},"þ":{"ha":681,"x_min":108,"x_max":632,"o":"m 208 0 l 108 0 l 108 817 l 208 817 l 208 647 q 368 707 272 707 q 565 632 497 707 q 632 432 632 557 q 560 234 632 307 q 374 161 489 161 q 282 181 329 161 q 208 238 235 200 l 208 0 m 374 614 q 341 614 374 614 q 259 572 308 614 q 209 440 210 531 q 254 303 208 350 q 370 257 300 257 q 486 301 440 257 q 532 435 532 346 q 486 569 532 525 q 374 614 440 614 z "},"ÿ":{"ha":736,"x_min":108,"x_max":688,"o":"m 471 -292 l 439 -214 q 532 -85 532 -186 l 532 49 q 362 -17 483 -17 q 174 49 240 -17 q 108 244 108 115 l 108 696 l 207 696 l 207 247 q 363 79 207 79 q 531 247 531 79 l 531 504 q 556 638 531 586 q 656 708 582 690 l 688 633 q 629 535 629 614 l 629 -85 q 592 -221 629 -171 q 471 -292 556 -271 m 515 763 q 508 756 515 763 q 479 749 500 749 q 444 763 458 749 q 429 799 429 778 q 444 835 429 821 q 479 850 458 850 q 515 835 500 850 q 531 799 531 821 q 515 763 531 778 m 308 835 q 316 827 308 835 q 324 799 324 819 q 308 763 324 778 q 272 749 293 749 q 237 763 251 749 q 222 799 222 778 q 237 835 222 819 q 272 850 251 850 q 308 835 293 850 z "},"Ā":{"ha":732,"x_min":21,"x_max":718,"o":"m 718 0 l 606 0 l 510 314 l 221 314 l 129 0 l 21 0 l 307 972 l 422 972 l 718 0 m 485 417 l 364 811 l 247 417 l 485 417 m 511 1014 l 210 1014 l 210 1108 l 511 1108 l 511 1014 z "},"ā":{"ha":692,"x_min":108,"x_max":643,"o":"m 108 350 q 319 557 108 557 q 381 553 349 557 q 543 490 481 536 q 347 633 543 633 l 354 707 q 521 681 467 707 q 572 650 550 665 q 607 610 594 635 q 628 566 619 585 q 639 515 636 547 q 643 414 643 467 l 643 0 q 413 -14 499 -14 q 108 235 108 -14 l 108 350 m 543 85 l 543 400 q 339 461 449 449 q 319 461 329 461 q 242 434 275 461 q 208 342 208 407 l 208 233 q 425 75 208 75 q 543 85 478 75 m 536 747 l 235 747 l 235 842 l 536 842 l 536 747 z "},"Ă":{"ha":732,"x_min":21,"x_max":718,"o":"m 718 0 l 606 0 l 510 314 l 221 314 l 129 0 l 21 0 l 307 972 l 422 972 l 718 0 m 485 417 l 364 811 l 247 417 l 485 417 m 525 1178 l 525 1171 q 479 1060 525 1106 q 368 1014 433 1014 q 257 1060 303 1014 q 211 1171 211 1106 l 211 1178 l 289 1178 l 289 1171 q 312 1113 289 1136 q 368 1090 335 1090 q 424 1113 401 1090 q 447 1171 447 1136 l 447 1178 l 525 1178 z "},"ă":{"ha":692,"x_min":108,"x_max":643,"o":"m 108 350 q 319 557 108 557 q 381 553 349 557 q 543 490 481 536 q 347 633 543 633 l 354 707 q 521 681 467 707 q 572 650 550 665 q 607 610 594 635 q 628 566 619 585 q 639 515 636 547 q 643 414 643 467 l 643 0 q 413 -14 499 -14 q 108 235 108 -14 l 108 350 m 543 85 l 543 400 q 339 461 449 449 q 319 461 329 461 q 242 434 275 461 q 208 342 208 407 l 208 233 q 425 75 208 75 q 543 85 478 75 m 586 911 l 586 904 q 540 793 586 839 q 429 747 494 747 q 318 793 364 747 q 272 904 272 839 l 272 911 l 350 911 l 350 904 q 373 847 350 869 q 429 824 396 824 q 485 847 463 824 q 508 904 508 869 l 508 911 l 586 911 z "},"Ą":{"ha":901,"x_min":108,"x_max":853,"o":"m 796 -168 l 853 -226 q 713 -296 808 -296 q 628 -269 671 -296 q 588 -176 586 -242 q 719 0 588 -85 l 693 0 l 597 314 l 308 314 l 217 0 l 108 0 l 394 972 l 510 972 l 806 0 l 804 0 q 665 -168 667 -114 q 678 -208 664 -193 q 717 -222 693 -222 q 796 -168 765 -222 m 572 417 l 451 811 l 335 417 l 572 417 z "},"ą":{"ha":683,"x_min":51,"x_max":633,"o":"m 51 350 q 263 557 51 557 q 325 553 292 557 q 486 490 424 536 q 290 633 486 633 l 297 707 q 464 681 410 707 q 515 650 493 665 q 550 610 538 635 q 571 566 563 585 q 582 515 579 547 q 586 414 586 467 l 586 0 l 585 0 q 446 -168 447 -114 q 459 -208 444 -193 q 497 -222 474 -222 q 576 -168 546 -222 l 633 -226 q 493 -296 589 -296 q 409 -269 451 -296 q 368 -176 367 -242 q 486 -10 368 -90 q 397 -17 436 -17 q 306 -12 358 -17 q 192 11 254 -8 q 90 88 129 31 q 51 235 51 144 l 51 350 m 486 85 l 486 400 q 282 461 392 449 q 263 461 272 461 q 185 434 218 461 q 151 342 151 407 l 151 233 q 368 75 151 75 q 486 85 421 75 z "},"Ć":{"ha":603,"x_min":92,"x_max":593,"o":"m 192 257 q 382 83 192 83 q 574 121 464 83 l 593 32 q 368 -14 475 -14 q 301 -10 346 -14 q 205 22 256 -6 q 123 108 154 49 q 92 254 92 167 l 92 700 q 122 860 92 806 q 213 951 151 914 q 361 986 275 986 q 558 940 468 986 l 529 861 q 396 889 454 889 q 298 877 338 889 q 225 823 258 865 q 192 713 192 781 l 192 257 m 394 1019 l 321 1019 l 389 1179 q 443 1215 406 1215 q 461 1213 453 1215 q 493 1165 493 1200 q 482 1135 493 1150 l 394 1019 z "},"ć":{"ha":604,"x_min":108,"x_max":556,"o":"m 403 81 q 532 97 463 81 l 556 8 q 394 -15 467 -15 q 253 7 322 -15 q 108 250 108 54 l 108 428 q 147 593 108 526 q 367 708 214 708 q 553 664 458 708 l 525 585 q 372 615 442 615 q 253 568 299 615 q 208 436 208 521 l 208 235 q 403 81 208 81 m 364 747 l 290 747 l 358 907 q 413 943 375 943 q 431 940 422 943 q 463 893 463 928 q 451 863 463 878 l 364 747 z "},"Ĉ":{"ha":603,"x_min":92,"x_max":593,"o":"m 572 1071 l 507 1017 l 374 1153 l 233 1017 l 169 1071 l 375 1267 l 572 1071 m 192 257 q 382 83 192 83 q 574 121 464 83 l 593 32 q 368 -14 475 -14 q 301 -10 346 -14 q 205 22 256 -6 q 123 108 154 49 q 92 254 92 167 l 92 700 q 122 860 92 806 q 213 951 151 914 q 361 986 275 986 q 558 940 468 986 l 529 861 q 396 889 454 889 q 298 877 338 889 q 225 823 258 865 q 192 713 192 781 l 192 257 z "},"ĉ":{"ha":606,"x_min":108,"x_max":558,"o":"m 403 81 q 532 97 463 81 l 556 8 q 394 -15 467 -15 q 253 7 322 -15 q 108 250 108 54 l 108 428 q 147 593 108 526 q 367 708 214 708 q 553 664 458 708 l 525 585 q 372 615 442 615 q 253 568 299 615 q 208 436 208 521 l 208 235 q 403 81 208 81 m 558 804 l 493 750 l 360 886 l 219 750 l 156 804 l 361 1000 l 558 804 z "},"Ċ":{"ha":603,"x_min":92,"x_max":593,"o":"m 192 257 q 382 83 192 83 q 574 121 464 83 l 593 32 q 368 -14 475 -14 q 301 -10 346 -14 q 205 22 256 -6 q 123 108 154 49 q 92 254 92 167 l 92 700 q 122 860 92 806 q 213 951 151 914 q 361 986 275 986 q 558 940 468 986 l 529 861 q 396 889 454 889 q 298 877 338 889 q 225 823 258 865 q 192 713 192 781 l 192 257 m 408 1031 q 400 1023 408 1031 q 369 1014 392 1014 q 329 1032 347 1014 q 311 1072 311 1050 q 328 1111 311 1094 q 369 1128 346 1128 q 408 1111 392 1128 q 425 1072 425 1094 q 408 1031 425 1049 z "},"ċ":{"ha":604,"x_min":108,"x_max":556,"o":"m 403 81 q 532 97 463 81 l 556 8 q 394 -15 467 -15 q 253 7 322 -15 q 108 250 108 54 l 108 428 q 147 593 108 526 q 367 708 214 708 q 553 664 458 708 l 525 585 q 372 615 442 615 q 253 568 299 615 q 208 436 208 521 l 208 235 q 403 81 208 81 m 424 805 q 424 793 424 805 q 407 765 424 782 q 367 747 390 747 q 327 765 344 747 q 310 806 310 783 q 327 844 310 828 q 368 861 344 861 q 408 844 392 861 q 424 805 424 828 z "},"Č":{"ha":603,"x_min":92,"x_max":593,"o":"m 192 257 q 382 83 192 83 q 574 121 464 83 l 593 32 q 368 -14 475 -14 q 301 -10 346 -14 q 205 22 256 -6 q 123 108 154 49 q 92 254 92 167 l 92 700 q 122 860 92 806 q 213 951 151 914 q 361 986 275 986 q 558 940 468 986 l 529 861 q 396 889 454 889 q 298 877 338 889 q 225 823 258 865 q 192 713 192 781 l 192 257 m 553 1214 l 356 1018 l 150 1214 l 214 1268 l 354 1133 l 488 1268 l 553 1214 z "},"č":{"ha":606,"x_min":108,"x_max":557,"o":"m 403 81 q 532 97 463 81 l 556 8 q 394 -15 467 -15 q 253 7 322 -15 q 108 250 108 54 l 108 428 q 147 593 108 526 q 367 708 214 708 q 553 664 458 708 l 525 585 q 372 615 442 615 q 253 568 299 615 q 208 436 208 521 l 208 235 q 403 81 208 81 m 557 950 l 360 754 l 154 950 l 218 1004 l 358 869 l 492 1004 l 557 950 z "},"Ď":{"ha":800,"x_min":108,"x_max":692,"o":"m 397 0 l 108 0 l 108 974 l 369 974 q 609 888 526 974 q 692 658 692 801 l 692 278 q 397 0 692 0 m 592 264 l 592 672 q 531 827 592 776 q 383 878 471 878 l 208 878 l 208 90 l 375 90 q 572 172 529 90 q 592 264 592 208 m 578 1215 l 381 1019 l 175 1215 l 239 1269 l 379 1135 l 513 1269 l 578 1215 z "},"ď":{"ha":864,"x_min":108,"x_max":815,"o":"m 226 681 q 374 707 288 707 q 521 668 461 707 l 521 972 l 621 972 l 621 0 q 400 -17 501 -17 q 217 25 299 -17 q 108 218 108 81 l 108 481 q 226 681 108 626 m 521 572 q 363 611 449 611 q 244 569 281 611 q 207 461 207 526 l 207 214 q 253 114 207 150 q 376 76 303 76 q 521 88 450 76 l 521 572 m 725 763 l 657 801 q 749 875 713 833 l 733 879 q 703 927 703 897 q 720 971 704 957 q 747 985 736 985 q 799 965 782 985 q 815 924 815 944 q 725 763 815 840 z "},"Đ":{"ha":800,"x_min":108,"x_max":692,"o":"m 397 0 l 108 0 l 108 974 l 369 974 q 609 888 526 974 q 692 658 692 801 l 692 278 q 397 0 692 0 m 592 264 l 592 672 q 531 827 592 776 q 383 878 471 878 l 208 878 l 208 90 l 375 90 q 572 172 529 90 q 592 264 592 208 m 544 1014 l 243 1014 l 243 1108 l 544 1108 l 544 1014 z "},"đ":{"ha":756,"x_min":108,"x_max":707,"o":"m 226 681 q 374 707 288 707 q 521 668 461 707 l 521 769 l 382 769 l 382 867 l 521 867 l 521 972 l 621 972 l 621 867 l 707 867 l 707 769 l 621 769 l 621 0 q 400 -17 501 -17 q 217 25 299 -17 q 108 218 108 81 l 108 481 q 226 681 108 626 m 521 572 q 363 611 449 611 q 244 569 281 611 q 207 461 207 526 l 207 214 q 253 114 207 150 q 376 76 303 76 q 521 88 450 76 l 521 572 z "},"Ē":{"ha":646,"x_min":108,"x_max":572,"o":"m 569 0 l 108 0 l 108 972 l 572 972 l 572 876 l 208 876 l 208 574 l 451 574 l 419 476 l 208 476 l 208 90 l 569 90 l 569 0 m 489 1014 l 188 1014 l 188 1108 l 489 1108 l 489 1014 z "},"ē":{"ha":746,"x_min":49,"x_max":549,"o":"m 149 192 q 288 74 149 74 q 476 131 374 74 l 514 49 q 290 -17 407 -17 q 49 186 49 -17 l 49 471 q 119 646 49 583 q 304 708 189 708 q 484 647 419 708 q 549 475 549 585 l 549 285 l 149 264 l 149 192 m 447 374 l 447 481 q 401 585 447 554 q 294 617 356 617 q 191 579 233 617 q 149 469 149 542 l 149 358 l 447 374 m 453 747 l 151 747 l 151 842 l 453 842 l 453 747 z "},"Ė":{"ha":646,"x_min":108,"x_max":572,"o":"m 569 0 l 108 0 l 108 972 l 572 972 l 572 876 l 208 876 l 208 574 l 451 574 l 419 476 l 208 476 l 208 90 l 569 90 l 569 0 m 394 1031 q 386 1023 394 1031 q 356 1014 378 1014 q 315 1032 333 1014 q 297 1072 297 1050 q 315 1111 297 1094 q 355 1128 332 1128 q 394 1111 378 1128 q 411 1072 411 1094 q 394 1031 411 1049 z "},"ė":{"ha":657,"x_min":108,"x_max":608,"o":"m 208 192 q 347 74 208 74 q 536 131 433 74 l 574 49 q 350 -17 467 -17 q 108 186 108 -17 l 108 471 q 178 646 108 583 q 364 708 249 708 q 544 647 479 708 q 608 475 608 585 l 608 285 l 208 264 l 208 192 m 507 374 l 507 481 q 461 585 507 554 q 354 617 415 617 q 251 579 293 617 q 208 469 208 542 l 208 358 l 507 374 m 411 765 q 403 756 411 765 q 372 747 394 747 q 332 765 350 747 q 314 806 314 783 q 331 844 314 828 q 372 861 349 861 q 411 844 394 861 q 428 805 428 828 q 411 765 428 782 z "},"Ę":{"ha":690,"x_min":108,"x_max":617,"o":"m 560 -168 l 617 -226 q 476 -296 572 -296 q 392 -269 435 -296 q 351 -176 350 -242 q 483 0 351 -85 l 108 0 l 108 972 l 572 972 l 572 876 l 208 876 l 208 574 l 451 574 l 419 476 l 208 476 l 208 90 l 569 90 l 569 0 l 568 0 q 429 -168 431 -114 q 442 -208 428 -193 q 481 -222 457 -222 q 560 -168 529 -222 z "},"ę":{"ha":603,"x_min":49,"x_max":549,"o":"m 149 192 q 288 74 149 74 q 476 131 374 74 l 514 49 q 368 -7 447 7 q 253 -208 196 -151 q 290 -222 267 -222 q 369 -168 339 -222 l 426 -226 q 286 -296 382 -296 q 202 -269 244 -296 q 161 -176 160 -242 q 268 -17 161 -93 q 108 35 167 -15 q 49 186 49 86 l 49 471 q 119 646 49 583 q 304 708 189 708 q 484 647 419 708 q 549 475 549 585 l 549 285 l 149 264 l 149 192 m 447 374 l 447 481 q 401 585 447 554 q 294 617 356 617 q 191 579 233 617 q 149 469 149 542 l 149 358 l 447 374 z "},"Ě":{"ha":646,"x_min":108,"x_max":572,"o":"m 569 0 l 108 0 l 108 972 l 572 972 l 572 876 l 208 876 l 208 574 l 451 574 l 419 476 l 208 476 l 208 90 l 569 90 l 569 0 m 544 1215 l 347 1019 l 142 1215 l 206 1269 l 346 1135 l 479 1269 l 544 1215 z "},"ě":{"ha":657,"x_min":108,"x_max":608,"o":"m 208 192 q 347 74 208 74 q 536 131 433 74 l 574 49 q 350 -17 467 -17 q 108 186 108 -17 l 108 471 q 178 646 108 583 q 364 708 249 708 q 544 647 479 708 q 608 475 608 585 l 608 285 l 208 264 l 208 192 m 507 374 l 507 481 q 461 585 507 554 q 354 617 415 617 q 251 579 293 617 q 208 469 208 542 l 208 358 l 507 374 m 565 949 l 368 753 l 163 949 l 226 1003 l 367 868 l 500 1003 l 565 949 z "},"Ĝ":{"ha":746,"x_min":90,"x_max":661,"o":"m 661 0 l 578 0 l 561 43 q 378 -14 494 -14 q 176 56 261 -14 q 90 263 90 125 l 90 699 q 211 950 90 876 q 360 985 274 985 q 557 939 467 985 l 528 861 q 385 889 453 889 q 190 711 190 889 l 190 260 q 243 130 190 175 q 379 85 296 85 q 513 131 463 85 q 564 258 564 176 l 564 319 l 476 319 l 443 417 l 661 417 l 661 0 m 592 1071 l 526 1017 l 393 1153 l 253 1017 l 189 1071 l 394 1267 l 592 1071 z "},"ĝ":{"ha":681,"x_min":108,"x_max":632,"o":"m 621 804 l 556 750 l 422 886 l 282 750 l 218 804 l 424 1000 l 621 804 m 463 -292 l 438 -214 q 532 -81 532 -187 l 532 63 q 365 -17 485 -17 q 176 50 244 -17 q 108 244 108 117 l 108 451 q 180 641 108 574 q 370 708 251 708 q 536 635 489 708 l 540 696 l 632 696 l 632 -89 q 592 -225 632 -176 q 463 -292 553 -274 m 532 264 l 532 458 q 485 574 532 535 q 369 614 439 614 q 253 572 299 614 q 208 444 208 529 l 208 242 q 250 120 208 163 q 367 78 292 78 q 487 126 442 78 q 532 264 532 174 z "},"Ğ":{"ha":746,"x_min":90,"x_max":661,"o":"m 661 0 l 578 0 l 561 43 q 378 -14 494 -14 q 176 56 261 -14 q 90 263 90 125 l 90 699 q 211 950 90 876 q 360 985 274 985 q 557 939 467 985 l 528 861 q 385 889 453 889 q 190 711 190 889 l 190 260 q 243 130 190 175 q 379 85 296 85 q 513 131 463 85 q 564 258 564 176 l 564 319 l 476 319 l 443 417 l 661 417 l 661 0 m 540 1175 l 540 1168 q 494 1057 540 1103 q 383 1011 447 1011 q 273 1057 319 1011 q 226 1168 226 1103 l 226 1175 l 304 1175 l 304 1168 q 327 1110 304 1133 q 383 1088 350 1088 q 440 1110 417 1088 q 463 1168 463 1133 l 463 1175 l 540 1175 z "},"ğ":{"ha":681,"x_min":108,"x_max":632,"o":"m 549 903 l 549 896 q 502 785 549 831 q 392 739 456 739 q 281 785 328 739 q 235 896 235 831 l 235 903 l 313 903 l 313 896 q 335 838 313 861 q 392 815 358 815 q 448 838 425 815 q 471 896 471 861 l 471 903 l 549 903 m 463 -292 l 438 -214 q 532 -81 532 -187 l 532 63 q 365 -17 485 -17 q 176 50 244 -17 q 108 244 108 117 l 108 451 q 180 641 108 574 q 370 708 251 708 q 536 635 489 708 l 540 696 l 632 696 l 632 -89 q 592 -225 632 -176 q 463 -292 553 -274 m 532 264 l 532 458 q 485 574 532 535 q 369 614 439 614 q 253 572 299 614 q 208 444 208 529 l 208 242 q 250 120 208 163 q 367 78 292 78 q 487 126 442 78 q 532 264 532 174 z "},"Ġ":{"ha":786,"x_min":118,"x_max":689,"o":"m 463 1071 q 463 1059 463 1071 q 446 1030 463 1047 q 406 1013 429 1013 q 366 1030 383 1013 q 349 1070 349 1047 q 366 1110 349 1093 q 407 1126 383 1126 q 447 1110 431 1126 q 463 1071 463 1094 m 689 0 l 606 0 l 589 43 q 406 -14 522 -14 q 203 56 289 -14 q 118 263 118 125 l 118 699 q 239 950 118 876 q 388 985 301 985 q 585 939 494 985 l 556 861 q 413 889 481 889 q 218 711 218 889 l 218 260 q 271 130 218 175 q 407 85 324 85 q 541 131 490 85 q 592 258 592 176 l 592 319 l 504 319 l 471 417 l 689 417 l 689 0 z "},"ġ":{"ha":681,"x_min":108,"x_max":632,"o":"m 428 763 q 419 755 428 763 q 389 746 411 746 q 349 763 367 746 q 331 803 331 781 q 348 843 331 826 q 388 860 365 860 q 428 844 411 860 q 444 804 444 828 q 428 763 444 781 m 463 -292 l 438 -214 q 532 -81 532 -187 l 532 63 q 365 -17 485 -17 q 176 50 244 -17 q 108 244 108 117 l 108 451 q 180 641 108 574 q 370 708 251 708 q 536 635 489 708 l 540 696 l 632 696 l 632 -89 q 592 -225 632 -176 q 463 -292 553 -274 m 532 264 l 532 458 q 485 574 532 535 q 369 614 439 614 q 253 572 299 614 q 208 444 208 529 l 208 242 q 250 120 208 163 q 367 78 292 78 q 487 126 442 78 q 532 264 532 174 z "},"Ģ":{"ha":746,"x_min":90,"x_max":661,"o":"m 661 0 l 578 0 l 561 43 q 378 -14 494 -14 q 176 56 261 -14 q 90 263 90 125 l 90 699 q 211 950 90 876 q 360 985 274 985 q 557 939 467 985 l 528 861 q 385 889 453 889 q 190 711 190 889 l 190 260 q 243 130 190 175 q 379 85 296 85 q 513 131 463 85 q 564 258 564 176 l 564 319 l 476 319 l 443 417 l 661 417 l 661 0 m 343 -269 l 275 -231 q 367 -157 335 -196 l 351 -153 q 322 -105 321 -135 q 338 -61 322 -75 q 365 -47 354 -47 q 417 -67 400 -47 q 433 -108 433 -87 q 343 -269 433 -192 z "},"ģ":{"ha":681,"x_min":108,"x_max":632,"o":"m 463 -292 l 438 -214 q 532 -81 532 -187 l 532 63 q 365 -17 485 -17 q 176 50 244 -17 q 108 244 108 117 l 108 451 q 180 641 108 574 q 370 708 251 708 q 536 635 489 708 l 540 696 l 632 696 l 632 -89 q 592 -225 632 -176 q 463 -292 553 -274 m 532 264 l 532 458 q 485 574 532 535 q 369 614 439 614 q 253 572 299 614 q 208 444 208 529 l 208 242 q 250 120 208 163 q 367 78 292 78 q 487 126 442 78 q 532 264 532 174 m 379 863 l 394 858 q 424 810 425 840 q 408 767 424 781 q 381 753 392 753 q 329 773 346 753 q 313 814 313 793 q 403 975 313 897 l 471 936 q 379 863 415 904 z "},"Ĥ":{"ha":817,"x_min":108,"x_max":706,"o":"m 706 0 l 606 0 l 606 476 l 208 476 l 208 0 l 108 0 l 108 972 l 208 972 l 208 574 l 606 574 l 606 972 l 706 972 l 706 0 m 639 1071 l 574 1017 l 440 1153 l 300 1017 l 236 1071 l 442 1267 l 639 1071 z "},"ĥ":{"ha":836,"x_min":89,"x_max":753,"o":"m 492 1071 l 426 1017 l 293 1153 l 153 1017 l 89 1071 l 294 1267 l 492 1071 m 340 668 q 490 708 401 708 q 635 682 578 708 q 753 481 753 628 l 753 0 l 653 0 l 653 461 q 618 569 653 531 q 494 615 578 615 q 340 575 410 615 l 340 0 l 240 0 l 240 972 l 340 972 l 340 668 z "},"Ħ":{"ha":951,"x_min":108,"x_max":840,"o":"m 774 0 l 674 0 l 674 476 l 276 476 l 276 0 l 176 0 l 176 667 l 108 667 l 108 764 l 176 764 l 176 972 l 276 972 l 276 764 l 674 764 l 674 972 l 774 972 l 774 764 l 840 764 l 840 667 l 774 667 l 774 0 m 674 574 l 674 667 l 276 667 l 276 574 l 674 574 z "},"ħ":{"ha":754,"x_min":108,"x_max":707,"o":"m 294 668 q 444 708 356 708 q 589 682 532 708 q 707 481 707 628 l 707 0 l 607 0 l 607 461 q 572 569 607 531 q 448 615 532 615 q 294 575 364 615 l 294 0 l 194 0 l 194 769 l 108 769 l 108 867 l 194 867 l 194 972 l 294 972 l 294 867 l 433 867 l 433 769 l 294 769 l 294 668 z "},"Ĩ":{"ha":690,"x_min":108,"x_max":579,"o":"m 410 0 l 310 0 l 310 878 l 218 881 l 218 972 l 410 972 l 410 0 m 440 1092 q 538 1140 494 1092 l 579 1075 q 446 1001 517 1001 q 390 1015 421 1001 q 324 1044 358 1028 q 254 1060 289 1060 q 149 1010 196 1060 l 108 1075 q 247 1149 174 1149 q 303 1136 272 1149 q 370 1108 335 1124 q 440 1092 406 1092 z "},"ĩ":{"ha":628,"x_min":108,"x_max":579,"o":"m 440 815 q 538 864 494 815 l 579 799 q 446 725 517 725 q 390 738 421 725 q 324 767 358 751 q 254 783 289 783 q 149 733 196 783 l 108 799 q 247 872 174 872 q 303 860 272 872 q 370 831 335 847 q 440 815 406 815 m 382 0 l 282 0 l 282 696 l 382 696 l 382 0 z "},"Ī":{"ha":519,"x_min":108,"x_max":408,"o":"m 343 0 l 243 0 l 243 878 l 151 881 l 151 972 l 343 972 l 343 0 m 408 1014 l 108 1014 l 108 1108 l 408 1108 l 408 1014 z "},"ī":{"ha":458,"x_min":108,"x_max":410,"o":"m 410 747 l 108 747 l 108 842 l 410 842 l 410 747 m 314 0 l 214 0 l 214 696 l 314 696 l 314 0 z "},"Į":{"ha":489,"x_min":111,"x_max":378,"o":"m 321 -168 l 378 -226 q 238 -296 333 -296 q 153 -269 196 -296 q 113 -176 111 -242 q 244 0 113 -85 l 229 0 l 229 878 l 138 881 l 138 972 l 329 972 l 329 0 q 190 -168 192 -114 q 203 -208 189 -193 q 242 -222 218 -222 q 321 -168 290 -222 z "},"į":{"ha":340,"x_min":-8,"x_max":258,"o":"m 201 -168 l 258 -226 q 118 -296 214 -296 q 34 -269 76 -296 q -7 -176 -8 -242 q 125 0 -7 -85 l 113 0 l 113 696 l 213 696 l 213 0 l 210 0 q 71 -168 72 -114 q 84 -208 69 -193 q 122 -222 99 -222 q 201 -168 171 -222 m 221 929 q 221 917 221 929 q 204 889 221 906 q 165 872 188 872 q 124 890 142 872 q 107 929 107 907 q 124 969 107 951 q 165 986 142 986 q 204 969 188 986 q 221 929 221 953 z "},"İ":{"ha":419,"x_min":107,"x_max":308,"o":"m 299 0 l 199 0 l 199 878 l 107 881 l 107 972 l 299 972 l 299 0 m 292 1031 q 283 1023 292 1031 q 253 1014 275 1014 q 213 1032 231 1014 q 194 1072 194 1050 q 212 1111 194 1094 q 252 1128 229 1128 q 292 1111 275 1128 q 308 1072 308 1094 q 292 1031 308 1049 z "},"ı":{"ha":203,"x_min":50,"x_max":150,"o":"m 150 0 l 50 0 l 50 696 l 150 696 l 150 0 z "},"Ĵ":{"ha":374,"x_min":-3,"x_max":317,"o":"m 25 -51 l -3 24 q 83 58 46 24 q 121 176 121 92 l 121 878 l 31 881 l 31 972 l 221 972 l 221 172 q 25 -51 221 -50 m 317 1175 l 317 1168 q 271 1057 317 1103 q 160 1011 225 1011 q 49 1057 94 1011 q 3 1168 3 1103 l 3 1175 l 81 1175 l 81 1168 q 103 1110 81 1133 q 160 1088 126 1088 q 216 1110 193 1088 q 239 1168 239 1133 l 239 1175 l 317 1175 z "},"ĵ":{"ha":560,"x_min":108,"x_max":511,"o":"m 511 804 l 446 750 l 313 886 l 172 750 l 108 804 l 314 1000 l 511 804 m 267 -69 l 267 600 l 203 607 l 171 696 l 368 696 l 368 -104 q 313 -237 365 -183 q 183 -290 260 -290 l 165 -212 q 198 -202 178 -212 q 231 -178 218 -192 q 267 -69 267 -140 z "},"Ķ":{"ha":683,"x_min":110,"x_max":683,"o":"m 683 0 l 561 0 l 263 451 l 214 374 l 214 0 l 110 0 l 110 974 l 214 974 l 214 549 l 499 974 l 617 974 l 325 543 l 683 0 m 331 -269 l 263 -231 q 354 -157 322 -196 l 339 -153 q 309 -105 308 -135 q 326 -61 310 -75 q 353 -47 342 -47 q 404 -67 388 -47 q 421 -108 421 -87 q 331 -269 421 -192 z "},"ķ":{"ha":619,"x_min":92,"x_max":621,"o":"m 621 0 l 497 0 l 249 414 l 192 364 l 192 0 l 92 0 l 92 972 l 192 972 l 192 485 l 449 722 l 521 653 l 322 481 q 621 0 424 313 m 297 -271 l 229 -232 q 321 -158 289 -197 l 306 -154 q 276 -106 275 -136 q 292 -62 276 -76 q 319 -49 308 -49 q 371 -69 354 -49 q 388 -110 388 -89 q 297 -271 388 -193 z "},"ĸ":{"ha":685,"x_min":108,"x_max":633,"o":"m 633 86 l 622 -1 q 532 24 574 -1 q 469 75 490 50 q 408 153 447 100 l 274 338 l 208 274 l 208 0 l 108 0 l 108 711 l 208 693 l 208 406 l 475 696 l 604 696 l 344 413 l 510 181 q 633 86 578 89 z "},"Ĺ":{"ha":611,"x_min":108,"x_max":610,"o":"m 610 0 l 108 0 l 108 972 l 208 972 l 208 90 l 610 90 l 610 0 m 254 1014 l 181 1014 l 249 1174 q 303 1210 265 1210 q 321 1207 313 1210 q 353 1160 353 1194 q 342 1129 353 1144 l 254 1014 z "},"ĺ":{"ha":411,"x_min":108,"x_max":300,"o":"m 208 0 l 108 0 l 108 972 l 208 972 l 208 0 m 201 1019 l 128 1019 l 196 1179 q 250 1215 213 1215 q 268 1213 260 1215 q 300 1165 300 1200 q 289 1135 300 1150 l 201 1019 z "},"Ļ":{"ha":611,"x_min":108,"x_max":610,"o":"m 610 0 l 108 0 l 108 972 l 208 972 l 208 90 l 610 90 l 610 0 m 339 -271 l 271 -232 q 363 -158 331 -197 l 347 -154 q 317 -106 317 -136 q 334 -62 318 -76 q 361 -49 350 -49 q 413 -69 396 -49 q 429 -110 429 -89 q 339 -271 429 -193 z "},"ļ":{"ha":379,"x_min":108,"x_max":267,"o":"m 260 0 l 160 0 l 160 972 l 260 972 l 260 0 m 176 -271 l 108 -232 q 200 -158 168 -197 l 185 -154 q 155 -106 154 -136 q 172 -62 156 -76 q 199 -49 188 -49 q 250 -69 233 -49 q 267 -110 267 -89 q 176 -271 267 -193 z "},"Ľ":{"ha":761,"x_min":108,"x_max":760,"o":"m 760 0 l 258 0 l 258 972 l 358 972 l 358 90 l 760 90 l 760 0 m 511 1215 l 314 1019 l 108 1215 l 172 1269 l 313 1135 l 446 1269 l 511 1215 z "},"ľ":{"ha":622,"x_min":108,"x_max":511,"o":"m 358 0 l 258 0 l 258 972 l 358 972 l 358 0 m 511 1215 l 314 1019 l 108 1215 l 172 1269 l 313 1135 l 446 1269 l 511 1215 z "},"Ł":{"ha":822,"x_min":108,"x_max":774,"o":"m 774 0 l 272 0 l 272 472 l 144 415 l 108 497 l 272 571 l 272 972 l 372 972 l 372 615 l 513 679 l 550 597 l 372 517 l 372 90 l 774 90 l 774 0 z "},"ł":{"ha":599,"x_min":108,"x_max":550,"o":"m 388 0 l 288 0 l 288 479 l 144 415 l 108 497 l 288 578 l 288 878 l 196 881 l 196 972 l 388 972 l 388 622 l 513 679 l 550 597 l 388 524 l 388 0 z "},"Ń":{"ha":903,"x_min":108,"x_max":792,"o":"m 792 0 l 690 0 l 208 778 l 208 0 l 108 0 l 108 972 l 208 972 l 690 196 l 690 972 l 792 972 l 792 0 m 460 1014 l 386 1014 l 454 1174 q 508 1210 471 1210 q 526 1207 518 1210 q 558 1160 558 1194 q 547 1129 558 1144 l 460 1014 z "},"ń":{"ha":669,"x_min":108,"x_max":621,"o":"m 204 660 q 376 707 268 707 q 503 682 447 707 q 621 481 621 628 l 621 0 l 521 0 l 521 465 q 471 581 521 547 q 352 615 421 615 q 208 574 283 615 l 208 0 l 108 0 l 108 696 l 203 696 l 204 660 m 394 747 l 321 747 l 389 907 q 443 943 406 943 q 461 940 453 943 q 493 893 493 928 q 482 863 493 878 l 394 747 z "},"Ņ":{"ha":903,"x_min":108,"x_max":792,"o":"m 792 0 l 690 0 l 208 778 l 208 0 l 108 0 l 108 972 l 208 972 l 690 196 l 690 972 l 792 972 l 792 0 m 436 -268 l 368 -229 q 460 -156 428 -194 l 444 -151 q 415 -103 414 -133 q 431 -60 415 -74 q 458 -46 447 -46 q 510 -66 493 -46 q 526 -107 526 -86 q 436 -268 526 -190 z "},"ņ":{"ha":694,"x_min":89,"x_max":601,"o":"m 185 660 q 357 707 249 707 q 483 682 428 707 q 601 481 601 628 l 601 0 l 501 0 l 501 465 q 451 581 501 547 q 333 615 401 615 q 189 574 264 615 l 189 0 l 89 0 l 89 696 l 183 696 l 185 660 m 308 -271 l 240 -232 q 332 -158 300 -197 l 317 -154 q 287 -106 286 -136 q 303 -62 288 -76 q 331 -49 319 -49 q 382 -69 365 -49 q 399 -110 399 -89 q 308 -271 399 -193 z "},"Ň":{"ha":903,"x_min":108,"x_max":792,"o":"m 792 0 l 690 0 l 208 778 l 208 0 l 108 0 l 108 972 l 208 972 l 690 196 l 690 972 l 792 972 l 792 0 m 658 1215 l 461 1019 l 256 1215 l 319 1269 l 460 1135 l 593 1269 l 658 1215 z "},"ň":{"ha":669,"x_min":108,"x_max":621,"o":"m 204 660 q 376 707 268 707 q 503 682 447 707 q 621 481 621 628 l 621 0 l 521 0 l 521 465 q 471 581 521 547 q 352 615 421 615 q 208 574 283 615 l 208 0 l 108 0 l 108 696 l 203 696 l 204 660 m 585 1017 l 388 821 l 182 1017 l 246 1071 l 386 936 l 519 1071 l 585 1017 z "},"Ŋ":{"ha":904,"x_min":108,"x_max":793,"o":"m 654 61 l 208 778 l 208 0 l 108 0 l 108 972 l 208 972 q 690 197 600 360 l 690 878 l 601 881 l 601 972 l 793 972 l 793 182 q 738 8 793 68 q 596 -51 683 -51 q 568 24 588 -26 q 654 61 622 24 z "},"ŋ":{"ha":694,"x_min":89,"x_max":601,"o":"m 185 661 q 356 708 243 708 q 483 682 428 708 q 601 481 601 628 l 601 -103 q 544 -237 600 -185 q 411 -290 489 -290 l 393 -212 q 428 -203 406 -212 q 464 -179 450 -193 q 503 -71 503 -143 l 503 469 q 468 572 503 535 q 344 614 428 614 q 189 574 261 614 l 189 0 l 89 0 l 89 696 l 185 696 l 185 661 z "},"Ō":{"ha":763,"x_min":88,"x_max":671,"o":"m 671 703 l 671 257 q 585 51 671 117 q 381 -15 500 -15 q 174 51 261 -15 q 88 257 88 117 l 88 704 q 166 921 88 847 q 382 994 244 994 q 595 917 519 994 q 671 703 671 839 m 571 268 l 571 697 q 522 843 571 793 q 379 893 472 893 q 188 697 188 893 l 188 265 q 240 130 188 176 q 379 83 293 83 q 518 130 465 83 q 571 268 571 176 m 524 1014 l 222 1014 l 222 1108 l 524 1108 l 524 1014 z "},"ō":{"ha":675,"x_min":108,"x_max":626,"o":"m 626 439 l 626 256 q 563 63 626 139 q 369 -14 499 -14 q 174 63 240 -14 q 108 256 108 140 l 108 439 q 176 641 108 571 q 367 711 243 711 q 558 638 490 711 q 626 439 626 565 m 526 242 l 526 439 q 369 615 526 615 q 208 439 208 615 l 208 242 q 252 123 208 167 q 369 79 296 79 q 485 123 443 79 q 526 242 526 167 m 517 747 l 217 747 l 217 842 l 517 842 l 517 747 z "},"Ő":{"ha":763,"x_min":88,"x_max":671,"o":"m 671 703 l 671 257 q 585 51 671 117 q 381 -15 500 -15 q 174 51 261 -15 q 88 257 88 117 l 88 704 q 166 921 88 847 q 382 994 244 994 q 595 917 519 994 q 671 703 671 839 m 571 268 l 571 697 q 522 843 571 793 q 379 893 472 893 q 188 697 188 893 l 188 265 q 240 130 188 176 q 379 83 293 83 q 518 130 465 83 q 571 268 571 176 m 485 1017 l 411 1017 l 479 1176 q 533 1213 496 1213 q 551 1210 543 1213 q 583 1163 583 1197 q 572 1132 583 1147 l 485 1017 m 318 1017 l 244 1017 l 313 1176 q 367 1213 329 1213 q 385 1210 376 1213 q 417 1163 417 1197 q 406 1132 417 1147 l 318 1017 z "},"ő":{"ha":675,"x_min":108,"x_max":626,"o":"m 626 439 l 626 256 q 563 63 626 139 q 369 -14 499 -14 q 174 63 240 -14 q 108 256 108 140 l 108 439 q 176 641 108 571 q 367 711 243 711 q 558 638 490 711 q 626 439 626 565 m 526 242 l 526 439 q 369 615 526 615 q 208 439 208 615 l 208 242 q 252 123 208 167 q 369 79 296 79 q 485 123 443 79 q 526 242 526 167 m 472 754 l 399 754 l 467 914 q 521 950 483 950 q 539 947 531 950 q 571 900 571 935 q 560 869 571 885 l 472 754 m 306 754 l 232 754 l 300 914 q 354 950 317 950 q 372 947 364 950 q 404 900 404 935 q 393 869 404 885 l 306 754 z "},"Œ":{"ha":1103,"x_min":108,"x_max":1054,"o":"m 692 257 l 690 226 l 690 90 l 1051 90 l 1051 0 l 590 0 l 590 39 q 399 -15 515 -15 q 195 51 282 -15 q 108 257 108 117 l 108 704 q 187 921 108 847 q 390 994 265 994 q 590 939 515 994 l 590 972 l 1054 972 l 1054 876 l 690 876 l 690 742 q 692 703 692 729 l 692 574 l 933 574 l 901 476 l 692 476 l 692 257 m 590 240 l 590 725 q 400 893 575 893 q 208 697 208 893 l 208 265 q 261 130 208 176 q 397 83 314 83 q 531 123 479 83 q 590 240 582 163 z "},"œ":{"ha":1089,"x_min":108,"x_max":1040,"o":"m 781 74 q 978 126 874 74 l 1015 49 q 768 -17 908 -17 q 567 75 628 -17 q 370 -14 500 -14 q 174 63 240 -14 q 108 256 108 140 l 108 439 q 176 641 108 571 q 376 711 243 711 q 578 608 510 711 q 799 708 653 708 q 976 643 911 708 q 1040 468 1040 578 l 1040 283 l 628 258 l 628 196 q 681 97 628 129 q 781 74 722 74 m 526 242 l 526 439 q 369 618 526 618 q 208 439 208 618 l 208 242 q 253 119 208 163 q 369 75 299 75 q 483 118 439 75 q 526 242 526 161 m 940 371 l 940 471 q 894 585 940 551 q 783 619 847 619 q 673 578 718 619 q 628 456 628 538 l 628 356 l 940 371 z "},"Ŕ":{"ha":783,"x_min":108,"x_max":713,"o":"m 713 0 l 610 0 l 500 322 q 456 319 475 319 l 208 319 l 208 0 l 108 0 l 108 972 l 446 972 q 645 888 579 972 q 711 665 711 803 q 658 417 711 494 q 593 354 633 379 l 713 0 m 208 417 l 443 417 q 561 464 525 417 q 588 508 578 488 q 603 564 599 529 q 608 665 608 610 q 431 875 608 875 l 208 875 l 208 417 m 389 1014 l 315 1014 l 383 1174 q 438 1210 400 1210 q 456 1207 447 1210 q 488 1160 488 1194 q 476 1129 488 1144 l 389 1014 z "},"ŕ":{"ha":517,"x_min":108,"x_max":468,"o":"m 208 0 l 108 0 l 108 696 l 206 696 l 206 660 q 364 706 268 706 q 468 694 411 706 l 443 600 q 342 615 394 615 q 249 588 290 615 q 208 515 208 561 l 208 0 m 265 747 l 192 747 l 260 907 q 314 943 276 943 q 332 940 324 943 q 364 893 364 928 q 353 863 364 878 l 265 747 z "},"Ŗ":{"ha":783,"x_min":108,"x_max":713,"o":"m 713 0 l 610 0 l 500 322 q 456 319 475 319 l 208 319 l 208 0 l 108 0 l 108 972 l 446 972 q 645 888 579 972 q 711 665 711 803 q 658 417 711 494 q 593 354 633 379 l 713 0 m 208 417 l 443 417 q 561 464 525 417 q 588 508 578 488 q 603 564 599 529 q 608 665 608 610 q 431 875 608 875 l 208 875 l 208 417 m 357 -271 l 289 -232 q 381 -158 349 -197 l 365 -154 q 335 -106 335 -136 q 352 -62 336 -76 q 379 -49 368 -49 q 431 -69 414 -49 q 447 -110 447 -89 q 357 -271 447 -193 z "},"ŗ":{"ha":493,"x_min":94,"x_max":456,"o":"m 196 0 l 96 0 l 96 696 l 193 696 l 193 660 q 351 706 256 706 q 456 694 399 706 l 431 600 q 330 615 382 615 q 237 588 278 615 q 196 515 196 561 l 196 0 m 163 -271 l 94 -232 q 186 -158 154 -197 l 171 -154 q 141 -106 140 -136 q 158 -62 142 -76 q 185 -49 174 -49 q 236 -69 219 -49 q 253 -110 253 -89 q 163 -271 253 -193 z "},"Ř":{"ha":783,"x_min":108,"x_max":713,"o":"m 713 0 l 610 0 l 500 322 q 456 319 475 319 l 208 319 l 208 0 l 108 0 l 108 972 l 446 972 q 645 888 579 972 q 711 665 711 803 q 658 417 711 494 q 593 354 633 379 l 713 0 m 208 417 l 443 417 q 561 464 525 417 q 588 508 578 488 q 603 564 599 529 q 608 665 608 610 q 431 875 608 875 l 208 875 l 208 417 m 593 1215 l 396 1019 l 190 1215 l 254 1269 l 394 1135 l 528 1269 l 593 1215 z "},"ř":{"ha":560,"x_min":108,"x_max":511,"o":"m 210 0 l 110 0 l 110 696 l 207 696 l 207 660 q 365 706 269 706 q 469 694 413 706 l 444 600 q 344 615 396 615 q 251 588 292 615 q 210 515 210 561 l 210 0 m 511 1017 l 314 821 l 108 1017 l 172 1071 l 313 936 l 446 1071 l 511 1017 z "},"Ś":{"ha":779,"x_min":51,"x_max":711,"o":"m 51 247 l 156 254 q 223 133 163 185 q 380 82 283 82 q 540 127 476 82 q 603 258 603 172 q 564 367 603 322 q 467 436 525 413 q 340 488 408 460 q 213 542 271 515 q 115 621 154 568 q 76 747 76 674 q 157 915 76 844 q 389 986 238 986 q 592 944 504 986 q 561 850 592 942 q 384 888 475 888 q 238 849 293 888 q 182 743 182 810 q 289 615 182 663 q 392 574 336 594 q 504 529 449 554 q 606 472 560 504 q 682 388 653 440 q 711 268 711 336 q 630 63 711 140 q 388 -15 549 -15 q 141 65 228 -15 q 51 247 54 144 m 407 1021 l 333 1021 l 401 1181 q 456 1217 418 1217 q 474 1214 465 1217 q 506 1167 506 1201 q 494 1136 506 1151 l 407 1021 z "},"ś":{"ha":661,"x_min":108,"x_max":613,"o":"m 108 176 l 206 181 q 257 101 211 129 q 363 72 303 72 q 466 99 422 72 q 510 177 510 126 q 472 258 510 228 q 381 305 435 288 q 272 342 326 322 q 175 403 217 361 q 124 522 124 451 q 180 652 124 592 q 363 713 236 713 q 446 702 407 713 q 501 682 485 692 l 518 672 l 486 585 q 369 619 442 619 q 262 592 297 619 q 226 524 226 565 q 271 451 226 478 q 371 407 315 425 q 481 367 426 389 q 574 297 536 344 q 613 172 613 250 q 550 37 613 94 q 367 -21 488 -21 q 179 36 247 -21 q 108 176 111 93 m 385 747 l 311 747 l 379 907 q 433 943 396 943 q 451 940 443 943 q 483 893 483 928 q 472 863 483 878 l 385 747 z "},"Ŝ":{"ha":779,"x_min":51,"x_max":711,"o":"m 51 247 l 156 254 q 223 133 163 185 q 380 82 283 82 q 540 127 476 82 q 603 258 603 172 q 564 367 603 322 q 467 436 525 413 q 340 488 408 460 q 213 542 271 515 q 115 621 154 568 q 76 747 76 674 q 157 915 76 844 q 389 986 238 986 q 592 944 504 986 q 561 850 592 942 q 384 888 475 888 q 238 849 293 888 q 182 743 182 810 q 289 615 182 663 q 392 574 336 594 q 504 529 449 554 q 606 472 560 504 q 682 388 653 440 q 711 268 711 336 q 630 63 711 140 q 388 -15 549 -15 q 141 65 228 -15 q 51 247 54 144 m 576 1071 l 511 1017 l 378 1153 l 238 1017 l 174 1071 l 379 1267 l 576 1071 z "},"ŝ":{"ha":661,"x_min":108,"x_max":613,"o":"m 568 804 l 503 750 l 369 886 l 229 750 l 165 804 l 371 1000 l 568 804 m 108 176 l 206 181 q 257 101 211 129 q 363 72 303 72 q 466 99 422 72 q 510 177 510 126 q 472 258 510 228 q 381 305 435 288 q 272 342 326 322 q 175 403 217 361 q 124 522 124 451 q 180 652 124 592 q 363 713 236 713 q 446 702 407 713 q 501 682 485 692 l 518 672 l 486 585 q 369 619 442 619 q 262 592 297 619 q 226 524 226 565 q 271 451 226 478 q 371 407 315 425 q 481 367 426 389 q 574 297 536 344 q 613 172 613 250 q 550 37 613 94 q 367 -21 488 -21 q 179 36 247 -21 q 108 176 111 93 z "},"ş":{"ha":599,"x_min":50,"x_max":554,"o":"m 149 -274 l 186 -192 q 283 -226 238 -226 q 381 -169 381 -226 q 353 -126 381 -139 q 322 -121 340 -121 q 274 -133 304 -121 l 222 -157 l 192 -108 l 261 -18 q 108 47 163 -7 q 50 176 53 101 l 147 181 q 199 101 153 129 q 304 72 244 72 q 408 99 364 72 q 451 177 451 126 q 414 258 451 228 q 322 305 376 288 q 213 342 268 322 q 117 403 158 361 q 65 522 65 451 q 122 652 65 592 q 304 713 178 713 q 388 702 349 713 q 443 682 426 692 l 460 672 l 428 585 q 311 619 383 619 q 203 592 239 619 q 168 524 168 565 q 213 451 168 478 q 313 407 257 425 q 423 367 368 389 q 516 297 478 344 q 554 174 554 250 q 498 42 554 99 q 331 -19 442 -14 l 296 -68 q 354 -58 315 -58 q 426 -87 393 -58 q 460 -178 460 -117 q 406 -270 460 -239 q 288 -301 351 -301 q 149 -274 225 -301 z "},"Š":{"ha":779,"x_min":51,"x_max":711,"o":"m 51 247 l 156 254 q 223 133 163 185 q 380 82 283 82 q 540 127 476 82 q 603 258 603 172 q 564 367 603 322 q 467 436 525 413 q 340 488 408 460 q 213 542 271 515 q 115 621 154 568 q 76 747 76 674 q 157 915 76 844 q 389 986 238 986 q 592 944 504 986 q 561 850 592 942 q 384 888 475 888 q 238 849 293 888 q 182 743 182 810 q 289 615 182 663 q 392 574 336 594 q 504 529 449 554 q 606 472 560 504 q 682 388 653 440 q 711 268 711 336 q 630 63 711 140 q 388 -15 549 -15 q 141 65 228 -15 q 51 247 54 144 m 617 1283 l 419 1088 l 214 1283 l 278 1338 l 418 1203 l 551 1338 l 617 1283 z "},"š":{"ha":661,"x_min":108,"x_max":613,"o":"m 108 176 l 206 181 q 257 101 211 129 q 363 72 303 72 q 466 99 422 72 q 510 177 510 126 q 472 258 510 228 q 381 305 435 288 q 272 342 326 322 q 175 403 217 361 q 124 522 124 451 q 180 652 124 592 q 363 713 236 713 q 446 702 407 713 q 501 682 485 692 l 518 672 l 486 585 q 369 619 442 619 q 262 592 297 619 q 226 524 226 565 q 271 451 226 478 q 371 407 315 425 q 481 367 426 389 q 574 297 536 344 q 613 172 613 250 q 550 37 613 94 q 367 -21 488 -21 q 179 36 247 -21 q 108 176 111 93 m 563 1015 l 365 819 l 160 1015 l 224 1069 l 364 935 l 497 1069 l 563 1015 z "},"Ţ":{"ha":558,"x_min":0,"x_max":558,"o":"m 325 0 l 225 0 l 225 878 l 0 878 l 0 972 l 558 972 l 558 878 l 325 878 l 325 0 m 243 -269 l 175 -231 q 267 -157 235 -196 l 251 -153 q 222 -105 221 -135 q 238 -61 222 -75 q 265 -47 254 -47 q 317 -67 300 -47 q 333 -108 333 -87 q 243 -269 333 -192 z "},"ţ":{"ha":371,"x_min":61,"x_max":339,"o":"m 278 60 l 249 -18 q 121 49 160 -1 q 82 183 82 99 l 82 972 l 183 972 l 183 696 l 339 696 l 306 601 l 183 601 l 183 183 q 278 60 183 85 m 129 -269 l 61 -231 q 153 -157 121 -196 l 138 -153 q 108 -105 107 -135 q 124 -61 108 -75 q 151 -47 140 -47 q 203 -67 186 -47 q 219 -108 219 -87 q 129 -269 219 -192 z "},"Ť":{"ha":558,"x_min":0,"x_max":558,"o":"m 325 0 l 225 0 l 225 878 l 0 878 l 0 972 l 558 972 l 558 878 l 325 878 l 325 0 m 478 1215 l 281 1019 l 75 1215 l 139 1269 l 279 1135 l 413 1269 l 478 1215 z "},"ť":{"ha":497,"x_min":61,"x_max":464,"o":"m 350 60 l 321 -18 q 193 49 232 -1 q 154 183 154 99 l 154 972 l 256 972 l 256 696 l 411 696 l 378 601 l 256 601 l 256 183 q 350 60 256 85 m 464 1215 l 267 1019 l 61 1215 l 125 1269 l 265 1135 l 399 1269 l 464 1215 z "},"Ŧ":{"ha":558,"x_min":0,"x_max":558,"o":"m 325 0 l 225 0 l 225 878 l 0 878 l 0 972 l 558 972 l 558 878 l 325 878 l 325 0 m 426 1014 l 125 1014 l 125 1108 l 426 1108 l 426 1014 z "},"ŧ":{"ha":511,"x_min":108,"x_max":463,"o":"m 401 60 l 372 -18 q 244 49 283 -1 q 206 183 206 99 l 206 400 l 108 400 l 108 497 l 206 497 l 206 972 l 307 972 l 307 696 l 463 696 l 429 601 l 307 601 l 307 497 l 433 497 l 433 400 l 307 400 l 307 183 q 401 60 307 85 z "},"Ũ":{"ha":786,"x_min":103,"x_max":688,"o":"m 588 269 l 588 974 l 688 974 l 688 258 q 662 131 688 185 q 592 47 636 76 q 500 4 549 18 q 396 -10 451 -10 q 291 4 340 -10 q 198 47 242 18 q 128 131 154 76 q 103 258 103 185 l 103 974 l 203 974 l 203 269 q 255 133 203 183 q 395 83 307 83 q 535 133 483 83 q 588 269 588 183 m 499 1103 q 596 1151 553 1103 l 638 1086 q 504 1013 575 1013 q 448 1026 479 1013 q 382 1055 417 1039 q 313 1071 347 1071 q 207 1021 254 1071 l 167 1086 q 306 1160 232 1160 q 362 1147 331 1160 q 428 1119 393 1135 q 499 1103 464 1103 z "},"ũ":{"ha":675,"x_min":108,"x_max":626,"o":"m 626 0 l 531 0 l 531 51 q 369 -15 471 -15 q 108 239 108 -15 l 108 696 l 208 696 l 208 239 q 369 79 208 79 q 526 240 526 79 l 526 696 l 626 696 l 626 0 m 467 829 q 564 878 521 829 l 606 813 q 472 739 543 739 q 416 752 447 739 q 350 781 385 765 q 281 797 315 797 q 175 747 222 797 l 135 813 q 274 886 200 886 q 330 874 299 886 q 397 845 361 861 q 467 829 432 829 z "},"Ū":{"ha":786,"x_min":103,"x_max":688,"o":"m 588 269 l 588 974 l 688 974 l 688 258 q 662 131 688 185 q 592 47 636 76 q 500 4 549 18 q 396 -10 451 -10 q 291 4 340 -10 q 198 47 242 18 q 128 131 154 76 q 103 258 103 185 l 103 974 l 203 974 l 203 269 q 255 133 203 183 q 395 83 307 83 q 535 133 483 83 q 588 269 588 183 m 543 1014 l 242 1014 l 242 1108 l 543 1108 l 543 1014 z "},"ū":{"ha":675,"x_min":108,"x_max":626,"o":"m 626 0 l 531 0 l 531 51 q 369 -15 471 -15 q 108 239 108 -15 l 108 696 l 208 696 l 208 239 q 369 79 208 79 q 526 240 526 79 l 526 696 l 626 696 l 626 0 m 511 747 l 210 747 l 210 842 l 511 842 l 511 747 z "},"Ŭ":{"ha":786,"x_min":103,"x_max":688,"o":"m 588 269 l 588 974 l 688 974 l 688 258 q 662 131 688 185 q 592 47 636 76 q 500 4 549 18 q 396 -10 451 -10 q 291 4 340 -10 q 198 47 242 18 q 128 131 154 76 q 103 258 103 185 l 103 974 l 203 974 l 203 269 q 255 133 203 183 q 395 83 307 83 q 535 133 483 83 q 588 269 588 183 m 551 1169 l 551 1163 q 505 1051 551 1097 q 394 1006 458 1006 q 284 1051 331 1006 q 238 1163 238 1097 l 238 1169 l 315 1169 l 315 1163 q 338 1105 315 1128 q 394 1082 361 1082 q 451 1105 428 1082 q 474 1163 474 1128 l 474 1169 l 551 1169 z "},"ŭ":{"ha":675,"x_min":108,"x_max":626,"o":"m 532 907 l 532 900 q 485 790 532 836 q 375 743 439 743 q 265 790 311 743 q 218 900 218 836 l 218 907 l 296 907 l 296 900 q 319 842 296 865 q 375 819 342 819 q 431 842 408 819 q 454 900 454 865 l 454 907 l 532 907 m 626 0 l 531 0 l 531 51 q 369 -15 471 -15 q 108 239 108 -15 l 108 696 l 208 696 l 208 239 q 369 79 208 79 q 526 240 526 79 l 526 696 l 626 696 l 626 0 z "},"Ů":{"ha":786,"x_min":103,"x_max":688,"o":"m 588 269 l 588 974 l 688 974 l 688 258 q 662 131 688 185 q 592 47 636 76 q 500 4 549 18 q 396 -10 451 -10 q 291 4 340 -10 q 198 47 242 18 q 128 131 154 76 q 103 258 103 185 l 103 974 l 203 974 l 203 269 q 255 133 203 183 q 395 83 307 83 q 535 133 483 83 q 588 269 588 183 m 338 1013 q 350 1002 338 1013 q 394 990 361 990 q 450 1013 428 990 q 472 1069 472 1036 q 450 1125 472 1103 q 394 1147 428 1147 q 338 1125 361 1147 q 315 1069 315 1103 q 338 1013 315 1036 m 503 960 q 481 938 503 960 q 394 915 458 915 q 285 960 331 915 q 240 1069 240 1006 q 285 1178 240 1133 q 394 1224 331 1224 q 503 1178 458 1224 q 549 1069 549 1133 q 503 960 549 1006 z "},"ů":{"ha":675,"x_min":108,"x_max":626,"o":"m 626 0 l 531 0 l 531 51 q 369 -15 471 -15 q 108 239 108 -15 l 108 696 l 208 696 l 208 239 q 369 79 208 79 q 526 240 526 79 l 526 696 l 626 696 l 626 0 m 319 760 q 330 749 319 760 q 375 738 342 738 q 431 760 408 738 q 453 817 453 783 q 431 872 453 850 q 375 894 408 894 q 319 872 342 894 q 296 817 296 850 q 319 760 296 783 m 484 708 q 461 685 484 708 q 375 663 439 663 q 266 708 311 663 q 221 817 221 753 q 266 926 221 881 q 375 971 311 971 q 484 926 439 971 q 529 817 529 881 q 484 708 529 753 z "},"Ű":{"ha":786,"x_min":103,"x_max":688,"o":"m 588 269 l 588 974 l 688 974 l 688 258 q 662 131 688 185 q 592 47 636 76 q 500 4 549 18 q 396 -10 451 -10 q 291 4 340 -10 q 198 47 242 18 q 128 131 154 76 q 103 258 103 185 l 103 974 l 203 974 l 203 269 q 255 133 203 183 q 395 83 307 83 q 535 133 483 83 q 588 269 588 183 m 510 1017 l 436 1017 l 504 1176 q 558 1213 521 1213 q 576 1210 568 1213 q 608 1163 608 1197 q 597 1132 608 1147 l 510 1017 m 342 1017 l 268 1017 l 336 1176 q 390 1213 353 1213 q 408 1210 400 1213 q 440 1163 440 1197 q 429 1132 440 1147 l 342 1017 z "},"ű":{"ha":675,"x_min":108,"x_max":626,"o":"m 626 0 l 531 0 l 531 51 q 369 -15 471 -15 q 108 239 108 -15 l 108 696 l 208 696 l 208 239 q 369 79 208 79 q 526 240 526 79 l 526 696 l 626 696 l 626 0 m 472 754 l 399 754 l 467 914 q 521 950 483 950 q 539 947 531 950 q 571 900 571 935 q 560 869 571 885 l 472 754 m 306 754 l 232 754 l 300 914 q 354 950 317 950 q 372 947 364 950 q 404 900 404 935 q 393 869 404 885 l 306 754 z "},"Ų":{"ha":786,"x_min":103,"x_max":688,"o":"m 449 -168 l 506 -226 q 365 -296 461 -296 q 281 -269 324 -296 q 240 -176 239 -242 q 360 -8 240 -89 q 176 64 250 0 q 103 258 103 128 l 103 974 l 203 974 l 203 269 q 255 133 203 183 q 395 83 307 83 q 535 133 483 83 q 588 269 588 183 l 588 974 l 688 974 l 688 258 q 619 70 688 135 q 449 -6 551 6 q 331 -208 274 -150 q 369 -222 346 -222 q 449 -168 418 -222 z "},"ų":{"ha":668,"x_min":50,"x_max":615,"o":"m 558 -168 l 615 -226 q 475 -296 571 -296 q 391 -269 433 -296 q 350 -176 349 -242 q 482 0 350 -85 l 472 0 l 472 51 q 311 -15 413 -15 q 50 239 50 -15 l 50 696 l 150 696 l 150 239 q 311 79 150 79 q 468 240 468 79 l 468 696 l 568 696 l 568 0 l 567 0 q 428 -168 429 -114 q 441 -208 426 -193 q 479 -222 456 -222 q 558 -168 528 -222 z "},"Ÿ":{"ha":772,"x_min":78,"x_max":694,"o":"m 531 -15 l 503 56 q 568 102 543 68 q 593 217 593 136 l 593 378 q 388 319 525 319 q 164 395 250 319 q 78 613 78 471 l 78 972 l 179 972 l 179 607 q 238 466 179 514 q 384 418 296 418 q 526 448 472 418 q 593 532 579 478 l 593 972 l 694 972 l 694 217 q 531 -15 694 6 m 318 1101 q 326 1094 318 1101 q 333 1065 333 1086 q 318 1030 333 1044 q 282 1015 303 1015 q 247 1030 261 1015 q 232 1065 232 1044 q 247 1101 232 1086 q 282 1117 261 1117 q 318 1101 303 1117 m 525 1030 q 517 1023 525 1030 q 489 1015 510 1015 q 453 1030 468 1015 q 439 1066 439 1044 q 453 1102 439 1088 q 489 1117 468 1117 q 525 1102 510 1117 q 540 1066 540 1088 q 525 1030 540 1044 z "},"Ź":{"ha":764,"x_min":43,"x_max":719,"o":"m 719 0 l 43 0 l 43 90 l 585 876 l 61 876 l 61 972 l 711 972 l 711 878 l 169 93 l 719 93 l 719 0 m 357 1090 l 283 1090 l 351 1250 q 406 1286 368 1286 q 424 1283 415 1286 q 456 1236 456 1271 q 444 1206 456 1221 l 357 1090 z "},"ź":{"ha":667,"x_min":108,"x_max":618,"o":"m 618 0 l 108 0 l 108 92 l 463 603 l 121 603 l 121 696 l 593 696 l 593 606 l 236 93 l 618 93 l 618 0 m 385 747 l 311 747 l 379 907 q 433 943 396 943 q 451 940 443 943 q 483 893 483 928 q 472 863 483 878 l 385 747 z "},"Ż":{"ha":764,"x_min":43,"x_max":719,"o":"m 719 0 l 43 0 l 43 90 l 585 876 l 61 876 l 61 972 l 711 972 l 711 878 l 169 93 l 719 93 l 719 0 m 439 1026 q 431 1017 439 1026 q 400 1008 422 1008 q 360 1026 378 1008 q 342 1067 342 1044 q 359 1106 342 1089 q 399 1122 376 1122 q 439 1106 422 1122 q 456 1066 456 1089 q 439 1026 456 1043 z "},"ż":{"ha":667,"x_min":108,"x_max":618,"o":"m 618 0 l 108 0 l 108 92 l 463 603 l 121 603 l 121 696 l 593 696 l 593 606 l 236 93 l 618 93 l 618 0 m 418 801 q 418 790 418 801 q 401 760 418 778 q 362 743 385 743 q 322 760 339 743 q 304 801 304 778 q 322 840 304 824 q 363 857 339 857 q 402 841 386 857 q 418 801 418 825 z "},"Ž":{"ha":764,"x_min":43,"x_max":719,"o":"m 719 0 l 43 0 l 43 90 l 585 876 l 61 876 l 61 972 l 711 972 l 711 878 l 169 93 l 719 93 l 719 0 m 617 1283 l 419 1088 l 214 1283 l 278 1338 l 418 1203 l 551 1338 l 617 1283 z "},"ž":{"ha":667,"x_min":108,"x_max":618,"o":"m 618 0 l 108 0 l 108 92 l 463 603 l 121 603 l 121 696 l 593 696 l 593 606 l 236 93 l 618 93 l 618 0 m 600 1015 l 403 819 l 197 1015 l 261 1069 l 401 935 l 535 1069 l 600 1015 z "},"Ș":{"ha":779,"x_min":51,"x_max":711,"o":"m 51 247 l 156 254 q 223 133 163 185 q 380 82 283 82 q 540 127 476 82 q 603 258 603 172 q 564 367 603 322 q 467 436 525 413 q 340 488 408 460 q 213 542 271 515 q 115 621 154 568 q 76 747 76 674 q 157 915 76 844 q 389 986 238 986 q 592 944 504 986 q 561 850 592 942 q 384 888 475 888 q 238 849 293 888 q 182 743 182 810 q 289 615 182 663 q 392 574 336 594 q 504 529 449 554 q 606 472 560 504 q 682 388 653 440 q 711 268 711 336 q 630 63 711 140 q 388 -15 549 -15 q 141 65 228 -15 q 51 247 54 144 m 347 -269 l 279 -231 q 371 -157 339 -196 l 356 -153 q 326 -105 325 -135 q 342 -61 326 -75 q 369 -47 358 -47 q 421 -67 404 -47 q 438 -108 438 -87 q 347 -269 438 -192 z "},"ș":{"ha":599,"x_min":50,"x_max":554,"o":"m 50 176 l 147 181 q 199 101 153 129 q 304 72 244 72 q 408 99 364 72 q 451 177 451 126 q 414 258 451 228 q 322 305 376 288 q 213 342 268 322 q 117 403 158 361 q 65 522 65 451 q 122 652 65 592 q 304 713 178 713 q 388 702 349 713 q 443 682 426 692 l 460 672 l 428 585 q 311 619 383 619 q 203 592 239 619 q 168 524 168 565 q 213 451 168 478 q 313 407 257 425 q 423 367 368 389 q 516 297 478 344 q 554 172 554 250 q 492 37 554 94 q 309 -21 429 -21 q 121 36 189 -21 q 50 176 53 93 m 265 -271 l 197 -232 q 289 -158 257 -197 l 274 -154 q 244 -106 243 -136 q 260 -62 244 -76 q 288 -49 276 -49 q 339 -69 322 -49 q 356 -110 356 -89 q 265 -271 356 -193 z "},"ˆ":{"ha":539,"x_min":64,"x_max":467,"o":"m 467 874 l 401 819 l 268 956 l 128 819 l 64 874 l 269 1069 l 467 874 z "},"ˇ":{"ha":539,"x_min":64,"x_max":467,"o":"m 467 1015 l 269 819 l 64 1015 l 128 1069 l 268 935 l 401 1069 l 467 1015 z "},"˘":{"ha":450,"x_min":64,"x_max":378,"o":"m 378 972 l 378 965 q 332 854 378 900 q 221 808 286 808 q 110 854 156 808 q 64 965 64 900 l 64 972 l 142 972 l 142 965 q 165 908 142 931 q 221 885 188 885 q 277 908 254 885 q 300 965 300 931 l 300 972 l 378 972 z "},"˙":{"ha":114,"x_min":0,"x_max":114,"o":"m 97 910 q 89 902 97 910 q 58 893 81 893 q 18 910 36 893 q 0 951 0 928 q 17 990 0 974 q 58 1007 35 1007 q 97 991 81 1007 q 114 951 114 975 q 97 910 114 928 z "},"˚":{"ha":308,"x_min":0,"x_max":308,"o":"m 98 863 q 109 852 98 863 q 154 840 121 840 q 210 863 188 840 q 232 919 232 886 q 210 975 232 953 q 154 997 188 997 q 98 975 121 997 q 75 919 75 953 q 98 863 75 886 m 263 810 q 241 788 263 810 q 154 765 218 765 q 45 810 90 765 q 0 919 0 856 q 45 1028 0 983 q 154 1074 90 1074 q 263 1028 218 1074 q 308 919 308 983 q 263 810 308 856 z "},"˛":{"ha":308,"x_min":101,"x_max":368,"o":"m 311 -164 l 368 -222 q 228 -292 324 -292 q 144 -265 186 -292 q 103 -172 101 -237 q 235 4 103 -81 l 319 4 q 181 -164 182 -110 q 194 -203 179 -189 q 232 -218 208 -218 q 311 -164 281 -218 z "},"˜":{"ha":628,"x_min":108,"x_max":579,"o":"m 440 919 q 538 968 494 919 l 579 903 q 446 829 517 829 q 390 842 421 829 q 324 872 358 856 q 254 888 289 888 q 149 838 196 888 l 108 903 q 247 976 174 976 q 303 964 272 976 q 370 935 335 951 q 440 919 406 919 z "},"˝":{"ha":340,"x_min":0,"x_max":340,"o":"m 242 790 l 168 790 l 236 950 q 290 986 253 986 q 308 983 300 986 q 340 936 340 971 q 329 906 340 921 l 242 790 m 74 789 l 0 789 l 68 949 q 122 985 85 985 q 140 982 132 985 q 172 935 172 969 q 161 904 172 919 l 74 789 z "},"΅":{"ha":465,"x_min":108,"x_max":417,"o":"m 186 936 q 179 929 186 936 q 154 922 172 922 q 122 936 136 922 q 108 968 108 950 q 122 1000 108 986 q 154 1014 136 1014 q 186 1000 172 1014 q 200 968 200 986 q 186 936 200 950 m 403 936 q 396 929 403 936 q 371 922 389 922 q 339 936 353 922 q 325 968 325 950 q 339 1000 325 986 q 371 1014 353 1014 q 403 1000 389 1014 q 417 968 417 986 q 403 936 417 950 m 297 1015 l 224 1015 l 292 1175 q 346 1211 308 1211 q 364 1208 356 1211 q 396 1161 396 1196 q 385 1131 396 1146 l 297 1015 z "},"Ά":{"ha":860,"x_min":114,"x_max":811,"o":"m 811 0 l 699 0 l 603 314 l 314 314 l 222 0 l 114 0 l 400 972 l 515 972 l 811 0 m 578 417 l 457 811 l 340 417 l 578 417 m 188 789 l 114 789 l 182 949 q 236 985 199 985 q 254 982 246 985 q 286 935 286 969 q 275 904 286 919 l 188 789 z "},"Έ":{"ha":853,"x_min":108,"x_max":804,"o":"m 182 789 l 108 789 l 176 949 q 231 985 193 985 q 249 982 240 985 q 281 935 281 969 q 269 904 281 919 l 182 789 m 801 0 l 340 0 l 340 972 l 804 972 l 804 876 l 440 876 l 440 574 l 683 574 l 651 476 l 440 476 l 440 90 l 801 90 l 801 0 z "},"Ή":{"ha":989,"x_min":108,"x_max":940,"o":"m 182 789 l 108 789 l 176 949 q 231 985 193 985 q 249 982 240 985 q 281 935 281 969 q 269 904 281 919 l 182 789 m 940 0 l 840 0 l 840 476 l 443 476 l 443 0 l 343 0 l 343 972 l 443 972 l 443 574 l 840 574 l 840 972 l 940 972 l 940 0 z "},"Ί":{"ha":565,"x_min":108,"x_max":517,"o":"m 517 0 l 417 0 l 417 878 l 325 881 l 325 972 l 517 972 l 517 0 m 182 789 l 108 789 l 176 949 q 231 985 193 985 q 249 982 240 985 q 281 935 281 969 q 269 904 281 919 l 182 789 z "},"Ό":{"ha":903,"x_min":108,"x_max":854,"o":"m 854 703 l 854 257 q 769 51 854 117 q 564 -15 683 -15 q 358 51 444 -15 q 271 257 271 117 l 271 704 q 349 921 271 847 q 565 994 428 994 q 778 917 703 994 q 854 703 854 839 m 754 268 l 754 697 q 705 843 754 793 q 563 893 656 893 q 371 697 371 893 l 371 265 q 424 130 371 176 q 563 83 476 83 q 701 130 649 83 q 754 268 754 176 m 182 789 l 108 789 l 176 949 q 231 985 193 985 q 249 982 240 985 q 281 935 281 969 q 269 904 281 919 l 182 789 z "},"Ύ":{"ha":994,"x_min":108,"x_max":946,"o":"m 182 789 l 108 789 l 176 949 q 231 985 193 985 q 249 982 240 985 q 281 935 281 969 q 269 904 281 919 l 182 789 m 782 -15 l 754 56 q 819 102 794 68 q 844 217 844 136 l 844 378 q 638 319 775 319 q 415 395 501 319 q 329 613 329 471 l 329 972 l 431 972 l 431 607 q 489 466 431 514 q 635 418 547 418 q 777 448 724 418 q 844 532 831 478 l 844 972 l 946 972 l 946 217 q 782 -15 946 6 z "},"Ώ":{"ha":1001,"x_min":108,"x_max":953,"o":"m 953 0 l 636 0 l 636 92 q 680 97 661 92 q 720 108 699 103 q 751 118 742 113 q 776 133 760 124 q 801 156 793 143 q 818 185 808 168 q 835 272 835 214 l 835 694 q 789 833 835 783 q 667 883 743 883 l 526 883 q 402 835 447 883 q 357 694 357 788 l 357 272 q 370 191 357 214 q 391 156 383 168 q 415 133 399 143 q 441 118 432 124 q 472 108 450 113 q 500 100 493 103 q 556 92 531 92 l 556 0 l 239 0 l 263 92 l 333 92 q 257 272 257 147 l 257 699 q 322 904 257 826 q 518 982 388 982 l 674 982 q 869 904 804 982 q 935 699 935 826 l 935 272 q 913 160 935 200 q 854 92 892 121 l 929 92 l 953 0 m 182 789 l 108 789 l 176 949 q 231 985 193 985 q 249 982 240 985 q 281 935 281 969 q 269 904 281 919 l 182 789 z "},"ΐ":{"ha":501,"x_min":108,"x_max":453,"o":"m 329 0 l 229 0 l 229 696 l 329 696 l 329 0 m 314 801 l 242 801 l 310 961 q 364 997 326 997 q 411 963 403 997 q 414 944 414 956 q 401 918 414 933 l 314 801 m 453 803 q 453 792 453 803 q 438 767 453 782 q 402 751 424 751 q 366 767 381 751 q 351 803 351 782 q 366 838 351 824 q 402 853 381 853 q 438 838 424 853 q 453 803 453 824 m 194 767 q 187 759 194 767 q 158 751 179 751 q 123 767 138 751 q 108 803 108 782 q 123 838 108 824 q 158 853 138 853 q 194 838 179 853 q 210 803 210 824 q 194 767 210 782 z "},"Α":{"ha":726,"x_min":21,"x_max":718,"o":"m 718 0 l 606 0 l 510 314 l 221 314 l 129 0 l 21 0 l 307 972 l 422 972 l 718 0 m 485 417 l 364 811 l 247 417 l 485 417 z "},"Β":{"ha":758,"x_min":108,"x_max":710,"o":"m 424 0 l 108 0 l 108 972 l 408 972 q 591 913 522 972 q 660 729 660 853 q 568 543 660 606 q 567 540 567 542 l 567 539 q 669 449 628 511 q 710 289 710 388 q 672 131 710 201 q 424 0 606 0 m 208 574 l 388 574 q 550 726 550 574 q 385 875 550 875 l 208 875 l 208 574 m 208 93 l 401 93 q 547 136 494 93 q 599 282 599 179 q 547 431 599 385 q 421 476 494 476 l 208 476 l 208 93 z "},"Γ":{"ha":621,"x_min":108,"x_max":572,"o":"m 208 0 l 108 0 l 108 972 l 572 972 l 572 875 l 208 875 l 208 0 z "},"Δ":{"ha":731,"x_min":21,"x_max":722,"o":"m 722 0 l 21 0 l 318 972 l 415 972 l 722 0 m 586 90 l 368 797 l 154 90 l 586 90 z "},"Ε":{"ha":621,"x_min":108,"x_max":572,"o":"m 569 0 l 108 0 l 108 972 l 572 972 l 572 876 l 208 876 l 208 574 l 451 574 l 419 476 l 208 476 l 208 90 l 569 90 l 569 0 z "},"Ζ":{"ha":833,"x_min":108,"x_max":785,"o":"m 785 0 l 108 0 l 108 90 l 650 876 l 126 876 l 126 972 l 776 972 l 776 878 l 235 93 l 785 93 l 785 0 z "},"Η":{"ha":807,"x_min":111,"x_max":708,"o":"m 708 0 l 608 0 l 608 476 l 211 476 l 211 0 l 111 0 l 111 972 l 211 972 l 211 574 l 608 574 l 608 972 l 708 972 l 708 0 z "},"Θ":{"ha":803,"x_min":171,"x_max":754,"o":"m 754 703 l 754 257 q 669 51 754 117 q 464 -15 583 -15 q 258 51 344 -15 q 171 257 171 117 l 171 704 q 249 921 171 847 q 465 994 328 994 q 678 917 603 994 q 754 703 754 839 m 654 519 l 654 697 q 605 843 654 793 q 463 893 556 893 q 271 697 271 893 l 271 519 l 654 519 m 654 268 l 654 421 l 271 421 l 271 265 q 324 130 271 176 q 463 83 376 83 q 601 130 549 83 q 654 268 654 176 z "},"Ι":{"ha":401,"x_min":110,"x_max":301,"o":"m 301 0 l 201 0 l 201 878 l 110 881 l 110 972 l 301 972 l 301 0 z "},"Κ":{"ha":731,"x_min":108,"x_max":682,"o":"m 682 0 l 560 0 l 261 451 l 213 374 l 213 0 l 108 0 l 108 974 l 213 974 l 213 549 l 497 974 l 615 974 l 324 543 l 682 0 z "},"Λ":{"ha":731,"x_min":21,"x_max":722,"o":"m 722 0 l 611 0 l 368 785 l 129 0 l 21 0 l 321 972 l 415 972 l 722 0 z "},"Μ":{"ha":954,"x_min":111,"x_max":856,"o":"m 856 0 l 756 0 l 756 674 l 529 0 l 435 0 l 211 674 l 211 0 l 111 0 l 111 972 l 211 972 l 482 182 l 756 972 l 856 972 l 856 0 z "},"Ν":{"ha":893,"x_min":111,"x_max":794,"o":"m 794 0 l 693 0 l 211 778 l 211 0 l 111 0 l 111 972 l 211 972 l 693 196 l 693 972 l 794 972 l 794 0 z "},"Ξ":{"ha":864,"x_min":108,"x_max":815,"o":"m 651 476 l 285 476 l 285 574 l 651 574 l 651 476 m 732 876 l 318 876 q 182 790 211 876 l 108 826 q 179 939 131 904 q 310 974 228 974 l 761 974 l 732 876 m 614 0 l 163 0 l 196 93 l 597 93 q 735 183 704 93 l 815 147 q 744 35 793 69 q 614 0 696 0 z "},"Ο":{"ha":754,"x_min":86,"x_max":669,"o":"m 669 703 l 669 257 q 584 51 669 117 q 379 -15 499 -15 q 173 51 260 -15 q 86 257 86 117 l 86 704 q 165 921 86 847 q 381 994 243 994 q 594 917 518 994 q 669 703 669 839 m 569 268 l 569 697 q 520 843 569 793 q 378 893 471 893 q 186 697 186 893 l 186 265 q 239 130 186 176 q 378 83 292 83 q 517 130 464 83 q 569 268 569 176 z "},"Π":{"ha":807,"x_min":111,"x_max":708,"o":"m 708 0 l 608 0 l 608 872 l 211 872 l 211 0 l 111 0 l 111 972 l 708 972 l 708 0 z "},"Ρ":{"ha":760,"x_min":108,"x_max":711,"o":"m 208 417 l 440 417 q 525 436 490 417 q 576 478 560 456 q 601 542 592 500 q 610 604 610 583 q 611 664 611 625 q 435 875 611 875 l 208 875 l 208 417 m 208 0 l 108 0 l 108 972 l 443 972 q 645 888 579 972 q 711 665 711 803 q 708 581 711 617 q 691 492 706 546 q 651 405 676 439 q 575 345 626 371 q 453 319 524 319 l 208 319 l 208 0 z "},"Σ":{"ha":807,"x_min":108,"x_max":758,"o":"m 557 0 l 108 0 l 422 533 l 131 975 l 725 975 l 693 876 l 314 876 l 542 538 l 276 92 l 540 92 q 678 183 647 92 l 758 147 q 688 35 736 69 q 557 0 639 0 z "},"Τ":{"ha":715,"x_min":108,"x_max":667,"o":"m 433 0 l 333 0 l 333 878 l 108 878 l 108 972 l 667 972 l 667 878 l 433 878 l 433 0 z "},"Υ":{"ha":772,"x_min":83,"x_max":700,"o":"m 536 -15 l 508 56 q 574 102 549 68 q 599 217 599 136 l 599 378 q 393 319 531 319 q 169 395 256 319 q 83 613 83 471 l 83 972 l 185 972 l 185 607 q 243 466 185 514 q 390 418 301 418 q 531 448 478 418 q 599 532 585 478 l 599 972 l 700 972 l 700 217 q 536 -15 700 6 z "},"Φ":{"ha":889,"x_min":108,"x_max":840,"o":"m 522 -49 l 419 -31 l 419 36 l 369 36 q 108 313 108 36 l 108 718 q 269 981 108 929 l 322 901 q 238 844 267 886 q 208 718 208 801 l 208 314 q 369 121 208 121 l 419 121 l 419 840 q 469 949 424 910 q 581 988 514 988 q 771 912 701 988 q 840 710 840 836 l 840 313 q 579 36 840 36 l 522 36 l 522 -49 m 739 314 l 739 696 q 697 842 739 793 q 597 890 656 890 q 522 807 522 890 l 522 121 l 579 121 q 739 314 739 121 z "},"Χ":{"ha":890,"x_min":108,"x_max":842,"o":"m 842 0 l 715 0 l 474 388 l 232 0 l 108 0 l 414 488 l 132 972 l 247 972 l 475 590 l 703 972 l 819 972 l 536 492 l 842 0 z "},"Ψ":{"ha":878,"x_min":82,"x_max":814,"o":"m 496 0 l 394 0 l 393 294 l 343 294 q 147 366 211 294 q 82 564 82 438 l 82 972 l 182 972 l 182 568 q 343 383 182 383 l 393 383 l 393 972 l 496 972 l 496 383 l 553 383 q 714 569 714 383 l 714 783 q 703 874 714 839 q 685 918 693 910 q 650 951 676 926 l 736 985 q 792 920 774 961 q 812 850 810 879 q 814 763 814 821 l 814 564 q 749 366 814 438 q 553 294 685 294 l 496 294 l 496 0 z "},"Ϊ":{"ha":521,"x_min":114,"x_max":422,"o":"m 200 1101 q 208 1094 200 1101 q 215 1065 215 1086 q 200 1030 215 1044 q 164 1015 185 1015 q 128 1030 143 1015 q 114 1065 114 1044 q 128 1101 114 1086 q 164 1117 143 1117 q 200 1101 185 1117 m 407 1030 q 399 1023 407 1030 q 371 1015 392 1015 q 335 1030 350 1015 q 321 1066 321 1044 q 335 1102 321 1088 q 371 1117 350 1117 q 407 1102 392 1117 q 422 1066 422 1088 q 407 1030 422 1044 m 318 0 l 218 0 l 218 878 l 126 881 l 126 972 l 318 972 l 318 0 z "},"Ϋ":{"ha":708,"x_min":4,"x_max":660,"o":"m 256 1099 q 263 1091 256 1099 q 271 1063 271 1083 q 256 1027 271 1042 q 219 1013 240 1013 q 184 1027 199 1013 q 169 1063 169 1042 q 184 1099 169 1083 q 219 1114 199 1114 q 256 1099 240 1114 m 463 1027 q 455 1020 463 1027 q 426 1013 447 1013 q 391 1027 406 1013 q 376 1063 376 1042 q 391 1099 376 1085 q 426 1114 406 1114 q 463 1099 447 1114 q 478 1063 478 1085 q 463 1027 478 1042 m 382 0 l 282 0 l 282 461 l 4 972 l 114 972 l 331 575 l 550 972 l 660 972 l 382 464 l 382 0 z "},"ά":{"ha":706,"x_min":108,"x_max":657,"o":"m 310 704 q 518 657 414 704 l 540 707 l 625 675 q 615 540 615 585 l 615 107 q 657 49 624 68 l 585 1 q 563 5 579 1 q 511 3 547 8 q 324 -7 401 -17 q 206 26 246 3 q 137 103 165 50 q 108 235 108 156 l 108 492 q 152 641 108 588 q 263 701 196 694 q 310 704 286 704 m 514 99 l 514 564 q 324 611 397 611 q 207 488 207 611 l 207 246 q 281 103 207 136 q 378 85 318 85 q 514 99 438 85 m 403 747 l 329 747 l 397 907 q 451 943 414 943 q 469 940 461 943 q 501 893 501 928 q 490 863 501 878 l 403 747 z "},"έ":{"ha":636,"x_min":108,"x_max":588,"o":"m 386 747 l 313 747 l 381 907 q 435 943 397 943 q 453 940 444 943 q 485 893 485 928 q 474 863 485 878 l 386 747 m 364 619 q 238 522 238 619 q 268 450 238 482 q 351 418 299 418 l 489 418 l 457 321 l 342 321 q 243 291 278 321 q 208 205 208 261 q 249 115 208 149 q 351 82 289 82 q 533 114 458 82 l 558 125 l 588 32 q 362 -15 479 -15 q 181 42 244 -15 q 108 211 108 106 q 208 386 108 340 q 156 448 176 404 q 135 519 135 492 q 210 672 135 625 q 339 710 268 710 q 490 689 413 710 l 492 599 q 364 619 429 619 z "},"ή":{"ha":669,"x_min":108,"x_max":621,"o":"m 419 747 l 346 747 l 414 907 q 468 943 431 943 q 486 940 478 943 q 518 893 518 928 q 507 863 518 878 l 419 747 m 204 661 q 376 707 265 707 q 503 682 449 707 q 621 481 621 628 l 621 -292 l 522 -258 l 522 476 q 473 587 522 556 q 356 618 424 618 q 208 574 289 618 l 208 0 l 108 0 l 108 696 l 204 696 l 204 661 z "},"ί":{"ha":349,"x_min":108,"x_max":300,"o":"m 201 747 l 128 747 l 196 907 q 250 943 213 943 q 268 940 260 943 q 300 893 300 928 q 289 863 300 878 l 201 747 m 208 0 l 108 0 l 108 696 l 208 696 l 208 0 z "},"ΰ":{"ha":685,"x_min":108,"x_max":636,"o":"m 283 767 q 275 759 283 767 q 247 751 268 751 q 212 767 226 751 q 197 803 197 782 q 212 838 197 824 q 247 853 226 853 q 283 838 268 853 q 297 803 297 824 q 283 767 297 782 m 526 767 q 519 759 526 767 q 490 751 511 751 q 454 767 469 751 q 439 803 439 782 q 454 838 439 824 q 490 853 469 853 q 526 838 511 853 q 542 803 542 824 q 526 767 542 782 m 403 801 l 329 801 l 399 961 q 453 997 414 997 q 500 963 490 997 q 501 944 501 956 q 490 918 501 933 l 403 801 m 536 256 l 536 696 l 636 696 l 636 239 q 372 -14 636 -14 q 108 239 108 -14 l 108 696 l 208 696 l 208 254 q 249 122 208 163 q 372 81 289 81 q 495 122 454 81 q 536 256 536 164 z "},"α":{"ha":706,"x_min":108,"x_max":657,"o":"m 310 704 q 518 657 414 704 l 540 707 l 625 675 q 615 540 615 585 l 615 107 q 657 49 624 68 l 585 1 q 563 5 579 1 q 511 3 547 8 q 324 -7 401 -17 q 206 26 246 3 q 137 103 165 50 q 108 235 108 156 l 108 492 q 152 641 108 588 q 263 701 196 694 q 310 704 286 704 m 514 99 l 514 564 q 324 611 397 611 q 207 488 207 611 l 207 246 q 281 103 207 136 q 378 85 318 85 q 514 99 438 85 z "},"β":{"ha":671,"x_min":108,"x_max":622,"o":"m 494 796 q 449 682 494 726 q 573 608 524 665 q 622 458 622 550 l 622 203 q 332 -25 622 -25 q 208 -17 275 -25 l 208 -224 l 108 -224 l 108 746 q 160 913 108 851 q 310 974 211 974 q 417 942 371 974 q 494 796 494 886 m 208 81 q 368 68 300 68 q 480 106 436 68 q 524 221 524 143 l 524 442 q 492 547 524 508 q 369 596 450 596 q 208 558 289 596 l 208 81 m 208 744 l 208 653 q 338 704 269 683 q 394 783 394 721 q 374 844 394 813 q 308 875 353 875 q 208 744 208 875 z "},"γ":{"ha":665,"x_min":24,"x_max":675,"o":"m 289 -275 q 247 -167 247 -236 q 260 -97 247 -132 l 292 4 q 278 15 289 6 q 264 26 267 24 q 251 36 261 28 q 238 50 242 44 q 226 66 235 56 q 213 86 218 76 q 200 111 208 96 q 174 179 189 132 l 24 696 l 128 696 l 254 247 q 324 108 282 133 l 456 544 q 512 658 478 618 q 610 714 546 699 l 675 656 q 659 649 672 654 q 642 642 646 644 q 626 634 638 640 q 608 622 614 628 q 593 605 603 615 q 576 582 583 594 q 546 510 558 549 l 375 -61 q 347 -177 347 -140 q 365 -233 347 -214 l 289 -275 z "},"δ":{"ha":675,"x_min":108,"x_max":626,"o":"m 278 693 q 225 821 225 743 q 292 947 225 901 q 407 979 338 979 l 474 979 l 444 882 l 394 882 q 347 861 363 882 q 331 824 331 840 q 391 726 331 767 q 483 660 451 685 q 553 594 514 636 q 626 400 626 518 l 626 256 q 369 -14 626 -14 q 173 58 238 -14 q 108 256 108 129 l 108 431 q 153 606 108 539 q 278 693 199 674 m 526 243 l 526 399 q 468 544 526 474 q 369 621 431 590 q 208 421 208 607 l 208 243 q 253 121 208 163 q 369 79 299 79 q 483 118 440 79 q 526 243 526 157 z "},"ε":{"ha":636,"x_min":108,"x_max":588,"o":"m 364 619 q 238 522 238 619 q 268 450 238 482 q 351 418 299 418 l 489 418 l 457 321 l 342 321 q 243 291 278 321 q 208 205 208 261 q 249 115 208 149 q 351 82 289 82 q 533 114 458 82 l 558 125 l 588 32 q 362 -15 479 -15 q 181 42 244 -15 q 108 211 108 106 q 208 386 108 340 q 156 448 176 404 q 135 519 135 492 q 210 672 135 625 q 339 710 268 710 q 490 689 413 710 l 492 599 q 364 619 429 619 z "},"ζ":{"ha":664,"x_min":108,"x_max":615,"o":"m 213 261 q 394 93 213 93 q 565 119 467 93 l 565 -254 l 465 -290 l 465 8 q 371 -1 415 -1 q 225 33 288 -1 q 108 246 108 100 q 158 467 108 363 q 469 881 257 671 l 203 881 l 203 972 l 581 972 l 615 883 q 442 713 535 819 q 283 485 350 606 q 213 261 213 360 z "},"η":{"ha":669,"x_min":108,"x_max":621,"o":"m 204 661 q 376 707 265 707 q 503 682 449 707 q 621 481 621 628 l 621 -292 l 522 -258 l 522 476 q 473 587 522 556 q 356 618 424 618 q 208 574 289 618 l 208 0 l 108 0 l 108 696 l 204 696 l 204 661 z "},"θ":{"ha":699,"x_min":86,"x_max":614,"o":"m 614 701 l 614 265 q 545 67 614 142 q 349 -8 476 -8 q 154 67 222 -7 q 86 265 86 142 l 86 474 q 160 608 89 563 q 113 781 113 700 q 178 928 113 871 q 347 986 243 986 q 547 908 479 983 q 614 701 614 833 m 514 261 l 514 606 q 494 606 504 606 q 292 565 397 606 q 186 461 186 524 l 186 257 q 219 151 186 194 q 349 94 265 94 l 397 100 q 480 153 446 110 q 514 261 514 197 m 250 653 q 481 704 361 704 q 514 703 497 704 q 467 846 514 801 q 350 890 421 890 q 222 814 249 890 q 214 764 214 790 q 250 653 214 711 z "},"ι":{"ha":243,"x_min":92,"x_max":192,"o":"m 192 0 l 92 0 l 92 696 l 192 696 l 192 0 z "},"κ":{"ha":685,"x_min":108,"x_max":633,"o":"m 633 86 l 622 -1 q 532 24 574 -1 q 469 75 490 50 q 408 153 447 100 l 274 338 l 208 274 l 208 0 l 108 0 l 108 711 l 208 693 l 208 406 l 475 696 l 604 696 l 344 413 l 510 181 q 633 86 578 89 z "},"λ":{"ha":808,"x_min":108,"x_max":760,"o":"m 760 39 l 696 -18 q 597 38 632 -3 q 540 151 563 79 l 410 586 q 369 539 383 571 q 339 449 354 507 l 213 0 l 108 0 l 258 517 q 283 582 274 564 q 298 610 293 600 q 311 630 303 619 q 323 646 319 640 q 336 660 326 651 q 349 670 346 668 q 363 681 351 672 q 376 692 374 690 l 344 790 q 298 867 326 843 q 221 894 269 892 l 233 972 q 240 972 236 972 q 365 939 319 972 q 438 824 410 906 l 631 186 q 678 90 653 115 q 693 74 689 79 q 710 61 697 68 q 726 53 724 54 q 760 39 754 39 z "},"μ":{"ha":722,"x_min":108,"x_max":674,"o":"m 674 38 l 606 -8 q 557 28 579 -8 q 421 -17 515 -17 q 377 -14 404 -17 q 317 -2 350 -11 q 267 14 285 7 q 210 42 218 33 l 210 -292 l 108 -279 l 108 696 l 210 696 l 210 149 q 295 100 238 121 q 376 78 353 79 q 406 78 400 78 q 496 108 457 78 q 535 231 535 139 l 535 692 l 636 708 l 636 96 q 674 38 640 57 z "},"ν":{"ha":707,"x_min":108,"x_max":660,"o":"m 443 0 l 324 0 l 108 696 l 215 696 l 383 138 l 553 696 l 660 696 l 443 0 z "},"ξ":{"ha":576,"x_min":108,"x_max":528,"o":"m 372 90 q 528 117 440 90 l 528 -267 l 429 -303 l 429 1 q 367 -4 397 -4 l 315 0 q 213 31 258 8 q 138 104 167 53 q 108 228 108 156 l 108 483 q 164 639 108 579 q 290 710 219 699 q 242 819 242 754 q 288 934 242 885 q 417 983 333 983 l 479 983 l 450 885 l 410 885 q 358 863 372 885 q 343 822 343 840 q 397 728 343 763 q 497 686 426 710 l 468 603 q 343 619 400 619 q 247 581 286 619 q 207 468 207 542 l 207 236 q 372 90 207 90 z "},"ο":{"ha":675,"x_min":108,"x_max":626,"o":"m 626 439 l 626 256 q 563 63 626 139 q 369 -14 499 -14 q 174 63 240 -14 q 108 256 108 140 l 108 439 q 176 641 108 571 q 367 711 243 711 q 558 638 490 711 q 626 439 626 565 m 526 242 l 526 439 q 369 615 526 615 q 208 439 208 615 l 208 242 q 252 123 208 167 q 369 79 296 79 q 485 123 443 79 q 526 242 526 167 z "},"π":{"ha":710,"x_min":92,"x_max":658,"o":"m 658 51 l 606 -12 q 526 60 549 7 q 517 113 517 83 l 518 607 l 192 607 l 192 0 l 92 0 l 92 696 l 618 696 l 618 110 q 658 51 625 71 z "},"ρ":{"ha":675,"x_min":108,"x_max":626,"o":"m 207 -271 l 108 -293 l 108 438 q 176 633 108 561 q 373 704 244 704 q 564 630 501 704 q 626 426 626 556 l 626 239 q 562 51 626 117 q 378 -14 497 -14 q 207 44 260 -14 l 207 -271 m 525 240 l 525 428 q 367 611 525 611 q 208 429 208 611 l 208 240 q 369 79 208 79 q 525 240 525 79 z "},"ς":{"ha":579,"x_min":108,"x_max":531,"o":"m 499 -207 l 422 -161 q 439 -119 439 -142 q 382 -8 439 -44 q 338 19 374 -3 q 292 49 301 42 q 252 76 282 56 q 212 108 222 97 q 179 140 201 119 q 149 178 157 161 q 128 217 140 194 q 108 315 108 257 l 108 510 q 166 642 108 583 q 347 701 224 701 q 431 692 392 701 q 486 674 469 683 l 503 664 l 474 579 q 356 613 428 613 q 247 579 285 613 q 208 489 208 546 l 208 346 q 251 203 208 254 q 433 65 293 153 q 508 -15 486 32 q 531 -87 531 -62 q 499 -207 531 -160 z "},"σ":{"ha":757,"x_min":108,"x_max":708,"o":"m 626 431 l 626 243 q 369 -26 626 -26 q 173 45 238 -26 q 108 243 108 117 l 108 492 q 134 605 108 558 q 201 672 160 651 q 344 707 269 707 l 397 701 q 476 694 443 694 q 532 699 508 694 q 636 754 586 708 l 708 713 q 575 606 663 628 q 626 431 626 563 m 465 601 q 333 614 389 614 q 243 581 278 614 q 208 476 208 547 l 208 243 q 251 114 208 157 q 369 71 294 71 q 525 243 525 71 l 525 424 q 510 522 525 478 q 483 584 496 567 q 465 601 469 601 z "},"τ":{"ha":575,"x_min":108,"x_max":526,"o":"m 454 53 l 419 -21 q 264 183 264 22 l 264 600 l 108 600 l 108 694 l 526 694 l 526 600 l 364 600 l 364 189 q 454 53 364 83 z "},"υ":{"ha":671,"x_min":92,"x_max":619,"o":"m 519 256 l 519 696 l 619 696 l 619 239 q 356 -14 619 -14 q 92 239 92 -14 l 92 696 l 192 696 l 192 254 q 232 122 192 163 q 355 81 272 81 q 478 122 438 81 q 519 256 519 164 z "},"φ":{"ha":889,"x_min":108,"x_max":840,"o":"m 522 -300 l 421 -282 l 419 -7 l 369 -7 q 173 65 238 -7 q 108 263 108 136 l 108 436 q 269 699 108 647 l 324 621 q 208 436 208 590 l 208 274 q 369 86 208 86 l 419 86 l 419 557 q 469 665 424 626 q 581 704 514 704 q 771 628 701 704 q 840 426 840 553 l 840 263 q 776 65 840 136 q 579 -7 711 -7 l 522 -7 l 522 -300 m 740 272 l 740 438 q 697 573 740 529 q 606 617 653 617 q 540 593 558 617 q 522 539 522 569 l 522 86 l 579 86 q 740 272 740 86 z "},"χ":{"ha":832,"x_min":108,"x_max":783,"o":"m 783 -225 l 735 -294 q 732 -294 733 -294 q 551 -161 619 -294 l 410 128 l 200 -283 l 108 -246 l 356 238 l 131 696 l 242 696 l 411 344 l 592 696 l 704 696 l 464 235 l 635 -118 q 682 -185 654 -161 q 725 -214 710 -210 q 783 -225 760 -225 z "},"ψ":{"ha":890,"x_min":108,"x_max":840,"o":"m 521 -304 l 419 -286 l 419 -7 l 369 -7 q 173 65 238 -7 q 108 263 108 136 l 108 694 l 208 694 l 208 274 q 369 86 208 86 l 419 86 l 419 694 l 521 694 l 521 86 l 579 86 q 740 274 740 86 l 740 501 q 729 593 740 557 q 709 639 718 629 q 675 672 700 649 l 763 703 q 818 638 800 679 q 838 568 836 597 q 840 481 840 539 l 840 263 q 776 65 840 136 q 579 -7 711 -7 l 521 -7 l 521 -304 z "},"ω":{"ha":882,"x_min":92,"x_max":831,"o":"m 731 254 l 731 454 q 626 626 731 588 l 682 694 q 831 440 831 639 l 831 261 q 607 -17 831 -17 q 461 57 510 -17 q 315 -17 410 -17 q 92 261 92 -17 l 92 440 q 240 694 92 639 l 297 626 q 192 454 192 590 l 192 254 q 226 124 192 165 q 311 82 260 82 q 385 118 363 82 q 410 235 407 154 l 410 415 l 511 415 l 511 235 q 535 118 513 154 q 610 82 557 82 q 697 124 664 82 q 731 254 731 167 z "},"ϊ":{"ha":385,"x_min":28,"x_max":336,"o":"m 233 0 l 133 0 l 133 696 l 233 696 l 233 0 m 114 835 q 122 827 114 835 q 129 799 129 819 q 114 763 129 778 q 78 749 99 749 q 42 763 57 749 q 28 799 28 778 q 42 835 28 819 q 78 850 57 850 q 114 835 99 850 m 321 763 q 313 756 321 763 q 285 749 306 749 q 249 763 264 749 q 235 799 235 778 q 249 835 235 821 q 285 850 264 850 q 321 835 306 850 q 336 799 336 821 q 321 763 336 778 z "},"ϋ":{"ha":685,"x_min":108,"x_max":636,"o":"m 307 835 q 315 827 307 835 q 322 799 322 819 q 307 763 322 778 q 271 749 292 749 q 235 763 250 749 q 221 799 221 778 q 235 835 221 819 q 271 850 250 850 q 307 835 292 850 m 514 763 q 506 756 514 763 q 478 749 499 749 q 442 763 457 749 q 428 799 428 778 q 442 835 428 821 q 478 850 457 850 q 514 835 499 850 q 529 799 529 821 q 514 763 529 778 m 536 256 l 536 696 l 636 696 l 636 239 q 372 -14 636 -14 q 108 239 108 -14 l 108 696 l 208 696 l 208 254 q 249 122 208 163 q 372 81 289 81 q 495 122 454 81 q 536 256 536 164 z "},"ό":{"ha":675,"x_min":108,"x_max":626,"o":"m 406 747 l 332 747 l 400 907 q 454 943 417 943 q 472 940 464 943 q 504 893 504 928 q 493 863 504 878 l 406 747 m 626 439 l 626 256 q 563 63 626 139 q 369 -14 499 -14 q 174 63 240 -14 q 108 256 108 140 l 108 439 q 176 641 108 571 q 367 711 243 711 q 558 638 490 711 q 626 439 626 565 m 526 242 l 526 439 q 369 615 526 615 q 208 439 208 615 l 208 242 q 252 123 208 167 q 369 79 296 79 q 485 123 443 79 q 526 242 526 167 z "},"ύ":{"ha":685,"x_min":108,"x_max":636,"o":"m 419 747 l 346 747 l 414 907 q 468 943 431 943 q 486 940 478 943 q 518 893 518 928 q 507 863 518 878 l 419 747 m 536 256 l 536 696 l 636 696 l 636 239 q 372 -14 636 -14 q 108 239 108 -14 l 108 696 l 208 696 l 208 254 q 249 122 208 163 q 372 81 289 81 q 495 122 454 81 q 536 256 536 164 z "},"ώ":{"ha":896,"x_min":108,"x_max":847,"o":"m 522 747 l 449 747 l 517 907 q 571 943 533 943 q 589 940 581 943 q 621 893 621 928 q 610 863 621 878 l 522 747 m 747 254 l 747 454 q 643 626 747 588 l 699 694 q 847 440 847 639 l 847 261 q 624 -17 847 -17 q 478 57 526 -17 q 332 -17 426 -17 q 108 261 108 -17 l 108 440 q 257 694 108 639 l 314 626 q 208 454 208 590 l 208 254 q 242 124 208 165 q 328 82 276 82 q 401 118 379 82 q 426 235 424 154 l 426 415 l 528 415 l 528 235 q 551 118 529 154 q 627 82 574 82 q 714 124 681 82 q 747 254 747 167 z "},"‘":{"ha":158,"x_min":0,"x_max":158,"o":"m 67 878 l 82 874 q 112 826 113 856 q 95 782 111 796 q 68 768 79 768 q 17 788 33 768 q 0 829 0 808 q 90 990 0 913 l 158 951 q 67 878 103 919 z "},"’":{"ha":158,"x_min":0,"x_max":158,"o":"m 68 763 l 0 801 q 92 875 56 833 l 76 879 q 47 927 46 897 q 63 971 47 957 q 90 985 79 985 q 142 965 125 985 q 158 924 158 944 q 68 763 158 840 z "},"‚":{"ha":229,"x_min":11,"x_max":169,"o":"m 79 -117 l 11 -78 q 103 -4 71 -43 l 88 0 q 58 48 57 18 q 74 92 58 78 q 101 106 90 106 q 153 85 136 106 q 169 44 169 65 q 79 -117 169 -39 z "},"“":{"ha":406,"x_min":63,"x_max":379,"o":"m 129 883 l 144 879 q 174 831 175 861 q 158 788 174 801 q 131 774 142 774 q 79 794 96 774 q 63 835 63 814 q 153 996 63 918 l 221 957 q 129 883 165 925 m 288 883 l 303 879 q 333 831 333 861 q 316 788 332 801 q 289 774 300 774 q 238 794 254 774 q 221 835 221 814 q 311 996 221 918 l 379 957 q 288 883 324 925 z "},"”":{"ha":397,"x_min":14,"x_max":333,"o":"m 82 763 l 14 801 q 106 875 69 833 l 90 879 q 60 927 60 897 q 77 971 61 957 q 104 985 93 985 q 156 965 139 985 q 172 924 172 944 q 82 763 172 840 m 243 763 l 175 801 q 267 875 231 833 l 251 879 q 222 927 221 897 q 238 971 222 957 q 265 985 254 985 q 317 965 300 985 q 333 924 333 944 q 243 763 333 840 z "},"„":{"ha":438,"x_min":74,"x_max":317,"o":"m 150 1 q 120 49 119 19 q 137 93 121 79 q 176 107 153 107 q 215 88 199 107 q 256 107 231 107 q 300 87 283 107 q 317 46 317 67 q 226 -115 317 -37 l 174 -85 q 142 -115 153 -106 l 74 -76 q 165 -3 133 -42 l 150 1 m 250 -3 l 235 1 q 226 7 229 4 q 203 -47 219 -22 q 250 -3 233 -25 z "},"•":{"ha":653,"x_min":108,"x_max":604,"o":"m 531 292 q 495 256 531 292 q 356 219 458 219 q 181 292 253 219 q 108 468 108 365 q 181 643 108 571 q 356 715 253 715 q 531 643 458 715 q 604 468 604 571 q 531 292 604 365 z "},"…":{"ha":674,"x_min":11,"x_max":614,"o":"m 101 15 q 94 8 101 15 q 64 0 86 0 q 26 15 42 0 q 11 53 11 31 q 26 90 11 75 q 64 106 42 106 q 101 90 86 106 q 117 53 117 75 q 101 15 117 31 m 349 15 q 341 8 349 15 q 311 0 333 0 q 274 15 289 0 q 258 53 258 31 q 274 90 258 75 q 311 106 289 106 q 349 90 333 106 q 364 53 364 75 q 349 15 364 31 m 599 15 q 591 8 599 15 q 561 0 583 0 q 524 15 539 0 q 508 53 508 31 q 524 90 508 75 q 561 106 539 106 q 599 90 583 106 q 614 53 614 75 q 599 15 614 31 z "},"‰":{"ha":1456,"x_min":108,"x_max":1407,"o":"m 1349 43 q 1319 14 1349 43 q 1207 -15 1290 -15 q 1065 43 1124 -15 q 1007 185 1007 101 q 1065 326 1007 268 q 1207 385 1124 385 q 1349 326 1290 385 q 1407 185 1407 268 q 1349 43 1407 101 m 1283 112 q 1297 127 1283 112 q 1311 185 1311 143 q 1283 258 1311 226 q 1207 289 1254 289 q 1131 258 1160 289 q 1103 185 1103 226 q 1131 112 1103 143 q 1207 81 1160 81 q 1283 112 1254 81 m 176 0 l 108 68 l 881 1029 l 957 963 l 176 0 m 892 43 q 863 14 892 43 q 750 -15 833 -15 q 608 43 667 -15 q 550 185 550 101 q 608 326 550 268 q 750 385 667 385 q 892 326 833 385 q 950 185 950 268 q 892 43 950 101 m 826 111 q 841 127 826 111 q 856 185 856 143 q 826 258 856 226 q 750 290 797 290 q 674 258 703 290 q 644 185 644 226 q 674 111 644 143 q 750 79 703 79 q 826 111 797 79 m 460 668 q 431 639 460 668 q 318 610 401 610 q 176 668 235 610 q 118 810 118 726 q 176 951 118 893 q 318 1010 235 1010 q 460 951 401 1010 q 518 810 518 893 q 460 668 518 726 m 395 736 q 410 752 395 736 q 425 810 425 768 q 395 883 425 851 q 318 915 365 915 q 242 883 271 915 q 213 810 213 851 q 242 736 213 768 q 318 704 271 704 q 395 736 365 704 z "},"‹":{"ha":386,"x_min":58,"x_max":385,"o":"m 382 172 l 318 111 l 58 371 l 58 372 l 318 632 l 385 565 l 189 371 l 382 172 z "},"›":{"ha":408,"x_min":3,"x_max":329,"o":"m 69 111 l 6 172 l 199 371 l 3 565 l 69 632 l 329 372 l 329 371 l 69 111 z "},"⁄":{"ha":710,"x_min":108,"x_max":661,"o":"m 217 -158 l 108 -158 l 558 1135 l 661 1135 l 217 -158 z "},"€":{"ha":738,"x_min":108,"x_max":689,"o":"m 288 254 q 478 81 288 81 q 669 118 560 81 l 689 29 q 464 -17 571 -17 q 397 -12 442 -17 q 301 19 351 -8 q 219 105 250 46 q 188 251 188 164 l 188 328 l 108 328 l 108 425 l 188 425 l 188 494 l 108 494 l 108 592 l 188 592 l 188 697 q 217 857 188 803 q 308 949 247 911 q 457 983 371 983 q 654 938 564 983 l 625 858 q 492 886 550 886 q 394 874 433 886 q 321 820 354 863 q 288 710 288 778 l 288 592 l 553 592 l 553 494 l 288 494 l 288 425 l 553 425 l 553 328 l 288 328 l 288 254 z "},"™":{"ha":804,"x_min":146,"x_max":663,"o":"m 663 711 l 599 711 l 599 878 l 543 711 l 500 711 l 444 878 l 444 711 l 378 711 l 378 908 l 300 908 l 300 711 l 233 711 l 233 908 l 146 908 l 146 972 l 467 972 l 521 822 l 574 972 l 663 972 l 663 711 z "},"Ω":{"ha":871,"x_min":108,"x_max":822,"o":"m 822 0 l 506 0 l 506 92 q 549 97 531 92 q 590 108 568 103 q 620 118 611 113 q 646 133 629 124 q 670 156 663 143 q 688 185 678 168 q 704 272 704 214 l 704 694 q 658 833 704 783 q 536 883 613 883 l 396 883 q 272 835 317 883 q 226 694 226 788 l 226 272 q 240 191 226 214 q 260 156 253 168 q 285 133 268 143 q 310 118 301 124 q 341 108 319 113 q 369 100 363 103 q 425 92 400 92 l 425 0 l 108 0 l 132 92 l 203 92 q 126 272 126 147 l 126 699 q 192 904 126 826 q 388 982 257 982 l 543 982 q 739 904 674 982 q 804 699 804 826 l 804 272 q 783 160 804 200 q 724 92 761 121 l 799 92 l 822 0 z "},"∆":{"ha":858,"x_min":108,"x_max":810,"o":"m 810 0 l 108 0 l 406 972 l 503 972 l 810 0 m 674 90 l 456 797 l 242 90 l 674 90 z "},"ﬀ":{"ha":769,"x_min":108,"x_max":721,"o":"m 503 932 q 617 972 554 972 q 721 951 681 972 l 689 863 q 635 878 661 878 q 583 864 608 878 q 533 756 533 833 l 533 696 l 681 696 l 647 601 l 533 601 l 533 0 l 433 0 l 433 761 q 446 846 433 806 q 344 876 394 876 q 249 842 289 876 q 210 756 210 807 l 210 696 l 357 696 l 324 601 l 210 601 l 210 0 l 108 0 l 108 754 q 225 953 108 897 q 342 976 274 976 q 503 932 410 976 z "},"ﬁ":{"ha":574,"x_min":108,"x_max":525,"o":"m 525 0 l 425 0 l 425 696 l 525 696 l 525 0 m 210 0 l 108 0 l 108 761 q 146 892 108 836 q 319 983 210 983 q 497 919 417 983 l 425 851 q 339 885 375 885 q 278 875 303 885 q 210 763 210 846 l 210 696 l 357 696 l 324 601 l 210 601 l 210 0 z "},"ﬂ":{"ha":574,"x_min":108,"x_max":525,"o":"m 525 0 l 424 0 l 424 853 q 338 883 374 883 q 278 872 303 883 q 210 763 210 843 l 210 696 l 357 696 l 324 601 l 210 601 l 210 0 l 108 0 l 108 761 q 167 917 108 857 q 323 981 229 981 q 525 925 417 981 l 525 0 z "},"ﬄ":{"ha":893,"x_min":108,"x_max":844,"o":"m 503 932 q 660 981 561 981 q 844 933 760 981 l 844 0 l 744 0 l 744 858 q 665 881 700 881 q 600 867 629 881 q 533 764 533 835 l 533 696 l 681 696 q 647 601 658 635 l 533 601 l 533 0 l 433 0 l 433 761 q 446 846 433 806 q 344 876 394 876 q 249 842 289 876 q 210 756 210 807 l 210 696 l 357 696 q 324 601 335 635 l 210 601 l 210 0 l 108 0 l 108 686 q 110 778 108 747 q 171 919 114 864 q 319 978 232 978 q 503 932 407 978 z "}," ":{"ha":386,"x_min":0,"x_max":0,"o":""}}}
